<?xml version="1.0" encoding="utf-8" standalone="no"?>
<!DOCTYPE svg PUBLIC "-//W3C//DTD SVG 1.1//EN"
  "http://www.w3.org/Graphics/SVG/1.1/DTD/svg11.dtd">
<svg xmlns:xlink="http://www.w3.org/1999/xlink" width="460.8pt" height="345.6pt" viewBox="0 0 460.8 345.6" xmlns="http://www.w3.org/2000/svg" version="1.1">
 <metadata>
  <rdf:RDF xmlns:dc="http://purl.org/dc/elements/1.1/" xmlns:cc="http://creativecommons.org/ns#" xmlns:rdf="http://www.w3.org/1999/02/22-rdf-syntax-ns#">
   <cc:Work>
    <dc:type rdf:resource="http://purl.org/dc/dcmitype/StillImage"/>
    <dc:date>2024-09-24T01:37:35.559479</dc:date>
    <dc:format>image/svg+xml</dc:format>
    <dc:creator>
     <cc:Agent>
      <dc:title>Matplotlib v3.9.1, https://matplotlib.org/</dc:title>
     </cc:Agent>
    </dc:creator>
   </cc:Work>
  </rdf:RDF>
 </metadata>
 <defs>
  <style type="text/css">*{stroke-linejoin: round; stroke-linecap: butt}</style>
 </defs>
 <g id="figure_1">
  <g id="patch_1">
   <path d="M 0 345.6 
L 460.8 345.6 
L 460.8 0 
L 0 0 
z
" style="fill: #ffffff"/>
  </g>
  <g id="axes_1">
   <g id="patch_2">
    <path d="M 366.096818 181.56 
C 366.096818 163.740457 362.586757 146.094187 355.767513 129.631076 
C 348.948269 113.167965 338.95246 98.208179 326.35214 85.60786 
C 313.751821 73.00754 298.792035 63.011731 282.328924 56.192487 
C 265.865813 49.373243 248.219543 45.863182 230.4 45.863182 
C 212.580457 45.863182 194.934187 49.373243 178.471076 56.192487 
C 162.007965 63.011731 147.048179 73.00754 134.44786 85.60786 
C 121.84754 98.208179 111.851731 113.167965 105.032487 129.631076 
C 98.213243 146.094187 94.703182 163.740457 94.703182 181.56 
C 94.703182 199.379543 98.213243 217.025813 105.032487 233.488924 
C 111.851731 249.952035 121.84754 264.911821 134.44786 277.51214 
C 147.048179 290.11246 162.007965 300.108269 178.471076 306.927513 
C 194.934187 313.746757 212.580457 317.256818 230.4 317.256818 
C 248.219543 317.256818 265.865813 313.746757 282.328924 306.927513 
C 298.792035 300.108269 313.751821 290.11246 326.35214 277.51214 
C 338.95246 264.911821 348.948269 249.952035 355.767513 233.488924 
C 362.586757 217.025813 366.096818 199.379543 366.096818 181.56 
M 230.4 181.56 
C 230.4 181.56 230.4 181.56 230.4 181.56 
C 230.4 181.56 230.4 181.56 230.4 181.56 
C 230.4 181.56 230.4 181.56 230.4 181.56 
C 230.4 181.56 230.4 181.56 230.4 181.56 
C 230.4 181.56 230.4 181.56 230.4 181.56 
C 230.4 181.56 230.4 181.56 230.4 181.56 
C 230.4 181.56 230.4 181.56 230.4 181.56 
C 230.4 181.56 230.4 181.56 230.4 181.56 
C 230.4 181.56 230.4 181.56 230.4 181.56 
C 230.4 181.56 230.4 181.56 230.4 181.56 
C 230.4 181.56 230.4 181.56 230.4 181.56 
C 230.4 181.56 230.4 181.56 230.4 181.56 
C 230.4 181.56 230.4 181.56 230.4 181.56 
C 230.4 181.56 230.4 181.56 230.4 181.56 
C 230.4 181.56 230.4 181.56 230.4 181.56 
C 230.4 181.56 230.4 181.56 230.4 181.56 
z
" style="fill: #e5e5e5"/>
   </g>
   <g id="matplotlib.axis_1">
    <g id="xtick_1">
     <g id="line2d_1">
      <path d="M 230.4 181.56 
L 366.096818 181.56 
" clip-path="url(#p4b8b94a4b4)" style="fill: none; stroke: #ffffff; stroke-width: 0.8; stroke-linecap: square"/>
     </g>
     <g id="text_1">
      <!-- Age -->
      <g style="fill: #555555" transform="translate(370.425724 184.319375) scale(0.1 -0.1)">
       <defs>
        <path id="DejaVuSans-41" d="M 2188 4044 
L 1331 1722 
L 3047 1722 
L 2188 4044 
z
M 1831 4666 
L 2547 4666 
L 4325 0 
L 3669 0 
L 3244 1197 
L 1141 1197 
L 716 0 
L 50 0 
L 1831 4666 
z
" transform="scale(0.015625)"/>
        <path id="DejaVuSans-67" d="M 2906 1791 
Q 2906 2416 2648 2759 
Q 2391 3103 1925 3103 
Q 1463 3103 1205 2759 
Q 947 2416 947 1791 
Q 947 1169 1205 825 
Q 1463 481 1925 481 
Q 2391 481 2648 825 
Q 2906 1169 2906 1791 
z
M 3481 434 
Q 3481 -459 3084 -895 
Q 2688 -1331 1869 -1331 
Q 1566 -1331 1297 -1286 
Q 1028 -1241 775 -1147 
L 775 -588 
Q 1028 -725 1275 -790 
Q 1522 -856 1778 -856 
Q 2344 -856 2625 -561 
Q 2906 -266 2906 331 
L 2906 616 
Q 2728 306 2450 153 
Q 2172 0 1784 0 
Q 1141 0 747 490 
Q 353 981 353 1791 
Q 353 2603 747 3093 
Q 1141 3584 1784 3584 
Q 2172 3584 2450 3431 
Q 2728 3278 2906 2969 
L 2906 3500 
L 3481 3500 
L 3481 434 
z
" transform="scale(0.015625)"/>
        <path id="DejaVuSans-65" d="M 3597 1894 
L 3597 1613 
L 953 1613 
Q 991 1019 1311 708 
Q 1631 397 2203 397 
Q 2534 397 2845 478 
Q 3156 559 3463 722 
L 3463 178 
Q 3153 47 2828 -22 
Q 2503 -91 2169 -91 
Q 1331 -91 842 396 
Q 353 884 353 1716 
Q 353 2575 817 3079 
Q 1281 3584 2069 3584 
Q 2775 3584 3186 3129 
Q 3597 2675 3597 1894 
z
M 3022 2063 
Q 3016 2534 2758 2815 
Q 2500 3097 2075 3097 
Q 1594 3097 1305 2825 
Q 1016 2553 972 2059 
L 3022 2063 
z
" transform="scale(0.015625)"/>
       </defs>
       <use xlink:href="#DejaVuSans-41"/>
       <use xlink:href="#DejaVuSans-67" x="68.408203"/>
       <use xlink:href="#DejaVuSans-65" x="131.884766"/>
      </g>
     </g>
    </g>
    <g id="xtick_2">
     <g id="line2d_2">
      <path d="M 230.4 181.56 
L 344.555428 108.196761 
" clip-path="url(#p4b8b94a4b4)" style="fill: none; stroke: #ffffff; stroke-width: 0.8; stroke-linecap: square"/>
     </g>
     <g id="text_2">
      <!-- Disability_status -->
      <g style="fill: #555555" transform="translate(315.301727 103.248102) scale(0.1 -0.1)">
       <defs>
        <path id="DejaVuSans-44" d="M 1259 4147 
L 1259 519 
L 2022 519 
Q 2988 519 3436 956 
Q 3884 1394 3884 2338 
Q 3884 3275 3436 3711 
Q 2988 4147 2022 4147 
L 1259 4147 
z
M 628 4666 
L 1925 4666 
Q 3281 4666 3915 4102 
Q 4550 3538 4550 2338 
Q 4550 1131 3912 565 
Q 3275 0 1925 0 
L 628 0 
L 628 4666 
z
" transform="scale(0.015625)"/>
        <path id="DejaVuSans-69" d="M 603 3500 
L 1178 3500 
L 1178 0 
L 603 0 
L 603 3500 
z
M 603 4863 
L 1178 4863 
L 1178 4134 
L 603 4134 
L 603 4863 
z
" transform="scale(0.015625)"/>
        <path id="DejaVuSans-73" d="M 2834 3397 
L 2834 2853 
Q 2591 2978 2328 3040 
Q 2066 3103 1784 3103 
Q 1356 3103 1142 2972 
Q 928 2841 928 2578 
Q 928 2378 1081 2264 
Q 1234 2150 1697 2047 
L 1894 2003 
Q 2506 1872 2764 1633 
Q 3022 1394 3022 966 
Q 3022 478 2636 193 
Q 2250 -91 1575 -91 
Q 1294 -91 989 -36 
Q 684 19 347 128 
L 347 722 
Q 666 556 975 473 
Q 1284 391 1588 391 
Q 1994 391 2212 530 
Q 2431 669 2431 922 
Q 2431 1156 2273 1281 
Q 2116 1406 1581 1522 
L 1381 1569 
Q 847 1681 609 1914 
Q 372 2147 372 2553 
Q 372 3047 722 3315 
Q 1072 3584 1716 3584 
Q 2034 3584 2315 3537 
Q 2597 3491 2834 3397 
z
" transform="scale(0.015625)"/>
        <path id="DejaVuSans-61" d="M 2194 1759 
Q 1497 1759 1228 1600 
Q 959 1441 959 1056 
Q 959 750 1161 570 
Q 1363 391 1709 391 
Q 2188 391 2477 730 
Q 2766 1069 2766 1631 
L 2766 1759 
L 2194 1759 
z
M 3341 1997 
L 3341 0 
L 2766 0 
L 2766 531 
Q 2569 213 2275 61 
Q 1981 -91 1556 -91 
Q 1019 -91 701 211 
Q 384 513 384 1019 
Q 384 1609 779 1909 
Q 1175 2209 1959 2209 
L 2766 2209 
L 2766 2266 
Q 2766 2663 2505 2880 
Q 2244 3097 1772 3097 
Q 1472 3097 1187 3025 
Q 903 2953 641 2809 
L 641 3341 
Q 956 3463 1253 3523 
Q 1550 3584 1831 3584 
Q 2591 3584 2966 3190 
Q 3341 2797 3341 1997 
z
" transform="scale(0.015625)"/>
        <path id="DejaVuSans-62" d="M 3116 1747 
Q 3116 2381 2855 2742 
Q 2594 3103 2138 3103 
Q 1681 3103 1420 2742 
Q 1159 2381 1159 1747 
Q 1159 1113 1420 752 
Q 1681 391 2138 391 
Q 2594 391 2855 752 
Q 3116 1113 3116 1747 
z
M 1159 2969 
Q 1341 3281 1617 3432 
Q 1894 3584 2278 3584 
Q 2916 3584 3314 3078 
Q 3713 2572 3713 1747 
Q 3713 922 3314 415 
Q 2916 -91 2278 -91 
Q 1894 -91 1617 61 
Q 1341 213 1159 525 
L 1159 0 
L 581 0 
L 581 4863 
L 1159 4863 
L 1159 2969 
z
" transform="scale(0.015625)"/>
        <path id="DejaVuSans-6c" d="M 603 4863 
L 1178 4863 
L 1178 0 
L 603 0 
L 603 4863 
z
" transform="scale(0.015625)"/>
        <path id="DejaVuSans-74" d="M 1172 4494 
L 1172 3500 
L 2356 3500 
L 2356 3053 
L 1172 3053 
L 1172 1153 
Q 1172 725 1289 603 
Q 1406 481 1766 481 
L 2356 481 
L 2356 0 
L 1766 0 
Q 1100 0 847 248 
Q 594 497 594 1153 
L 594 3053 
L 172 3053 
L 172 3500 
L 594 3500 
L 594 4494 
L 1172 4494 
z
" transform="scale(0.015625)"/>
        <path id="DejaVuSans-79" d="M 2059 -325 
Q 1816 -950 1584 -1140 
Q 1353 -1331 966 -1331 
L 506 -1331 
L 506 -850 
L 844 -850 
Q 1081 -850 1212 -737 
Q 1344 -625 1503 -206 
L 1606 56 
L 191 3500 
L 800 3500 
L 1894 763 
L 2988 3500 
L 3597 3500 
L 2059 -325 
z
" transform="scale(0.015625)"/>
        <path id="DejaVuSans-5f" d="M 3263 -1063 
L 3263 -1509 
L -63 -1509 
L -63 -1063 
L 3263 -1063 
z
" transform="scale(0.015625)"/>
        <path id="DejaVuSans-75" d="M 544 1381 
L 544 3500 
L 1119 3500 
L 1119 1403 
Q 1119 906 1312 657 
Q 1506 409 1894 409 
Q 2359 409 2629 706 
Q 2900 1003 2900 1516 
L 2900 3500 
L 3475 3500 
L 3475 0 
L 2900 0 
L 2900 538 
Q 2691 219 2414 64 
Q 2138 -91 1772 -91 
Q 1169 -91 856 284 
Q 544 659 544 1381 
z
M 1991 3584 
L 1991 3584 
z
" transform="scale(0.015625)"/>
       </defs>
       <use xlink:href="#DejaVuSans-44"/>
       <use xlink:href="#DejaVuSans-69" x="77.001953"/>
       <use xlink:href="#DejaVuSans-73" x="104.785156"/>
       <use xlink:href="#DejaVuSans-61" x="156.884766"/>
       <use xlink:href="#DejaVuSans-62" x="218.164062"/>
       <use xlink:href="#DejaVuSans-69" x="281.640625"/>
       <use xlink:href="#DejaVuSans-6c" x="309.423828"/>
       <use xlink:href="#DejaVuSans-69" x="337.207031"/>
       <use xlink:href="#DejaVuSans-74" x="364.990234"/>
       <use xlink:href="#DejaVuSans-79" x="404.199219"/>
       <use xlink:href="#DejaVuSans-5f" x="463.378906"/>
       <use xlink:href="#DejaVuSans-73" x="513.378906"/>
       <use xlink:href="#DejaVuSans-74" x="565.478516"/>
       <use xlink:href="#DejaVuSans-61" x="604.6875"/>
       <use xlink:href="#DejaVuSans-74" x="665.966797"/>
       <use xlink:href="#DejaVuSans-75" x="705.175781"/>
       <use xlink:href="#DejaVuSans-73" x="768.554688"/>
      </g>
     </g>
    </g>
    <g id="xtick_3">
     <g id="line2d_3">
      <path d="M 230.4 181.56 
L 286.770495 58.125833 
" clip-path="url(#p4b8b94a4b4)" style="fill: none; stroke: #ffffff; stroke-width: 0.8; stroke-linecap: square"/>
     </g>
     <g id="text_3">
      <!-- Gender_identity -->
      <g style="fill: #555555" transform="translate(252.583181 48.011297) scale(0.1 -0.1)">
       <defs>
        <path id="DejaVuSans-47" d="M 3809 666 
L 3809 1919 
L 2778 1919 
L 2778 2438 
L 4434 2438 
L 4434 434 
Q 4069 175 3628 42 
Q 3188 -91 2688 -91 
Q 1594 -91 976 548 
Q 359 1188 359 2328 
Q 359 3472 976 4111 
Q 1594 4750 2688 4750 
Q 3144 4750 3555 4637 
Q 3966 4525 4313 4306 
L 4313 3634 
Q 3963 3931 3569 4081 
Q 3175 4231 2741 4231 
Q 1884 4231 1454 3753 
Q 1025 3275 1025 2328 
Q 1025 1384 1454 906 
Q 1884 428 2741 428 
Q 3075 428 3337 486 
Q 3600 544 3809 666 
z
" transform="scale(0.015625)"/>
        <path id="DejaVuSans-6e" d="M 3513 2113 
L 3513 0 
L 2938 0 
L 2938 2094 
Q 2938 2591 2744 2837 
Q 2550 3084 2163 3084 
Q 1697 3084 1428 2787 
Q 1159 2491 1159 1978 
L 1159 0 
L 581 0 
L 581 3500 
L 1159 3500 
L 1159 2956 
Q 1366 3272 1645 3428 
Q 1925 3584 2291 3584 
Q 2894 3584 3203 3211 
Q 3513 2838 3513 2113 
z
" transform="scale(0.015625)"/>
        <path id="DejaVuSans-64" d="M 2906 2969 
L 2906 4863 
L 3481 4863 
L 3481 0 
L 2906 0 
L 2906 525 
Q 2725 213 2448 61 
Q 2172 -91 1784 -91 
Q 1150 -91 751 415 
Q 353 922 353 1747 
Q 353 2572 751 3078 
Q 1150 3584 1784 3584 
Q 2172 3584 2448 3432 
Q 2725 3281 2906 2969 
z
M 947 1747 
Q 947 1113 1208 752 
Q 1469 391 1925 391 
Q 2381 391 2643 752 
Q 2906 1113 2906 1747 
Q 2906 2381 2643 2742 
Q 2381 3103 1925 3103 
Q 1469 3103 1208 2742 
Q 947 2381 947 1747 
z
" transform="scale(0.015625)"/>
        <path id="DejaVuSans-72" d="M 2631 2963 
Q 2534 3019 2420 3045 
Q 2306 3072 2169 3072 
Q 1681 3072 1420 2755 
Q 1159 2438 1159 1844 
L 1159 0 
L 581 0 
L 581 3500 
L 1159 3500 
L 1159 2956 
Q 1341 3275 1631 3429 
Q 1922 3584 2338 3584 
Q 2397 3584 2469 3576 
Q 2541 3569 2628 3553 
L 2631 2963 
z
" transform="scale(0.015625)"/>
       </defs>
       <use xlink:href="#DejaVuSans-47"/>
       <use xlink:href="#DejaVuSans-65" x="77.490234"/>
       <use xlink:href="#DejaVuSans-6e" x="139.013672"/>
       <use xlink:href="#DejaVuSans-64" x="202.392578"/>
       <use xlink:href="#DejaVuSans-65" x="265.869141"/>
       <use xlink:href="#DejaVuSans-72" x="327.392578"/>
       <use xlink:href="#DejaVuSans-5f" x="368.505859"/>
       <use xlink:href="#DejaVuSans-69" x="418.505859"/>
       <use xlink:href="#DejaVuSans-64" x="446.289062"/>
       <use xlink:href="#DejaVuSans-65" x="509.765625"/>
       <use xlink:href="#DejaVuSans-6e" x="571.289062"/>
       <use xlink:href="#DejaVuSans-74" x="634.667969"/>
       <use xlink:href="#DejaVuSans-69" x="673.876953"/>
       <use xlink:href="#DejaVuSans-74" x="701.660156"/>
       <use xlink:href="#DejaVuSans-79" x="740.869141"/>
      </g>
     </g>
    </g>
    <g id="xtick_4">
     <g id="line2d_4">
      <path d="M 230.4 181.56 
L 211.088329 47.24438 
" clip-path="url(#p4b8b94a4b4)" style="fill: none; stroke: #ffffff; stroke-width: 0.8; stroke-linecap: square"/>
     </g>
     <g id="text_4">
      <!-- Nationality -->
      <g style="fill: #555555" transform="translate(181.952172 36.146255) scale(0.1 -0.1)">
       <defs>
        <path id="DejaVuSans-4e" d="M 628 4666 
L 1478 4666 
L 3547 763 
L 3547 4666 
L 4159 4666 
L 4159 0 
L 3309 0 
L 1241 3903 
L 1241 0 
L 628 0 
L 628 4666 
z
" transform="scale(0.015625)"/>
        <path id="DejaVuSans-6f" d="M 1959 3097 
Q 1497 3097 1228 2736 
Q 959 2375 959 1747 
Q 959 1119 1226 758 
Q 1494 397 1959 397 
Q 2419 397 2687 759 
Q 2956 1122 2956 1747 
Q 2956 2369 2687 2733 
Q 2419 3097 1959 3097 
z
M 1959 3584 
Q 2709 3584 3137 3096 
Q 3566 2609 3566 1747 
Q 3566 888 3137 398 
Q 2709 -91 1959 -91 
Q 1206 -91 779 398 
Q 353 888 353 1747 
Q 353 2609 779 3096 
Q 1206 3584 1959 3584 
z
" transform="scale(0.015625)"/>
       </defs>
       <use xlink:href="#DejaVuSans-4e"/>
       <use xlink:href="#DejaVuSans-61" x="74.804688"/>
       <use xlink:href="#DejaVuSans-74" x="136.083984"/>
       <use xlink:href="#DejaVuSans-69" x="175.292969"/>
       <use xlink:href="#DejaVuSans-6f" x="203.076172"/>
       <use xlink:href="#DejaVuSans-6e" x="264.257812"/>
       <use xlink:href="#DejaVuSans-61" x="327.636719"/>
       <use xlink:href="#DejaVuSans-6c" x="388.916016"/>
       <use xlink:href="#DejaVuSans-69" x="416.699219"/>
       <use xlink:href="#DejaVuSans-74" x="444.482422"/>
       <use xlink:href="#DejaVuSans-79" x="483.691406"/>
      </g>
     </g>
    </g>
    <g id="xtick_5">
     <g id="line2d_5">
      <path d="M 230.4 181.56 
L 141.537482 79.007188 
" clip-path="url(#p4b8b94a4b4)" style="fill: none; stroke: #ffffff; stroke-width: 0.8; stroke-linecap: square"/>
     </g>
     <g id="text_5">
      <!-- Physical_appearance -->
      <g style="fill: #555555" transform="translate(79.863182 71.047006) scale(0.1 -0.1)">
       <defs>
        <path id="DejaVuSans-50" d="M 1259 4147 
L 1259 2394 
L 2053 2394 
Q 2494 2394 2734 2622 
Q 2975 2850 2975 3272 
Q 2975 3691 2734 3919 
Q 2494 4147 2053 4147 
L 1259 4147 
z
M 628 4666 
L 2053 4666 
Q 2838 4666 3239 4311 
Q 3641 3956 3641 3272 
Q 3641 2581 3239 2228 
Q 2838 1875 2053 1875 
L 1259 1875 
L 1259 0 
L 628 0 
L 628 4666 
z
" transform="scale(0.015625)"/>
        <path id="DejaVuSans-68" d="M 3513 2113 
L 3513 0 
L 2938 0 
L 2938 2094 
Q 2938 2591 2744 2837 
Q 2550 3084 2163 3084 
Q 1697 3084 1428 2787 
Q 1159 2491 1159 1978 
L 1159 0 
L 581 0 
L 581 4863 
L 1159 4863 
L 1159 2956 
Q 1366 3272 1645 3428 
Q 1925 3584 2291 3584 
Q 2894 3584 3203 3211 
Q 3513 2838 3513 2113 
z
" transform="scale(0.015625)"/>
        <path id="DejaVuSans-63" d="M 3122 3366 
L 3122 2828 
Q 2878 2963 2633 3030 
Q 2388 3097 2138 3097 
Q 1578 3097 1268 2742 
Q 959 2388 959 1747 
Q 959 1106 1268 751 
Q 1578 397 2138 397 
Q 2388 397 2633 464 
Q 2878 531 3122 666 
L 3122 134 
Q 2881 22 2623 -34 
Q 2366 -91 2075 -91 
Q 1284 -91 818 406 
Q 353 903 353 1747 
Q 353 2603 823 3093 
Q 1294 3584 2113 3584 
Q 2378 3584 2631 3529 
Q 2884 3475 3122 3366 
z
" transform="scale(0.015625)"/>
        <path id="DejaVuSans-70" d="M 1159 525 
L 1159 -1331 
L 581 -1331 
L 581 3500 
L 1159 3500 
L 1159 2969 
Q 1341 3281 1617 3432 
Q 1894 3584 2278 3584 
Q 2916 3584 3314 3078 
Q 3713 2572 3713 1747 
Q 3713 922 3314 415 
Q 2916 -91 2278 -91 
Q 1894 -91 1617 61 
Q 1341 213 1159 525 
z
M 3116 1747 
Q 3116 2381 2855 2742 
Q 2594 3103 2138 3103 
Q 1681 3103 1420 2742 
Q 1159 2381 1159 1747 
Q 1159 1113 1420 752 
Q 1681 391 2138 391 
Q 2594 391 2855 752 
Q 3116 1113 3116 1747 
z
" transform="scale(0.015625)"/>
       </defs>
       <use xlink:href="#DejaVuSans-50"/>
       <use xlink:href="#DejaVuSans-68" x="60.302734"/>
       <use xlink:href="#DejaVuSans-79" x="123.681641"/>
       <use xlink:href="#DejaVuSans-73" x="182.861328"/>
       <use xlink:href="#DejaVuSans-69" x="234.960938"/>
       <use xlink:href="#DejaVuSans-63" x="262.744141"/>
       <use xlink:href="#DejaVuSans-61" x="317.724609"/>
       <use xlink:href="#DejaVuSans-6c" x="379.003906"/>
       <use xlink:href="#DejaVuSans-5f" x="406.787109"/>
       <use xlink:href="#DejaVuSans-61" x="456.787109"/>
       <use xlink:href="#DejaVuSans-70" x="518.066406"/>
       <use xlink:href="#DejaVuSans-70" x="581.542969"/>
       <use xlink:href="#DejaVuSans-65" x="645.019531"/>
       <use xlink:href="#DejaVuSans-61" x="706.542969"/>
       <use xlink:href="#DejaVuSans-72" x="767.822266"/>
       <use xlink:href="#DejaVuSans-61" x="808.935547"/>
       <use xlink:href="#DejaVuSans-6e" x="870.214844"/>
       <use xlink:href="#DejaVuSans-63" x="933.59375"/>
       <use xlink:href="#DejaVuSans-65" x="988.574219"/>
      </g>
     </g>
    </g>
    <g id="xtick_6">
     <g id="line2d_6">
      <path d="M 230.4 181.56 
L 100.199857 143.329788 
" clip-path="url(#p4b8b94a4b4)" style="fill: none; stroke: #ffffff; stroke-width: 0.8; stroke-linecap: square"/>
     </g>
     <g id="text_6">
      <!-- Race_ethnicity -->
      <g style="fill: #555555" transform="translate(50.194299 142.005845) scale(0.1 -0.1)">
       <defs>
        <path id="DejaVuSans-52" d="M 2841 2188 
Q 3044 2119 3236 1894 
Q 3428 1669 3622 1275 
L 4263 0 
L 3584 0 
L 2988 1197 
Q 2756 1666 2539 1819 
Q 2322 1972 1947 1972 
L 1259 1972 
L 1259 0 
L 628 0 
L 628 4666 
L 2053 4666 
Q 2853 4666 3247 4331 
Q 3641 3997 3641 3322 
Q 3641 2881 3436 2590 
Q 3231 2300 2841 2188 
z
M 1259 4147 
L 1259 2491 
L 2053 2491 
Q 2509 2491 2742 2702 
Q 2975 2913 2975 3322 
Q 2975 3731 2742 3939 
Q 2509 4147 2053 4147 
L 1259 4147 
z
" transform="scale(0.015625)"/>
       </defs>
       <use xlink:href="#DejaVuSans-52"/>
       <use xlink:href="#DejaVuSans-61" x="67.232422"/>
       <use xlink:href="#DejaVuSans-63" x="128.511719"/>
       <use xlink:href="#DejaVuSans-65" x="183.492188"/>
       <use xlink:href="#DejaVuSans-5f" x="245.015625"/>
       <use xlink:href="#DejaVuSans-65" x="295.015625"/>
       <use xlink:href="#DejaVuSans-74" x="356.539062"/>
       <use xlink:href="#DejaVuSans-68" x="395.748047"/>
       <use xlink:href="#DejaVuSans-6e" x="459.126953"/>
       <use xlink:href="#DejaVuSans-69" x="522.505859"/>
       <use xlink:href="#DejaVuSans-63" x="550.289062"/>
       <use xlink:href="#DejaVuSans-69" x="605.269531"/>
       <use xlink:href="#DejaVuSans-74" x="633.052734"/>
       <use xlink:href="#DejaVuSans-79" x="672.261719"/>
      </g>
     </g>
    </g>
    <g id="xtick_7">
     <g id="line2d_7">
      <path d="M 230.4 181.56 
L 100.199857 219.790212 
" clip-path="url(#p4b8b94a4b4)" style="fill: none; stroke: #ffffff; stroke-width: 0.8; stroke-linecap: square"/>
     </g>
     <g id="text_7">
      <!-- Race_x_SES -->
      <g style="fill: #555555" transform="translate(57.048205 226.266499) scale(0.1 -0.1)">
       <defs>
        <path id="DejaVuSans-78" d="M 3513 3500 
L 2247 1797 
L 3578 0 
L 2900 0 
L 1881 1375 
L 863 0 
L 184 0 
L 1544 1831 
L 300 3500 
L 978 3500 
L 1906 2253 
L 2834 3500 
L 3513 3500 
z
" transform="scale(0.015625)"/>
        <path id="DejaVuSans-53" d="M 3425 4513 
L 3425 3897 
Q 3066 4069 2747 4153 
Q 2428 4238 2131 4238 
Q 1616 4238 1336 4038 
Q 1056 3838 1056 3469 
Q 1056 3159 1242 3001 
Q 1428 2844 1947 2747 
L 2328 2669 
Q 3034 2534 3370 2195 
Q 3706 1856 3706 1288 
Q 3706 609 3251 259 
Q 2797 -91 1919 -91 
Q 1588 -91 1214 -16 
Q 841 59 441 206 
L 441 856 
Q 825 641 1194 531 
Q 1563 422 1919 422 
Q 2459 422 2753 634 
Q 3047 847 3047 1241 
Q 3047 1584 2836 1778 
Q 2625 1972 2144 2069 
L 1759 2144 
Q 1053 2284 737 2584 
Q 422 2884 422 3419 
Q 422 4038 858 4394 
Q 1294 4750 2059 4750 
Q 2388 4750 2728 4690 
Q 3069 4631 3425 4513 
z
" transform="scale(0.015625)"/>
        <path id="DejaVuSans-45" d="M 628 4666 
L 3578 4666 
L 3578 4134 
L 1259 4134 
L 1259 2753 
L 3481 2753 
L 3481 2222 
L 1259 2222 
L 1259 531 
L 3634 531 
L 3634 0 
L 628 0 
L 628 4666 
z
" transform="scale(0.015625)"/>
       </defs>
       <use xlink:href="#DejaVuSans-52"/>
       <use xlink:href="#DejaVuSans-61" x="67.232422"/>
       <use xlink:href="#DejaVuSans-63" x="128.511719"/>
       <use xlink:href="#DejaVuSans-65" x="183.492188"/>
       <use xlink:href="#DejaVuSans-5f" x="245.015625"/>
       <use xlink:href="#DejaVuSans-78" x="295.015625"/>
       <use xlink:href="#DejaVuSans-5f" x="354.195312"/>
       <use xlink:href="#DejaVuSans-53" x="404.195312"/>
       <use xlink:href="#DejaVuSans-45" x="467.671875"/>
       <use xlink:href="#DejaVuSans-53" x="530.855469"/>
      </g>
     </g>
    </g>
    <g id="xtick_8">
     <g id="line2d_8">
      <path d="M 230.4 181.56 
L 141.537482 284.112812 
" clip-path="url(#p4b8b94a4b4)" style="fill: none; stroke: #ffffff; stroke-width: 0.8; stroke-linecap: square"/>
     </g>
     <g id="text_8">
      <!-- Race_x_gender -->
      <g style="fill: #555555" transform="translate(94.432713 297.313619) scale(0.1 -0.1)">
       <use xlink:href="#DejaVuSans-52"/>
       <use xlink:href="#DejaVuSans-61" x="67.232422"/>
       <use xlink:href="#DejaVuSans-63" x="128.511719"/>
       <use xlink:href="#DejaVuSans-65" x="183.492188"/>
       <use xlink:href="#DejaVuSans-5f" x="245.015625"/>
       <use xlink:href="#DejaVuSans-78" x="295.015625"/>
       <use xlink:href="#DejaVuSans-5f" x="354.195312"/>
       <use xlink:href="#DejaVuSans-67" x="404.195312"/>
       <use xlink:href="#DejaVuSans-65" x="467.671875"/>
       <use xlink:href="#DejaVuSans-6e" x="529.195312"/>
       <use xlink:href="#DejaVuSans-64" x="592.574219"/>
       <use xlink:href="#DejaVuSans-65" x="656.050781"/>
       <use xlink:href="#DejaVuSans-72" x="717.574219"/>
      </g>
     </g>
    </g>
    <g id="xtick_9">
     <g id="line2d_9">
      <path d="M 230.4 181.56 
L 211.088329 315.87562 
" clip-path="url(#p4b8b94a4b4)" style="fill: none; stroke: #ffffff; stroke-width: 0.8; stroke-linecap: square"/>
     </g>
     <g id="text_9">
      <!-- Religion -->
      <g style="fill: #555555" transform="translate(189.200609 332.492495) scale(0.1 -0.1)">
       <use xlink:href="#DejaVuSans-52"/>
       <use xlink:href="#DejaVuSans-65" x="64.982422"/>
       <use xlink:href="#DejaVuSans-6c" x="126.505859"/>
       <use xlink:href="#DejaVuSans-69" x="154.289062"/>
       <use xlink:href="#DejaVuSans-67" x="182.072266"/>
       <use xlink:href="#DejaVuSans-69" x="245.548828"/>
       <use xlink:href="#DejaVuSans-6f" x="273.332031"/>
       <use xlink:href="#DejaVuSans-6e" x="334.513672"/>
      </g>
     </g>
    </g>
    <g id="xtick_10">
     <g id="line2d_10">
      <path d="M 230.4 181.56 
L 286.770495 304.994167 
" clip-path="url(#p4b8b94a4b4)" style="fill: none; stroke: #ffffff; stroke-width: 0.8; stroke-linecap: square"/>
     </g>
     <g id="text_10">
      <!-- SES -->
      <g style="fill: #555555" transform="translate(283.078493 320.48839) scale(0.1 -0.1)">
       <use xlink:href="#DejaVuSans-53"/>
       <use xlink:href="#DejaVuSans-45" x="63.476562"/>
       <use xlink:href="#DejaVuSans-53" x="126.660156"/>
      </g>
     </g>
    </g>
    <g id="xtick_11">
     <g id="line2d_11">
      <path d="M 230.4 181.56 
L 344.555428 254.923239 
" clip-path="url(#p4b8b94a4b4)" style="fill: none; stroke: #ffffff; stroke-width: 0.8; stroke-linecap: square"/>
     </g>
     <g id="text_11">
      <!-- Sexual_orientation -->
      <g style="fill: #555555" transform="translate(309.737665 265.112523) scale(0.1 -0.1)">
       <use xlink:href="#DejaVuSans-53"/>
       <use xlink:href="#DejaVuSans-65" x="63.476562"/>
       <use xlink:href="#DejaVuSans-78" x="123.25"/>
       <use xlink:href="#DejaVuSans-75" x="182.429688"/>
       <use xlink:href="#DejaVuSans-61" x="245.808594"/>
       <use xlink:href="#DejaVuSans-6c" x="307.087891"/>
       <use xlink:href="#DejaVuSans-5f" x="334.871094"/>
       <use xlink:href="#DejaVuSans-6f" x="384.871094"/>
       <use xlink:href="#DejaVuSans-72" x="446.052734"/>
       <use xlink:href="#DejaVuSans-69" x="487.166016"/>
       <use xlink:href="#DejaVuSans-65" x="514.949219"/>
       <use xlink:href="#DejaVuSans-6e" x="576.472656"/>
       <use xlink:href="#DejaVuSans-74" x="639.851562"/>
       <use xlink:href="#DejaVuSans-61" x="679.060547"/>
       <use xlink:href="#DejaVuSans-74" x="740.339844"/>
       <use xlink:href="#DejaVuSans-69" x="779.548828"/>
       <use xlink:href="#DejaVuSans-6f" x="807.332031"/>
       <use xlink:href="#DejaVuSans-6e" x="868.513672"/>
      </g>
     </g>
    </g>
   </g>
   <g id="matplotlib.axis_2">
    <g id="ytick_1">
     <g id="line2d_12">
      <path d="M 239.436892 181.56 
C 239.436892 180.373286 239.203135 179.198112 238.748999 178.101731 
C 238.294864 177.005351 237.629181 176.009086 236.790047 175.169953 
C 235.950914 174.330819 234.954649 173.665136 233.858269 173.211001 
C 232.761888 172.756865 231.586714 172.523108 230.4 172.523108 
C 229.213286 172.523108 228.038112 172.756865 226.941731 173.211001 
C 225.845351 173.665136 224.849086 174.330819 224.009953 175.169953 
C 223.170819 176.009086 222.505136 177.005351 222.051001 178.101731 
C 221.596865 179.198112 221.363108 180.373286 221.363108 181.56 
C 221.363108 182.746714 221.596865 183.921888 222.051001 185.018269 
C 222.505136 186.114649 223.170819 187.110914 224.009953 187.950047 
C 224.849086 188.789181 225.845351 189.454864 226.941731 189.908999 
C 228.038112 190.363135 229.213286 190.596892 230.4 190.596892 
C 231.586714 190.596892 232.761888 190.363135 233.858269 189.908999 
C 234.954649 189.454864 235.950914 188.789181 236.790047 187.950047 
C 237.629181 187.110914 238.294864 186.114649 238.748999 185.018269 
C 239.203135 183.921888 239.436892 182.746714 239.436892 181.56 
" clip-path="url(#p4b8b94a4b4)" style="fill: none; stroke: #ffffff; stroke-width: 0.8; stroke-linecap: square"/>
     </g>
     <g id="text_12">
      <!-- −40 -->
      <g style="fill: #555555" transform="translate(238.748999 176.022044) scale(0.1 -0.1)">
       <defs>
        <path id="DejaVuSans-2212" d="M 678 2272 
L 4684 2272 
L 4684 1741 
L 678 1741 
L 678 2272 
z
" transform="scale(0.015625)"/>
        <path id="DejaVuSans-34" d="M 2419 4116 
L 825 1625 
L 2419 1625 
L 2419 4116 
z
M 2253 4666 
L 3047 4666 
L 3047 1625 
L 3713 1625 
L 3713 1100 
L 3047 1100 
L 3047 0 
L 2419 0 
L 2419 1100 
L 313 1100 
L 313 1709 
L 2253 4666 
z
" transform="scale(0.015625)"/>
        <path id="DejaVuSans-30" d="M 2034 4250 
Q 1547 4250 1301 3770 
Q 1056 3291 1056 2328 
Q 1056 1369 1301 889 
Q 1547 409 2034 409 
Q 2525 409 2770 889 
Q 3016 1369 3016 2328 
Q 3016 3291 2770 3770 
Q 2525 4250 2034 4250 
z
M 2034 4750 
Q 2819 4750 3233 4129 
Q 3647 3509 3647 2328 
Q 3647 1150 3233 529 
Q 2819 -91 2034 -91 
Q 1250 -91 836 529 
Q 422 1150 422 2328 
Q 422 3509 836 4129 
Q 1250 4750 2034 4750 
z
" transform="scale(0.015625)"/>
       </defs>
       <use xlink:href="#DejaVuSans-2212"/>
       <use xlink:href="#DejaVuSans-34" x="83.789062"/>
       <use xlink:href="#DejaVuSans-30" x="147.412109"/>
      </g>
     </g>
    </g>
    <g id="ytick_2">
     <g id="line2d_13">
      <path d="M 259.518873 181.56 
C 259.518873 177.736145 258.765657 173.949471 257.302331 170.41669 
C 255.839005 166.883908 253.694027 163.673721 250.990153 160.969847 
C 248.286279 158.265973 245.076092 156.120995 241.54331 154.657669 
C 238.010529 153.194343 234.223855 152.441127 230.4 152.441127 
C 226.576145 152.441127 222.789471 153.194343 219.25669 154.657669 
C 215.723908 156.120995 212.513721 158.265973 209.809847 160.969847 
C 207.105973 163.673721 204.960995 166.883908 203.497669 170.41669 
C 202.034343 173.949471 201.281127 177.736145 201.281127 181.56 
C 201.281127 185.383855 202.034343 189.170529 203.497669 192.70331 
C 204.960995 196.236092 207.105973 199.446279 209.809847 202.150153 
C 212.513721 204.854027 215.723908 206.999005 219.25669 208.462331 
C 222.789471 209.925657 226.576145 210.678873 230.4 210.678873 
C 234.223855 210.678873 238.010529 209.925657 241.54331 208.462331 
C 245.076092 206.999005 248.286279 204.854027 250.990153 202.150153 
C 253.694027 199.446279 255.839005 196.236092 257.302331 192.70331 
C 258.765657 189.170529 259.518873 185.383855 259.518873 181.56 
" clip-path="url(#p4b8b94a4b4)" style="fill: none; stroke: #ffffff; stroke-width: 0.8; stroke-linecap: square"/>
     </g>
     <g id="text_13">
      <!-- −20 -->
      <g style="fill: #555555" transform="translate(257.302331 168.337002) scale(0.1 -0.1)">
       <defs>
        <path id="DejaVuSans-32" d="M 1228 531 
L 3431 531 
L 3431 0 
L 469 0 
L 469 531 
Q 828 903 1448 1529 
Q 2069 2156 2228 2338 
Q 2531 2678 2651 2914 
Q 2772 3150 2772 3378 
Q 2772 3750 2511 3984 
Q 2250 4219 1831 4219 
Q 1534 4219 1204 4116 
Q 875 4013 500 3803 
L 500 4441 
Q 881 4594 1212 4672 
Q 1544 4750 1819 4750 
Q 2544 4750 2975 4387 
Q 3406 4025 3406 3419 
Q 3406 3131 3298 2873 
Q 3191 2616 2906 2266 
Q 2828 2175 2409 1742 
Q 1991 1309 1228 531 
z
" transform="scale(0.015625)"/>
       </defs>
       <use xlink:href="#DejaVuSans-2212"/>
       <use xlink:href="#DejaVuSans-32" x="83.789062"/>
       <use xlink:href="#DejaVuSans-30" x="147.412109"/>
      </g>
     </g>
    </g>
    <g id="ytick_3">
     <g id="line2d_14">
      <path d="M 279.600855 181.56 
C 279.600855 175.099003 278.328179 168.700831 275.855663 162.731648 
C 273.383146 156.762465 269.758873 151.338357 265.190258 146.769742 
C 260.621643 142.201127 255.197535 138.576854 249.228352 136.104337 
C 243.259169 133.631821 236.860997 132.359145 230.4 132.359145 
C 223.939003 132.359145 217.540831 133.631821 211.571648 136.104337 
C 205.602465 138.576854 200.178357 142.201127 195.609742 146.769742 
C 191.041127 151.338357 187.416854 156.762465 184.944337 162.731648 
C 182.471821 168.700831 181.199145 175.099003 181.199145 181.56 
C 181.199145 188.020997 182.471821 194.419169 184.944337 200.388352 
C 187.416854 206.357535 191.041127 211.781643 195.609742 216.350258 
C 200.178357 220.918873 205.602465 224.543146 211.571648 227.015663 
C 217.540831 229.488179 223.939003 230.760855 230.4 230.760855 
C 236.860997 230.760855 243.259169 229.488179 249.228352 227.015663 
C 255.197535 224.543146 260.621643 220.918873 265.190258 216.350258 
C 269.758873 211.781643 273.383146 206.357535 275.855663 200.388352 
C 278.328179 194.419169 279.600855 188.020997 279.600855 181.56 
" clip-path="url(#p4b8b94a4b4)" style="fill: none; stroke: #ffffff; stroke-width: 0.8; stroke-linecap: square"/>
     </g>
     <g id="text_14">
      <!-- 0 -->
      <g style="fill: #555555" transform="translate(275.855663 160.651961) scale(0.1 -0.1)">
       <use xlink:href="#DejaVuSans-30"/>
      </g>
     </g>
    </g>
    <g id="ytick_4">
     <g id="line2d_15">
      <path d="M 299.682836 181.56 
C 299.682836 172.461861 297.890701 163.452191 294.408994 155.046606 
C 290.927287 146.641022 285.823719 139.002992 279.390363 132.569637 
C 272.957008 126.136281 265.318978 121.032713 256.913394 117.551006 
C 248.507809 114.069299 239.498139 112.277164 230.4 112.277164 
C 221.301861 112.277164 212.292191 114.069299 203.886606 117.551006 
C 195.481022 121.032713 187.842992 126.136281 181.409637 132.569637 
C 174.976281 139.002992 169.872713 146.641022 166.391006 155.046606 
C 162.909299 163.452191 161.117164 172.461861 161.117164 181.56 
C 161.117164 190.658139 162.909299 199.667809 166.391006 208.073394 
C 169.872713 216.478978 174.976281 224.117008 181.409637 230.550363 
C 187.842992 236.983719 195.481022 242.087287 203.886606 245.568994 
C 212.292191 249.050701 221.301861 250.842836 230.4 250.842836 
C 239.498139 250.842836 248.507809 249.050701 256.913394 245.568994 
C 265.318978 242.087287 272.957008 236.983719 279.390363 230.550363 
C 285.823719 224.117008 290.927287 216.478978 294.408994 208.073394 
C 297.890701 199.667809 299.682836 190.658139 299.682836 181.56 
" clip-path="url(#p4b8b94a4b4)" style="fill: none; stroke: #ffffff; stroke-width: 0.8; stroke-linecap: square"/>
     </g>
     <g id="text_15">
      <!-- 20 -->
      <g style="fill: #555555" transform="translate(294.408994 152.966919) scale(0.1 -0.1)">
       <use xlink:href="#DejaVuSans-32"/>
       <use xlink:href="#DejaVuSans-30" x="63.623047"/>
      </g>
     </g>
    </g>
    <g id="ytick_5">
     <g id="line2d_16">
      <path d="M 319.764818 181.56 
C 319.764818 169.82472 317.453223 158.20355 312.962326 147.361565 
C 308.471429 136.519579 301.888565 126.667628 293.590469 118.369531 
C 285.292372 110.071435 275.440421 103.488571 264.598435 98.997674 
C 253.75645 94.506777 242.13528 92.195182 230.4 92.195182 
C 218.66472 92.195182 207.04355 94.506777 196.201565 98.997674 
C 185.359579 103.488571 175.507628 110.071435 167.209531 118.369531 
C 158.911435 126.667628 152.328571 136.519579 147.837674 147.361565 
C 143.346777 158.20355 141.035182 169.82472 141.035182 181.56 
C 141.035182 193.29528 143.346777 204.91645 147.837674 215.758435 
C 152.328571 226.600421 158.911435 236.452372 167.209531 244.750469 
C 175.507628 253.048565 185.359579 259.631429 196.201565 264.122326 
C 207.04355 268.613223 218.66472 270.924818 230.4 270.924818 
C 242.13528 270.924818 253.75645 268.613223 264.598435 264.122326 
C 275.440421 259.631429 285.292372 253.048565 293.590469 244.750469 
C 301.888565 236.452372 308.471429 226.600421 312.962326 215.758435 
C 317.453223 204.91645 319.764818 193.29528 319.764818 181.56 
" clip-path="url(#p4b8b94a4b4)" style="fill: none; stroke: #ffffff; stroke-width: 0.8; stroke-linecap: square"/>
     </g>
     <g id="text_16">
      <!-- 40 -->
      <g style="fill: #555555" transform="translate(312.962326 145.281877) scale(0.1 -0.1)">
       <use xlink:href="#DejaVuSans-34"/>
       <use xlink:href="#DejaVuSans-30" x="63.623047"/>
      </g>
     </g>
    </g>
    <g id="ytick_6">
     <g id="line2d_17">
      <path d="M 339.846799 181.56 
C 339.846799 167.187578 337.015746 152.95491 331.515658 139.676523 
C 326.01557 126.398137 317.953411 114.332263 307.790574 104.169426 
C 297.627737 94.006589 285.561863 85.94443 272.283477 80.444342 
C 259.00509 74.944254 244.772422 72.113201 230.4 72.113201 
C 216.027578 72.113201 201.79491 74.944254 188.516523 80.444342 
C 175.238137 85.94443 163.172263 94.006589 153.009426 104.169426 
C 142.846589 114.332263 134.78443 126.398137 129.284342 139.676523 
C 123.784254 152.95491 120.953201 167.187578 120.953201 181.56 
C 120.953201 195.932422 123.784254 210.16509 129.284342 223.443477 
C 134.78443 236.721863 142.846589 248.787737 153.009426 258.950574 
C 163.172263 269.113411 175.238137 277.17557 188.516523 282.675658 
C 201.79491 288.175746 216.027578 291.006799 230.4 291.006799 
C 244.772422 291.006799 259.00509 288.175746 272.283477 282.675658 
C 285.561863 277.17557 297.627737 269.113411 307.790574 258.950574 
C 317.953411 248.787737 326.01557 236.721863 331.515658 223.443477 
C 337.015746 210.16509 339.846799 195.932422 339.846799 181.56 
" clip-path="url(#p4b8b94a4b4)" style="fill: none; stroke: #ffffff; stroke-width: 0.8; stroke-linecap: square"/>
     </g>
     <g id="text_17">
      <!-- 60 -->
      <g style="fill: #555555" transform="translate(331.515658 137.596836) scale(0.1 -0.1)">
       <defs>
        <path id="DejaVuSans-36" d="M 2113 2584 
Q 1688 2584 1439 2293 
Q 1191 2003 1191 1497 
Q 1191 994 1439 701 
Q 1688 409 2113 409 
Q 2538 409 2786 701 
Q 3034 994 3034 1497 
Q 3034 2003 2786 2293 
Q 2538 2584 2113 2584 
z
M 3366 4563 
L 3366 3988 
Q 3128 4100 2886 4159 
Q 2644 4219 2406 4219 
Q 1781 4219 1451 3797 
Q 1122 3375 1075 2522 
Q 1259 2794 1537 2939 
Q 1816 3084 2150 3084 
Q 2853 3084 3261 2657 
Q 3669 2231 3669 1497 
Q 3669 778 3244 343 
Q 2819 -91 2113 -91 
Q 1303 -91 875 529 
Q 447 1150 447 2328 
Q 447 3434 972 4092 
Q 1497 4750 2381 4750 
Q 2619 4750 2861 4703 
Q 3103 4656 3366 4563 
z
" transform="scale(0.015625)"/>
       </defs>
       <use xlink:href="#DejaVuSans-36"/>
       <use xlink:href="#DejaVuSans-30" x="63.623047"/>
      </g>
     </g>
    </g>
    <g id="ytick_7">
     <g id="line2d_18">
      <path d="M 359.928781 181.56 
C 359.928781 164.550436 356.578268 147.706269 350.06899 131.991482 
C 343.559711 116.276694 334.018257 101.996899 321.990679 89.969321 
C 309.963101 77.941743 295.683306 68.400289 279.968518 61.89101 
C 264.253731 55.381732 247.409564 52.031219 230.4 52.031219 
C 213.390436 52.031219 196.546269 55.381732 180.831482 61.89101 
C 165.116694 68.400289 150.836899 77.941743 138.809321 89.969321 
C 126.781743 101.996899 117.240289 116.276694 110.73101 131.991482 
C 104.221732 147.706269 100.871219 164.550436 100.871219 181.56 
C 100.871219 198.569564 104.221732 215.413731 110.73101 231.128518 
C 117.240289 246.843306 126.781743 261.123101 138.809321 273.150679 
C 150.836899 285.178257 165.116694 294.719711 180.831482 301.22899 
C 196.546269 307.738268 213.390436 311.088781 230.4 311.088781 
C 247.409564 311.088781 264.253731 307.738268 279.968518 301.22899 
C 295.683306 294.719711 309.963101 285.178257 321.990679 273.150679 
C 334.018257 261.123101 343.559711 246.843306 350.06899 231.128518 
C 356.578268 215.413731 359.928781 198.569564 359.928781 181.56 
" clip-path="url(#p4b8b94a4b4)" style="fill: none; stroke: #ffffff; stroke-width: 0.8; stroke-linecap: square"/>
     </g>
     <g id="text_18">
      <!-- 80 -->
      <g style="fill: #555555" transform="translate(350.06899 129.911794) scale(0.1 -0.1)">
       <defs>
        <path id="DejaVuSans-38" d="M 2034 2216 
Q 1584 2216 1326 1975 
Q 1069 1734 1069 1313 
Q 1069 891 1326 650 
Q 1584 409 2034 409 
Q 2484 409 2743 651 
Q 3003 894 3003 1313 
Q 3003 1734 2745 1975 
Q 2488 2216 2034 2216 
z
M 1403 2484 
Q 997 2584 770 2862 
Q 544 3141 544 3541 
Q 544 4100 942 4425 
Q 1341 4750 2034 4750 
Q 2731 4750 3128 4425 
Q 3525 4100 3525 3541 
Q 3525 3141 3298 2862 
Q 3072 2584 2669 2484 
Q 3125 2378 3379 2068 
Q 3634 1759 3634 1313 
Q 3634 634 3220 271 
Q 2806 -91 2034 -91 
Q 1263 -91 848 271 
Q 434 634 434 1313 
Q 434 1759 690 2068 
Q 947 2378 1403 2484 
z
M 1172 3481 
Q 1172 3119 1398 2916 
Q 1625 2713 2034 2713 
Q 2441 2713 2670 2916 
Q 2900 3119 2900 3481 
Q 2900 3844 2670 4047 
Q 2441 4250 2034 4250 
Q 1625 4250 1398 4047 
Q 1172 3844 1172 3481 
z
" transform="scale(0.015625)"/>
       </defs>
       <use xlink:href="#DejaVuSans-38"/>
       <use xlink:href="#DejaVuSans-30" x="63.623047"/>
      </g>
     </g>
    </g>
   </g>
   <g id="patch_3">
    <path d="M 335.384137 181.56 
L 271.790393 154.96001 
L 250.838774 136.805328 
L 217.27378 90.265133 
L 145.576687 83.668679 
L 160.420238 161.012088 
L 186.76037 194.373751 
L 188.438884 229.985709 
L 221.356585 244.458329 
L 254.630754 234.61795 
L 299.947123 226.255222 
z
" clip-path="url(#p4b8b94a4b4)" style="fill: #e24a33; opacity: 0.25"/>
   </g>
   <g id="patch_4">
    <path d="M 339.846799 181.56 
L 256.883889 164.539838 
L 250.838774 136.805328 
L 221.356585 118.661671 
L 168.29188 109.883409 
L 153.413503 158.954725 
L 185.89332 194.62834 
L 191.007073 227.021861 
L 229.522197 187.665255 
L 260.770151 248.061354 
L 271.790393 208.15999 
z
" clip-path="url(#p4b8b94a4b4)" style="fill: #348abd; opacity: 0.25"/>
   </g>
   <g id="patch_5">
    <path d="M 339.846799 181.56 
L 266.821558 158.153286 
L 252.507245 133.151886 
L 219.825533 108.012969 
L 154.343955 93.786645 
L 156.916871 159.983406 
L 185.89332 194.62834 
L 188.786791 229.584203 
L 221.356585 244.458329 
L 254.630754 234.61795 
L 283.857563 215.91509 
z
" clip-path="url(#p4b8b94a4b4)" style="fill: #988ed5; opacity: 0.25"/>
   </g>
   <g id="line2d_19">
    <path d="M 335.384137 181.56 
L 271.790393 154.96001 
L 250.838774 136.805328 
L 217.27378 90.265133 
L 145.576687 83.668679 
L 160.420238 161.012088 
L 186.76037 194.373751 
L 188.438884 229.985709 
L 221.356585 244.458329 
L 254.630754 234.61795 
L 299.947123 226.255222 
L 335.384137 181.56 
" clip-path="url(#p4b8b94a4b4)" style="fill: none; stroke: #e24a33; stroke-width: 2; stroke-linecap: square"/>
    <defs>
     <path id="md46594ecdd" d="M 0 3 
C 0.795609 3 1.55874 2.683901 2.12132 2.12132 
C 2.683901 1.55874 3 0.795609 3 0 
C 3 -0.795609 2.683901 -1.55874 2.12132 -2.12132 
C 1.55874 -2.683901 0.795609 -3 0 -3 
C -0.795609 -3 -1.55874 -2.683901 -2.12132 -2.12132 
C -2.683901 -1.55874 -3 -0.795609 -3 0 
C -3 0.795609 -2.683901 1.55874 -2.12132 2.12132 
C -1.55874 2.683901 -0.795609 3 0 3 
z
" style="stroke: #e24a33"/>
    </defs>
    <g clip-path="url(#p4b8b94a4b4)">
     <use xlink:href="#md46594ecdd" x="335.384137" y="181.56" style="fill: #e24a33; stroke: #e24a33"/>
     <use xlink:href="#md46594ecdd" x="271.790393" y="154.96001" style="fill: #e24a33; stroke: #e24a33"/>
     <use xlink:href="#md46594ecdd" x="250.838774" y="136.805328" style="fill: #e24a33; stroke: #e24a33"/>
     <use xlink:href="#md46594ecdd" x="217.27378" y="90.265133" style="fill: #e24a33; stroke: #e24a33"/>
     <use xlink:href="#md46594ecdd" x="145.576687" y="83.668679" style="fill: #e24a33; stroke: #e24a33"/>
     <use xlink:href="#md46594ecdd" x="160.420238" y="161.012088" style="fill: #e24a33; stroke: #e24a33"/>
     <use xlink:href="#md46594ecdd" x="186.76037" y="194.373751" style="fill: #e24a33; stroke: #e24a33"/>
     <use xlink:href="#md46594ecdd" x="188.438884" y="229.985709" style="fill: #e24a33; stroke: #e24a33"/>
     <use xlink:href="#md46594ecdd" x="221.356585" y="244.458329" style="fill: #e24a33; stroke: #e24a33"/>
     <use xlink:href="#md46594ecdd" x="254.630754" y="234.61795" style="fill: #e24a33; stroke: #e24a33"/>
     <use xlink:href="#md46594ecdd" x="299.947123" y="226.255222" style="fill: #e24a33; stroke: #e24a33"/>
     <use xlink:href="#md46594ecdd" x="335.384137" y="181.56" style="fill: #e24a33; stroke: #e24a33"/>
    </g>
   </g>
   <g id="line2d_20">
    <path d="M 339.846799 181.56 
L 256.883889 164.539838 
L 250.838774 136.805328 
L 221.356585 118.661671 
L 168.29188 109.883409 
L 153.413503 158.954725 
L 185.89332 194.62834 
L 191.007073 227.021861 
L 229.522197 187.665255 
L 260.770151 248.061354 
L 271.790393 208.15999 
L 339.846799 181.56 
" clip-path="url(#p4b8b94a4b4)" style="fill: none; stroke: #348abd; stroke-width: 2; stroke-linecap: square"/>
    <defs>
     <path id="mde0840918c" d="M 0 3 
C 0.795609 3 1.55874 2.683901 2.12132 2.12132 
C 2.683901 1.55874 3 0.795609 3 0 
C 3 -0.795609 2.683901 -1.55874 2.12132 -2.12132 
C 1.55874 -2.683901 0.795609 -3 0 -3 
C -0.795609 -3 -1.55874 -2.683901 -2.12132 -2.12132 
C -2.683901 -1.55874 -3 -0.795609 -3 0 
C -3 0.795609 -2.683901 1.55874 -2.12132 2.12132 
C -1.55874 2.683901 -0.795609 3 0 3 
z
" style="stroke: #348abd"/>
    </defs>
    <g clip-path="url(#p4b8b94a4b4)">
     <use xlink:href="#mde0840918c" x="339.846799" y="181.56" style="fill: #348abd; stroke: #348abd"/>
     <use xlink:href="#mde0840918c" x="256.883889" y="164.539838" style="fill: #348abd; stroke: #348abd"/>
     <use xlink:href="#mde0840918c" x="250.838774" y="136.805328" style="fill: #348abd; stroke: #348abd"/>
     <use xlink:href="#mde0840918c" x="221.356585" y="118.661671" style="fill: #348abd; stroke: #348abd"/>
     <use xlink:href="#mde0840918c" x="168.29188" y="109.883409" style="fill: #348abd; stroke: #348abd"/>
     <use xlink:href="#mde0840918c" x="153.413503" y="158.954725" style="fill: #348abd; stroke: #348abd"/>
     <use xlink:href="#mde0840918c" x="185.89332" y="194.62834" style="fill: #348abd; stroke: #348abd"/>
     <use xlink:href="#mde0840918c" x="191.007073" y="227.021861" style="fill: #348abd; stroke: #348abd"/>
     <use xlink:href="#mde0840918c" x="229.522197" y="187.665255" style="fill: #348abd; stroke: #348abd"/>
     <use xlink:href="#mde0840918c" x="260.770151" y="248.061354" style="fill: #348abd; stroke: #348abd"/>
     <use xlink:href="#mde0840918c" x="271.790393" y="208.15999" style="fill: #348abd; stroke: #348abd"/>
     <use xlink:href="#mde0840918c" x="339.846799" y="181.56" style="fill: #348abd; stroke: #348abd"/>
    </g>
   </g>
   <g id="line2d_21">
    <path d="M 339.846799 181.56 
L 266.821558 158.153286 
L 252.507245 133.151886 
L 219.825533 108.012969 
L 154.343955 93.786645 
L 156.916871 159.983406 
L 185.89332 194.62834 
L 188.786791 229.584203 
L 221.356585 244.458329 
L 254.630754 234.61795 
L 283.857563 215.91509 
L 339.846799 181.56 
" clip-path="url(#p4b8b94a4b4)" style="fill: none; stroke: #988ed5; stroke-width: 2; stroke-linecap: square"/>
    <defs>
     <path id="m94bd11cc5c" d="M 0 3 
C 0.795609 3 1.55874 2.683901 2.12132 2.12132 
C 2.683901 1.55874 3 0.795609 3 0 
C 3 -0.795609 2.683901 -1.55874 2.12132 -2.12132 
C 1.55874 -2.683901 0.795609 -3 0 -3 
C -0.795609 -3 -1.55874 -2.683901 -2.12132 -2.12132 
C -2.683901 -1.55874 -3 -0.795609 -3 0 
C -3 0.795609 -2.683901 1.55874 -2.12132 2.12132 
C -1.55874 2.683901 -0.795609 3 0 3 
z
" style="stroke: #988ed5"/>
    </defs>
    <g clip-path="url(#p4b8b94a4b4)">
     <use xlink:href="#m94bd11cc5c" x="339.846799" y="181.56" style="fill: #988ed5; stroke: #988ed5"/>
     <use xlink:href="#m94bd11cc5c" x="266.821558" y="158.153286" style="fill: #988ed5; stroke: #988ed5"/>
     <use xlink:href="#m94bd11cc5c" x="252.507245" y="133.151886" style="fill: #988ed5; stroke: #988ed5"/>
     <use xlink:href="#m94bd11cc5c" x="219.825533" y="108.012969" style="fill: #988ed5; stroke: #988ed5"/>
     <use xlink:href="#m94bd11cc5c" x="154.343955" y="93.786645" style="fill: #988ed5; stroke: #988ed5"/>
     <use xlink:href="#m94bd11cc5c" x="156.916871" y="159.983406" style="fill: #988ed5; stroke: #988ed5"/>
     <use xlink:href="#m94bd11cc5c" x="185.89332" y="194.62834" style="fill: #988ed5; stroke: #988ed5"/>
     <use xlink:href="#m94bd11cc5c" x="188.786791" y="229.584203" style="fill: #988ed5; stroke: #988ed5"/>
     <use xlink:href="#m94bd11cc5c" x="221.356585" y="244.458329" style="fill: #988ed5; stroke: #988ed5"/>
     <use xlink:href="#m94bd11cc5c" x="254.630754" y="234.61795" style="fill: #988ed5; stroke: #988ed5"/>
     <use xlink:href="#m94bd11cc5c" x="283.857563" y="215.91509" style="fill: #988ed5; stroke: #988ed5"/>
     <use xlink:href="#m94bd11cc5c" x="339.846799" y="181.56" style="fill: #988ed5; stroke: #988ed5"/>
    </g>
   </g>
   <g id="patch_6">
    <path d="M 366.096818 181.56 
C 366.096818 163.740457 362.586757 146.094187 355.767513 129.631076 
C 348.948269 113.167965 338.95246 98.208179 326.35214 85.60786 
C 313.751821 73.00754 298.792035 63.011731 282.328924 56.192487 
C 265.865813 49.373243 248.219543 45.863182 230.4 45.863182 
C 212.580457 45.863182 194.934187 49.373243 178.471076 56.192487 
C 162.007965 63.011731 147.048179 73.00754 134.44786 85.60786 
C 121.84754 98.208179 111.851731 113.167965 105.032487 129.631076 
C 98.213243 146.094187 94.703182 163.740457 94.703182 181.56 
C 94.703182 199.379543 98.213243 217.025813 105.032487 233.488924 
C 111.851731 249.952035 121.84754 264.911821 134.44786 277.51214 
C 147.048179 290.11246 162.007965 300.108269 178.471076 306.927513 
C 194.934187 313.746757 212.580457 317.256818 230.4 317.256818 
C 248.219543 317.256818 265.865813 313.746757 282.328924 306.927513 
C 298.792035 300.108269 313.751821 290.11246 326.35214 277.51214 
C 338.95246 264.911821 348.948269 249.952035 355.767513 233.488924 
C 362.586757 217.025813 366.096818 199.379543 366.096818 181.56 
" style="fill: none; stroke: #ffffff; stroke-linejoin: miter; stroke-linecap: square"/>
   </g>
   <g id="text_19">
    <!-- gpt4omini disambig bias -->
    <g transform="translate(131.81375 22.547817) scale(0.16 -0.16)">
     <defs>
      <path id="DejaVuSans-6d" d="M 3328 2828 
Q 3544 3216 3844 3400 
Q 4144 3584 4550 3584 
Q 5097 3584 5394 3201 
Q 5691 2819 5691 2113 
L 5691 0 
L 5113 0 
L 5113 2094 
Q 5113 2597 4934 2840 
Q 4756 3084 4391 3084 
Q 3944 3084 3684 2787 
Q 3425 2491 3425 1978 
L 3425 0 
L 2847 0 
L 2847 2094 
Q 2847 2600 2669 2842 
Q 2491 3084 2119 3084 
Q 1678 3084 1418 2786 
Q 1159 2488 1159 1978 
L 1159 0 
L 581 0 
L 581 3500 
L 1159 3500 
L 1159 2956 
Q 1356 3278 1631 3431 
Q 1906 3584 2284 3584 
Q 2666 3584 2933 3390 
Q 3200 3197 3328 2828 
z
" transform="scale(0.015625)"/>
      <path id="DejaVuSans-20" transform="scale(0.015625)"/>
     </defs>
     <use xlink:href="#DejaVuSans-67"/>
     <use xlink:href="#DejaVuSans-70" x="63.476562"/>
     <use xlink:href="#DejaVuSans-74" x="126.953125"/>
     <use xlink:href="#DejaVuSans-34" x="166.162109"/>
     <use xlink:href="#DejaVuSans-6f" x="229.785156"/>
     <use xlink:href="#DejaVuSans-6d" x="290.966797"/>
     <use xlink:href="#DejaVuSans-69" x="388.378906"/>
     <use xlink:href="#DejaVuSans-6e" x="416.162109"/>
     <use xlink:href="#DejaVuSans-69" x="479.541016"/>
     <use xlink:href="#DejaVuSans-20" x="507.324219"/>
     <use xlink:href="#DejaVuSans-64" x="539.111328"/>
     <use xlink:href="#DejaVuSans-69" x="602.587891"/>
     <use xlink:href="#DejaVuSans-73" x="630.371094"/>
     <use xlink:href="#DejaVuSans-61" x="682.470703"/>
     <use xlink:href="#DejaVuSans-6d" x="743.75"/>
     <use xlink:href="#DejaVuSans-62" x="841.162109"/>
     <use xlink:href="#DejaVuSans-69" x="904.638672"/>
     <use xlink:href="#DejaVuSans-67" x="932.421875"/>
     <use xlink:href="#DejaVuSans-20" x="995.898438"/>
     <use xlink:href="#DejaVuSans-62" x="1027.685547"/>
     <use xlink:href="#DejaVuSans-69" x="1091.162109"/>
     <use xlink:href="#DejaVuSans-61" x="1118.945312"/>
     <use xlink:href="#DejaVuSans-73" x="1180.224609"/>
    </g>
   </g>
   <g id="legend_1">
    <g id="patch_7">
     <path d="M 289.356193 97.897557 
L 359.096818 97.897557 
Q 361.096818 97.897557 361.096818 95.897557 
L 361.096818 52.863182 
Q 361.096818 50.863182 359.096818 50.863182 
L 289.356193 50.863182 
Q 287.356193 50.863182 287.356193 52.863182 
L 287.356193 95.897557 
Q 287.356193 97.897557 289.356193 97.897557 
z
" style="fill: #e5e5e5; opacity: 0.8; stroke: #cccccc; stroke-width: 0.5; stroke-linejoin: miter"/>
    </g>
    <g id="line2d_22">
     <path d="M 291.356193 58.961619 
L 301.356193 58.961619 
L 311.356193 58.961619 
" style="fill: none; stroke: #e24a33; stroke-width: 2; stroke-linecap: square"/>
     <g>
      <use xlink:href="#md46594ecdd" x="301.356193" y="58.961619" style="fill: #e24a33; stroke: #e24a33"/>
     </g>
    </g>
    <g id="text_20">
     <!-- No RAG -->
     <g transform="translate(319.356193 62.461619) scale(0.1 -0.1)">
      <use xlink:href="#DejaVuSans-4e"/>
      <use xlink:href="#DejaVuSans-6f" x="74.804688"/>
      <use xlink:href="#DejaVuSans-20" x="135.986328"/>
      <use xlink:href="#DejaVuSans-52" x="167.773438"/>
      <use xlink:href="#DejaVuSans-41" x="233.255859"/>
      <use xlink:href="#DejaVuSans-47" x="299.914062"/>
     </g>
    </g>
    <g id="line2d_23">
     <path d="M 291.356193 73.639744 
L 301.356193 73.639744 
L 311.356193 73.639744 
" style="fill: none; stroke: #348abd; stroke-width: 2; stroke-linecap: square"/>
     <g>
      <use xlink:href="#mde0840918c" x="301.356193" y="73.639744" style="fill: #348abd; stroke: #348abd"/>
     </g>
    </g>
    <g id="text_21">
     <!-- 0.0 -->
     <g transform="translate(319.356193 77.139744) scale(0.1 -0.1)">
      <defs>
       <path id="DejaVuSans-2e" d="M 684 794 
L 1344 794 
L 1344 0 
L 684 0 
L 684 794 
z
" transform="scale(0.015625)"/>
      </defs>
      <use xlink:href="#DejaVuSans-30"/>
      <use xlink:href="#DejaVuSans-2e" x="63.623047"/>
      <use xlink:href="#DejaVuSans-30" x="95.410156"/>
     </g>
    </g>
    <g id="line2d_24">
     <path d="M 291.356193 88.317869 
L 301.356193 88.317869 
L 311.356193 88.317869 
" style="fill: none; stroke: #988ed5; stroke-width: 2; stroke-linecap: square"/>
     <g>
      <use xlink:href="#m94bd11cc5c" x="301.356193" y="88.317869" style="fill: #988ed5; stroke: #988ed5"/>
     </g>
    </g>
    <g id="text_22">
     <!-- 1.0 -->
     <g transform="translate(319.356193 91.817869) scale(0.1 -0.1)">
      <defs>
       <path id="DejaVuSans-31" d="M 794 531 
L 1825 531 
L 1825 4091 
L 703 3866 
L 703 4441 
L 1819 4666 
L 2450 4666 
L 2450 531 
L 3481 531 
L 3481 0 
L 794 0 
L 794 531 
z
" transform="scale(0.015625)"/>
      </defs>
      <use xlink:href="#DejaVuSans-31"/>
      <use xlink:href="#DejaVuSans-2e" x="63.623047"/>
      <use xlink:href="#DejaVuSans-30" x="95.410156"/>
     </g>
    </g>
   </g>
  </g>
 </g>
 <defs>
  <clipPath id="p4b8b94a4b4">
   <path d="M 366.096818 181.56 
C 366.096818 163.740457 362.586757 146.094187 355.767513 129.631076 
C 348.948269 113.167965 338.95246 98.208179 326.35214 85.60786 
C 313.751821 73.00754 298.792035 63.011731 282.328924 56.192487 
C 265.865813 49.373243 248.219543 45.863182 230.4 45.863182 
C 212.580457 45.863182 194.934187 49.373243 178.471076 56.192487 
C 162.007965 63.011731 147.048179 73.00754 134.44786 85.60786 
C 121.84754 98.208179 111.851731 113.167965 105.032487 129.631076 
C 98.213243 146.094187 94.703182 163.740457 94.703182 181.56 
C 94.703182 199.379543 98.213243 217.025813 105.032487 233.488924 
C 111.851731 249.952035 121.84754 264.911821 134.44786 277.51214 
C 147.048179 290.11246 162.007965 300.108269 178.471076 306.927513 
C 194.934187 313.746757 212.580457 317.256818 230.4 317.256818 
C 248.219543 317.256818 265.865813 313.746757 282.328924 306.927513 
C 298.792035 300.108269 313.751821 290.11246 326.35214 277.51214 
C 338.95246 264.911821 348.948269 249.952035 355.767513 233.488924 
C 362.586757 217.025813 366.096818 199.379543 366.096818 181.56 
M 230.4 181.56 
C 230.4 181.56 230.4 181.56 230.4 181.56 
C 230.4 181.56 230.4 181.56 230.4 181.56 
C 230.4 181.56 230.4 181.56 230.4 181.56 
C 230.4 181.56 230.4 181.56 230.4 181.56 
C 230.4 181.56 230.4 181.56 230.4 181.56 
C 230.4 181.56 230.4 181.56 230.4 181.56 
C 230.4 181.56 230.4 181.56 230.4 181.56 
C 230.4 181.56 230.4 181.56 230.4 181.56 
C 230.4 181.56 230.4 181.56 230.4 181.56 
C 230.4 181.56 230.4 181.56 230.4 181.56 
C 230.4 181.56 230.4 181.56 230.4 181.56 
C 230.4 181.56 230.4 181.56 230.4 181.56 
C 230.4 181.56 230.4 181.56 230.4 181.56 
C 230.4 181.56 230.4 181.56 230.4 181.56 
C 230.4 181.56 230.4 181.56 230.4 181.56 
C 230.4 181.56 230.4 181.56 230.4 181.56 
z
"/>
  </clipPath>
 </defs>
</svg>
