<?xml version="1.0" encoding="utf-8" standalone="no"?>
<!DOCTYPE svg PUBLIC "-//W3C//DTD SVG 1.1//EN"
  "http://www.w3.org/Graphics/SVG/1.1/DTD/svg11.dtd">
<svg xmlns:xlink="http://www.w3.org/1999/xlink" width="460.8pt" height="345.6pt" viewBox="0 0 460.8 345.6" xmlns="http://www.w3.org/2000/svg" version="1.1">
 <metadata>
  <rdf:RDF xmlns:dc="http://purl.org/dc/elements/1.1/" xmlns:cc="http://creativecommons.org/ns#" xmlns:rdf="http://www.w3.org/1999/02/22-rdf-syntax-ns#">
   <cc:Work>
    <dc:type rdf:resource="http://purl.org/dc/dcmitype/StillImage"/>
    <dc:date>2024-09-24T01:33:34.204371</dc:date>
    <dc:format>image/svg+xml</dc:format>
    <dc:creator>
     <cc:Agent>
      <dc:title>Matplotlib v3.9.1, https://matplotlib.org/</dc:title>
     </cc:Agent>
    </dc:creator>
   </cc:Work>
  </rdf:RDF>
 </metadata>
 <defs>
  <style type="text/css">*{stroke-linejoin: round; stroke-linecap: butt}</style>
 </defs>
 <g id="figure_1">
  <g id="patch_1">
   <path d="M 0 345.6 
L 460.8 345.6 
L 460.8 0 
L 0 0 
z
" style="fill: #ffffff"/>
  </g>
  <g id="axes_1">
   <g id="patch_2">
    <path d="M 366.096818 181.56 
C 366.096818 163.740457 362.586757 146.094187 355.767513 129.631076 
C 348.948269 113.167965 338.95246 98.208179 326.35214 85.60786 
C 313.751821 73.00754 298.792035 63.011731 282.328924 56.192487 
C 265.865813 49.373243 248.219543 45.863182 230.4 45.863182 
C 212.580457 45.863182 194.934187 49.373243 178.471076 56.192487 
C 162.007965 63.011731 147.048179 73.00754 134.44786 85.60786 
C 121.84754 98.208179 111.851731 113.167965 105.032487 129.631076 
C 98.213243 146.094187 94.703182 163.740457 94.703182 181.56 
C 94.703182 199.379543 98.213243 217.025813 105.032487 233.488924 
C 111.851731 249.952035 121.84754 264.911821 134.44786 277.51214 
C 147.048179 290.11246 162.007965 300.108269 178.471076 306.927513 
C 194.934187 313.746757 212.580457 317.256818 230.4 317.256818 
C 248.219543 317.256818 265.865813 313.746757 282.328924 306.927513 
C 298.792035 300.108269 313.751821 290.11246 326.35214 277.51214 
C 338.95246 264.911821 348.948269 249.952035 355.767513 233.488924 
C 362.586757 217.025813 366.096818 199.379543 366.096818 181.56 
M 230.4 181.56 
C 230.4 181.56 230.4 181.56 230.4 181.56 
C 230.4 181.56 230.4 181.56 230.4 181.56 
C 230.4 181.56 230.4 181.56 230.4 181.56 
C 230.4 181.56 230.4 181.56 230.4 181.56 
C 230.4 181.56 230.4 181.56 230.4 181.56 
C 230.4 181.56 230.4 181.56 230.4 181.56 
C 230.4 181.56 230.4 181.56 230.4 181.56 
C 230.4 181.56 230.4 181.56 230.4 181.56 
C 230.4 181.56 230.4 181.56 230.4 181.56 
C 230.4 181.56 230.4 181.56 230.4 181.56 
C 230.4 181.56 230.4 181.56 230.4 181.56 
C 230.4 181.56 230.4 181.56 230.4 181.56 
C 230.4 181.56 230.4 181.56 230.4 181.56 
C 230.4 181.56 230.4 181.56 230.4 181.56 
C 230.4 181.56 230.4 181.56 230.4 181.56 
C 230.4 181.56 230.4 181.56 230.4 181.56 
z
" style="fill: #e5e5e5"/>
   </g>
   <g id="matplotlib.axis_1">
    <g id="xtick_1">
     <g id="line2d_1">
      <path d="M 230.4 181.56 
L 366.096818 181.56 
" clip-path="url(#p7c02258677)" style="fill: none; stroke: #ffffff; stroke-width: 0.8; stroke-linecap: square"/>
     </g>
     <g id="text_1">
      <!-- Age -->
      <g style="fill: #555555" transform="translate(370.425724 184.319375) scale(0.1 -0.1)">
       <defs>
        <path id="DejaVuSans-41" d="M 2188 4044 
L 1331 1722 
L 3047 1722 
L 2188 4044 
z
M 1831 4666 
L 2547 4666 
L 4325 0 
L 3669 0 
L 3244 1197 
L 1141 1197 
L 716 0 
L 50 0 
L 1831 4666 
z
" transform="scale(0.015625)"/>
        <path id="DejaVuSans-67" d="M 2906 1791 
Q 2906 2416 2648 2759 
Q 2391 3103 1925 3103 
Q 1463 3103 1205 2759 
Q 947 2416 947 1791 
Q 947 1169 1205 825 
Q 1463 481 1925 481 
Q 2391 481 2648 825 
Q 2906 1169 2906 1791 
z
M 3481 434 
Q 3481 -459 3084 -895 
Q 2688 -1331 1869 -1331 
Q 1566 -1331 1297 -1286 
Q 1028 -1241 775 -1147 
L 775 -588 
Q 1028 -725 1275 -790 
Q 1522 -856 1778 -856 
Q 2344 -856 2625 -561 
Q 2906 -266 2906 331 
L 2906 616 
Q 2728 306 2450 153 
Q 2172 0 1784 0 
Q 1141 0 747 490 
Q 353 981 353 1791 
Q 353 2603 747 3093 
Q 1141 3584 1784 3584 
Q 2172 3584 2450 3431 
Q 2728 3278 2906 2969 
L 2906 3500 
L 3481 3500 
L 3481 434 
z
" transform="scale(0.015625)"/>
        <path id="DejaVuSans-65" d="M 3597 1894 
L 3597 1613 
L 953 1613 
Q 991 1019 1311 708 
Q 1631 397 2203 397 
Q 2534 397 2845 478 
Q 3156 559 3463 722 
L 3463 178 
Q 3153 47 2828 -22 
Q 2503 -91 2169 -91 
Q 1331 -91 842 396 
Q 353 884 353 1716 
Q 353 2575 817 3079 
Q 1281 3584 2069 3584 
Q 2775 3584 3186 3129 
Q 3597 2675 3597 1894 
z
M 3022 2063 
Q 3016 2534 2758 2815 
Q 2500 3097 2075 3097 
Q 1594 3097 1305 2825 
Q 1016 2553 972 2059 
L 3022 2063 
z
" transform="scale(0.015625)"/>
       </defs>
       <use xlink:href="#DejaVuSans-41"/>
       <use xlink:href="#DejaVuSans-67" x="68.408203"/>
       <use xlink:href="#DejaVuSans-65" x="131.884766"/>
      </g>
     </g>
    </g>
    <g id="xtick_2">
     <g id="line2d_2">
      <path d="M 230.4 181.56 
L 344.555428 108.196761 
" clip-path="url(#p7c02258677)" style="fill: none; stroke: #ffffff; stroke-width: 0.8; stroke-linecap: square"/>
     </g>
     <g id="text_2">
      <!-- Disability_status -->
      <g style="fill: #555555" transform="translate(315.301727 103.248102) scale(0.1 -0.1)">
       <defs>
        <path id="DejaVuSans-44" d="M 1259 4147 
L 1259 519 
L 2022 519 
Q 2988 519 3436 956 
Q 3884 1394 3884 2338 
Q 3884 3275 3436 3711 
Q 2988 4147 2022 4147 
L 1259 4147 
z
M 628 4666 
L 1925 4666 
Q 3281 4666 3915 4102 
Q 4550 3538 4550 2338 
Q 4550 1131 3912 565 
Q 3275 0 1925 0 
L 628 0 
L 628 4666 
z
" transform="scale(0.015625)"/>
        <path id="DejaVuSans-69" d="M 603 3500 
L 1178 3500 
L 1178 0 
L 603 0 
L 603 3500 
z
M 603 4863 
L 1178 4863 
L 1178 4134 
L 603 4134 
L 603 4863 
z
" transform="scale(0.015625)"/>
        <path id="DejaVuSans-73" d="M 2834 3397 
L 2834 2853 
Q 2591 2978 2328 3040 
Q 2066 3103 1784 3103 
Q 1356 3103 1142 2972 
Q 928 2841 928 2578 
Q 928 2378 1081 2264 
Q 1234 2150 1697 2047 
L 1894 2003 
Q 2506 1872 2764 1633 
Q 3022 1394 3022 966 
Q 3022 478 2636 193 
Q 2250 -91 1575 -91 
Q 1294 -91 989 -36 
Q 684 19 347 128 
L 347 722 
Q 666 556 975 473 
Q 1284 391 1588 391 
Q 1994 391 2212 530 
Q 2431 669 2431 922 
Q 2431 1156 2273 1281 
Q 2116 1406 1581 1522 
L 1381 1569 
Q 847 1681 609 1914 
Q 372 2147 372 2553 
Q 372 3047 722 3315 
Q 1072 3584 1716 3584 
Q 2034 3584 2315 3537 
Q 2597 3491 2834 3397 
z
" transform="scale(0.015625)"/>
        <path id="DejaVuSans-61" d="M 2194 1759 
Q 1497 1759 1228 1600 
Q 959 1441 959 1056 
Q 959 750 1161 570 
Q 1363 391 1709 391 
Q 2188 391 2477 730 
Q 2766 1069 2766 1631 
L 2766 1759 
L 2194 1759 
z
M 3341 1997 
L 3341 0 
L 2766 0 
L 2766 531 
Q 2569 213 2275 61 
Q 1981 -91 1556 -91 
Q 1019 -91 701 211 
Q 384 513 384 1019 
Q 384 1609 779 1909 
Q 1175 2209 1959 2209 
L 2766 2209 
L 2766 2266 
Q 2766 2663 2505 2880 
Q 2244 3097 1772 3097 
Q 1472 3097 1187 3025 
Q 903 2953 641 2809 
L 641 3341 
Q 956 3463 1253 3523 
Q 1550 3584 1831 3584 
Q 2591 3584 2966 3190 
Q 3341 2797 3341 1997 
z
" transform="scale(0.015625)"/>
        <path id="DejaVuSans-62" d="M 3116 1747 
Q 3116 2381 2855 2742 
Q 2594 3103 2138 3103 
Q 1681 3103 1420 2742 
Q 1159 2381 1159 1747 
Q 1159 1113 1420 752 
Q 1681 391 2138 391 
Q 2594 391 2855 752 
Q 3116 1113 3116 1747 
z
M 1159 2969 
Q 1341 3281 1617 3432 
Q 1894 3584 2278 3584 
Q 2916 3584 3314 3078 
Q 3713 2572 3713 1747 
Q 3713 922 3314 415 
Q 2916 -91 2278 -91 
Q 1894 -91 1617 61 
Q 1341 213 1159 525 
L 1159 0 
L 581 0 
L 581 4863 
L 1159 4863 
L 1159 2969 
z
" transform="scale(0.015625)"/>
        <path id="DejaVuSans-6c" d="M 603 4863 
L 1178 4863 
L 1178 0 
L 603 0 
L 603 4863 
z
" transform="scale(0.015625)"/>
        <path id="DejaVuSans-74" d="M 1172 4494 
L 1172 3500 
L 2356 3500 
L 2356 3053 
L 1172 3053 
L 1172 1153 
Q 1172 725 1289 603 
Q 1406 481 1766 481 
L 2356 481 
L 2356 0 
L 1766 0 
Q 1100 0 847 248 
Q 594 497 594 1153 
L 594 3053 
L 172 3053 
L 172 3500 
L 594 3500 
L 594 4494 
L 1172 4494 
z
" transform="scale(0.015625)"/>
        <path id="DejaVuSans-79" d="M 2059 -325 
Q 1816 -950 1584 -1140 
Q 1353 -1331 966 -1331 
L 506 -1331 
L 506 -850 
L 844 -850 
Q 1081 -850 1212 -737 
Q 1344 -625 1503 -206 
L 1606 56 
L 191 3500 
L 800 3500 
L 1894 763 
L 2988 3500 
L 3597 3500 
L 2059 -325 
z
" transform="scale(0.015625)"/>
        <path id="DejaVuSans-5f" d="M 3263 -1063 
L 3263 -1509 
L -63 -1509 
L -63 -1063 
L 3263 -1063 
z
" transform="scale(0.015625)"/>
        <path id="DejaVuSans-75" d="M 544 1381 
L 544 3500 
L 1119 3500 
L 1119 1403 
Q 1119 906 1312 657 
Q 1506 409 1894 409 
Q 2359 409 2629 706 
Q 2900 1003 2900 1516 
L 2900 3500 
L 3475 3500 
L 3475 0 
L 2900 0 
L 2900 538 
Q 2691 219 2414 64 
Q 2138 -91 1772 -91 
Q 1169 -91 856 284 
Q 544 659 544 1381 
z
M 1991 3584 
L 1991 3584 
z
" transform="scale(0.015625)"/>
       </defs>
       <use xlink:href="#DejaVuSans-44"/>
       <use xlink:href="#DejaVuSans-69" x="77.001953"/>
       <use xlink:href="#DejaVuSans-73" x="104.785156"/>
       <use xlink:href="#DejaVuSans-61" x="156.884766"/>
       <use xlink:href="#DejaVuSans-62" x="218.164062"/>
       <use xlink:href="#DejaVuSans-69" x="281.640625"/>
       <use xlink:href="#DejaVuSans-6c" x="309.423828"/>
       <use xlink:href="#DejaVuSans-69" x="337.207031"/>
       <use xlink:href="#DejaVuSans-74" x="364.990234"/>
       <use xlink:href="#DejaVuSans-79" x="404.199219"/>
       <use xlink:href="#DejaVuSans-5f" x="463.378906"/>
       <use xlink:href="#DejaVuSans-73" x="513.378906"/>
       <use xlink:href="#DejaVuSans-74" x="565.478516"/>
       <use xlink:href="#DejaVuSans-61" x="604.6875"/>
       <use xlink:href="#DejaVuSans-74" x="665.966797"/>
       <use xlink:href="#DejaVuSans-75" x="705.175781"/>
       <use xlink:href="#DejaVuSans-73" x="768.554688"/>
      </g>
     </g>
    </g>
    <g id="xtick_3">
     <g id="line2d_3">
      <path d="M 230.4 181.56 
L 286.770495 58.125833 
" clip-path="url(#p7c02258677)" style="fill: none; stroke: #ffffff; stroke-width: 0.8; stroke-linecap: square"/>
     </g>
     <g id="text_3">
      <!-- Gender_identity -->
      <g style="fill: #555555" transform="translate(252.583181 48.011297) scale(0.1 -0.1)">
       <defs>
        <path id="DejaVuSans-47" d="M 3809 666 
L 3809 1919 
L 2778 1919 
L 2778 2438 
L 4434 2438 
L 4434 434 
Q 4069 175 3628 42 
Q 3188 -91 2688 -91 
Q 1594 -91 976 548 
Q 359 1188 359 2328 
Q 359 3472 976 4111 
Q 1594 4750 2688 4750 
Q 3144 4750 3555 4637 
Q 3966 4525 4313 4306 
L 4313 3634 
Q 3963 3931 3569 4081 
Q 3175 4231 2741 4231 
Q 1884 4231 1454 3753 
Q 1025 3275 1025 2328 
Q 1025 1384 1454 906 
Q 1884 428 2741 428 
Q 3075 428 3337 486 
Q 3600 544 3809 666 
z
" transform="scale(0.015625)"/>
        <path id="DejaVuSans-6e" d="M 3513 2113 
L 3513 0 
L 2938 0 
L 2938 2094 
Q 2938 2591 2744 2837 
Q 2550 3084 2163 3084 
Q 1697 3084 1428 2787 
Q 1159 2491 1159 1978 
L 1159 0 
L 581 0 
L 581 3500 
L 1159 3500 
L 1159 2956 
Q 1366 3272 1645 3428 
Q 1925 3584 2291 3584 
Q 2894 3584 3203 3211 
Q 3513 2838 3513 2113 
z
" transform="scale(0.015625)"/>
        <path id="DejaVuSans-64" d="M 2906 2969 
L 2906 4863 
L 3481 4863 
L 3481 0 
L 2906 0 
L 2906 525 
Q 2725 213 2448 61 
Q 2172 -91 1784 -91 
Q 1150 -91 751 415 
Q 353 922 353 1747 
Q 353 2572 751 3078 
Q 1150 3584 1784 3584 
Q 2172 3584 2448 3432 
Q 2725 3281 2906 2969 
z
M 947 1747 
Q 947 1113 1208 752 
Q 1469 391 1925 391 
Q 2381 391 2643 752 
Q 2906 1113 2906 1747 
Q 2906 2381 2643 2742 
Q 2381 3103 1925 3103 
Q 1469 3103 1208 2742 
Q 947 2381 947 1747 
z
" transform="scale(0.015625)"/>
        <path id="DejaVuSans-72" d="M 2631 2963 
Q 2534 3019 2420 3045 
Q 2306 3072 2169 3072 
Q 1681 3072 1420 2755 
Q 1159 2438 1159 1844 
L 1159 0 
L 581 0 
L 581 3500 
L 1159 3500 
L 1159 2956 
Q 1341 3275 1631 3429 
Q 1922 3584 2338 3584 
Q 2397 3584 2469 3576 
Q 2541 3569 2628 3553 
L 2631 2963 
z
" transform="scale(0.015625)"/>
       </defs>
       <use xlink:href="#DejaVuSans-47"/>
       <use xlink:href="#DejaVuSans-65" x="77.490234"/>
       <use xlink:href="#DejaVuSans-6e" x="139.013672"/>
       <use xlink:href="#DejaVuSans-64" x="202.392578"/>
       <use xlink:href="#DejaVuSans-65" x="265.869141"/>
       <use xlink:href="#DejaVuSans-72" x="327.392578"/>
       <use xlink:href="#DejaVuSans-5f" x="368.505859"/>
       <use xlink:href="#DejaVuSans-69" x="418.505859"/>
       <use xlink:href="#DejaVuSans-64" x="446.289062"/>
       <use xlink:href="#DejaVuSans-65" x="509.765625"/>
       <use xlink:href="#DejaVuSans-6e" x="571.289062"/>
       <use xlink:href="#DejaVuSans-74" x="634.667969"/>
       <use xlink:href="#DejaVuSans-69" x="673.876953"/>
       <use xlink:href="#DejaVuSans-74" x="701.660156"/>
       <use xlink:href="#DejaVuSans-79" x="740.869141"/>
      </g>
     </g>
    </g>
    <g id="xtick_4">
     <g id="line2d_4">
      <path d="M 230.4 181.56 
L 211.088329 47.24438 
" clip-path="url(#p7c02258677)" style="fill: none; stroke: #ffffff; stroke-width: 0.8; stroke-linecap: square"/>
     </g>
     <g id="text_4">
      <!-- Nationality -->
      <g style="fill: #555555" transform="translate(181.952172 36.146255) scale(0.1 -0.1)">
       <defs>
        <path id="DejaVuSans-4e" d="M 628 4666 
L 1478 4666 
L 3547 763 
L 3547 4666 
L 4159 4666 
L 4159 0 
L 3309 0 
L 1241 3903 
L 1241 0 
L 628 0 
L 628 4666 
z
" transform="scale(0.015625)"/>
        <path id="DejaVuSans-6f" d="M 1959 3097 
Q 1497 3097 1228 2736 
Q 959 2375 959 1747 
Q 959 1119 1226 758 
Q 1494 397 1959 397 
Q 2419 397 2687 759 
Q 2956 1122 2956 1747 
Q 2956 2369 2687 2733 
Q 2419 3097 1959 3097 
z
M 1959 3584 
Q 2709 3584 3137 3096 
Q 3566 2609 3566 1747 
Q 3566 888 3137 398 
Q 2709 -91 1959 -91 
Q 1206 -91 779 398 
Q 353 888 353 1747 
Q 353 2609 779 3096 
Q 1206 3584 1959 3584 
z
" transform="scale(0.015625)"/>
       </defs>
       <use xlink:href="#DejaVuSans-4e"/>
       <use xlink:href="#DejaVuSans-61" x="74.804688"/>
       <use xlink:href="#DejaVuSans-74" x="136.083984"/>
       <use xlink:href="#DejaVuSans-69" x="175.292969"/>
       <use xlink:href="#DejaVuSans-6f" x="203.076172"/>
       <use xlink:href="#DejaVuSans-6e" x="264.257812"/>
       <use xlink:href="#DejaVuSans-61" x="327.636719"/>
       <use xlink:href="#DejaVuSans-6c" x="388.916016"/>
       <use xlink:href="#DejaVuSans-69" x="416.699219"/>
       <use xlink:href="#DejaVuSans-74" x="444.482422"/>
       <use xlink:href="#DejaVuSans-79" x="483.691406"/>
      </g>
     </g>
    </g>
    <g id="xtick_5">
     <g id="line2d_5">
      <path d="M 230.4 181.56 
L 141.537482 79.007188 
" clip-path="url(#p7c02258677)" style="fill: none; stroke: #ffffff; stroke-width: 0.8; stroke-linecap: square"/>
     </g>
     <g id="text_5">
      <!-- Physical_appearance -->
      <g style="fill: #555555" transform="translate(79.863182 71.047006) scale(0.1 -0.1)">
       <defs>
        <path id="DejaVuSans-50" d="M 1259 4147 
L 1259 2394 
L 2053 2394 
Q 2494 2394 2734 2622 
Q 2975 2850 2975 3272 
Q 2975 3691 2734 3919 
Q 2494 4147 2053 4147 
L 1259 4147 
z
M 628 4666 
L 2053 4666 
Q 2838 4666 3239 4311 
Q 3641 3956 3641 3272 
Q 3641 2581 3239 2228 
Q 2838 1875 2053 1875 
L 1259 1875 
L 1259 0 
L 628 0 
L 628 4666 
z
" transform="scale(0.015625)"/>
        <path id="DejaVuSans-68" d="M 3513 2113 
L 3513 0 
L 2938 0 
L 2938 2094 
Q 2938 2591 2744 2837 
Q 2550 3084 2163 3084 
Q 1697 3084 1428 2787 
Q 1159 2491 1159 1978 
L 1159 0 
L 581 0 
L 581 4863 
L 1159 4863 
L 1159 2956 
Q 1366 3272 1645 3428 
Q 1925 3584 2291 3584 
Q 2894 3584 3203 3211 
Q 3513 2838 3513 2113 
z
" transform="scale(0.015625)"/>
        <path id="DejaVuSans-63" d="M 3122 3366 
L 3122 2828 
Q 2878 2963 2633 3030 
Q 2388 3097 2138 3097 
Q 1578 3097 1268 2742 
Q 959 2388 959 1747 
Q 959 1106 1268 751 
Q 1578 397 2138 397 
Q 2388 397 2633 464 
Q 2878 531 3122 666 
L 3122 134 
Q 2881 22 2623 -34 
Q 2366 -91 2075 -91 
Q 1284 -91 818 406 
Q 353 903 353 1747 
Q 353 2603 823 3093 
Q 1294 3584 2113 3584 
Q 2378 3584 2631 3529 
Q 2884 3475 3122 3366 
z
" transform="scale(0.015625)"/>
        <path id="DejaVuSans-70" d="M 1159 525 
L 1159 -1331 
L 581 -1331 
L 581 3500 
L 1159 3500 
L 1159 2969 
Q 1341 3281 1617 3432 
Q 1894 3584 2278 3584 
Q 2916 3584 3314 3078 
Q 3713 2572 3713 1747 
Q 3713 922 3314 415 
Q 2916 -91 2278 -91 
Q 1894 -91 1617 61 
Q 1341 213 1159 525 
z
M 3116 1747 
Q 3116 2381 2855 2742 
Q 2594 3103 2138 3103 
Q 1681 3103 1420 2742 
Q 1159 2381 1159 1747 
Q 1159 1113 1420 752 
Q 1681 391 2138 391 
Q 2594 391 2855 752 
Q 3116 1113 3116 1747 
z
" transform="scale(0.015625)"/>
       </defs>
       <use xlink:href="#DejaVuSans-50"/>
       <use xlink:href="#DejaVuSans-68" x="60.302734"/>
       <use xlink:href="#DejaVuSans-79" x="123.681641"/>
       <use xlink:href="#DejaVuSans-73" x="182.861328"/>
       <use xlink:href="#DejaVuSans-69" x="234.960938"/>
       <use xlink:href="#DejaVuSans-63" x="262.744141"/>
       <use xlink:href="#DejaVuSans-61" x="317.724609"/>
       <use xlink:href="#DejaVuSans-6c" x="379.003906"/>
       <use xlink:href="#DejaVuSans-5f" x="406.787109"/>
       <use xlink:href="#DejaVuSans-61" x="456.787109"/>
       <use xlink:href="#DejaVuSans-70" x="518.066406"/>
       <use xlink:href="#DejaVuSans-70" x="581.542969"/>
       <use xlink:href="#DejaVuSans-65" x="645.019531"/>
       <use xlink:href="#DejaVuSans-61" x="706.542969"/>
       <use xlink:href="#DejaVuSans-72" x="767.822266"/>
       <use xlink:href="#DejaVuSans-61" x="808.935547"/>
       <use xlink:href="#DejaVuSans-6e" x="870.214844"/>
       <use xlink:href="#DejaVuSans-63" x="933.59375"/>
       <use xlink:href="#DejaVuSans-65" x="988.574219"/>
      </g>
     </g>
    </g>
    <g id="xtick_6">
     <g id="line2d_6">
      <path d="M 230.4 181.56 
L 100.199857 143.329788 
" clip-path="url(#p7c02258677)" style="fill: none; stroke: #ffffff; stroke-width: 0.8; stroke-linecap: square"/>
     </g>
     <g id="text_6">
      <!-- Race_ethnicity -->
      <g style="fill: #555555" transform="translate(50.194299 142.005845) scale(0.1 -0.1)">
       <defs>
        <path id="DejaVuSans-52" d="M 2841 2188 
Q 3044 2119 3236 1894 
Q 3428 1669 3622 1275 
L 4263 0 
L 3584 0 
L 2988 1197 
Q 2756 1666 2539 1819 
Q 2322 1972 1947 1972 
L 1259 1972 
L 1259 0 
L 628 0 
L 628 4666 
L 2053 4666 
Q 2853 4666 3247 4331 
Q 3641 3997 3641 3322 
Q 3641 2881 3436 2590 
Q 3231 2300 2841 2188 
z
M 1259 4147 
L 1259 2491 
L 2053 2491 
Q 2509 2491 2742 2702 
Q 2975 2913 2975 3322 
Q 2975 3731 2742 3939 
Q 2509 4147 2053 4147 
L 1259 4147 
z
" transform="scale(0.015625)"/>
       </defs>
       <use xlink:href="#DejaVuSans-52"/>
       <use xlink:href="#DejaVuSans-61" x="67.232422"/>
       <use xlink:href="#DejaVuSans-63" x="128.511719"/>
       <use xlink:href="#DejaVuSans-65" x="183.492188"/>
       <use xlink:href="#DejaVuSans-5f" x="245.015625"/>
       <use xlink:href="#DejaVuSans-65" x="295.015625"/>
       <use xlink:href="#DejaVuSans-74" x="356.539062"/>
       <use xlink:href="#DejaVuSans-68" x="395.748047"/>
       <use xlink:href="#DejaVuSans-6e" x="459.126953"/>
       <use xlink:href="#DejaVuSans-69" x="522.505859"/>
       <use xlink:href="#DejaVuSans-63" x="550.289062"/>
       <use xlink:href="#DejaVuSans-69" x="605.269531"/>
       <use xlink:href="#DejaVuSans-74" x="633.052734"/>
       <use xlink:href="#DejaVuSans-79" x="672.261719"/>
      </g>
     </g>
    </g>
    <g id="xtick_7">
     <g id="line2d_7">
      <path d="M 230.4 181.56 
L 100.199857 219.790212 
" clip-path="url(#p7c02258677)" style="fill: none; stroke: #ffffff; stroke-width: 0.8; stroke-linecap: square"/>
     </g>
     <g id="text_7">
      <!-- Race_x_SES -->
      <g style="fill: #555555" transform="translate(57.048205 226.266499) scale(0.1 -0.1)">
       <defs>
        <path id="DejaVuSans-78" d="M 3513 3500 
L 2247 1797 
L 3578 0 
L 2900 0 
L 1881 1375 
L 863 0 
L 184 0 
L 1544 1831 
L 300 3500 
L 978 3500 
L 1906 2253 
L 2834 3500 
L 3513 3500 
z
" transform="scale(0.015625)"/>
        <path id="DejaVuSans-53" d="M 3425 4513 
L 3425 3897 
Q 3066 4069 2747 4153 
Q 2428 4238 2131 4238 
Q 1616 4238 1336 4038 
Q 1056 3838 1056 3469 
Q 1056 3159 1242 3001 
Q 1428 2844 1947 2747 
L 2328 2669 
Q 3034 2534 3370 2195 
Q 3706 1856 3706 1288 
Q 3706 609 3251 259 
Q 2797 -91 1919 -91 
Q 1588 -91 1214 -16 
Q 841 59 441 206 
L 441 856 
Q 825 641 1194 531 
Q 1563 422 1919 422 
Q 2459 422 2753 634 
Q 3047 847 3047 1241 
Q 3047 1584 2836 1778 
Q 2625 1972 2144 2069 
L 1759 2144 
Q 1053 2284 737 2584 
Q 422 2884 422 3419 
Q 422 4038 858 4394 
Q 1294 4750 2059 4750 
Q 2388 4750 2728 4690 
Q 3069 4631 3425 4513 
z
" transform="scale(0.015625)"/>
        <path id="DejaVuSans-45" d="M 628 4666 
L 3578 4666 
L 3578 4134 
L 1259 4134 
L 1259 2753 
L 3481 2753 
L 3481 2222 
L 1259 2222 
L 1259 531 
L 3634 531 
L 3634 0 
L 628 0 
L 628 4666 
z
" transform="scale(0.015625)"/>
       </defs>
       <use xlink:href="#DejaVuSans-52"/>
       <use xlink:href="#DejaVuSans-61" x="67.232422"/>
       <use xlink:href="#DejaVuSans-63" x="128.511719"/>
       <use xlink:href="#DejaVuSans-65" x="183.492188"/>
       <use xlink:href="#DejaVuSans-5f" x="245.015625"/>
       <use xlink:href="#DejaVuSans-78" x="295.015625"/>
       <use xlink:href="#DejaVuSans-5f" x="354.195312"/>
       <use xlink:href="#DejaVuSans-53" x="404.195312"/>
       <use xlink:href="#DejaVuSans-45" x="467.671875"/>
       <use xlink:href="#DejaVuSans-53" x="530.855469"/>
      </g>
     </g>
    </g>
    <g id="xtick_8">
     <g id="line2d_8">
      <path d="M 230.4 181.56 
L 141.537482 284.112812 
" clip-path="url(#p7c02258677)" style="fill: none; stroke: #ffffff; stroke-width: 0.8; stroke-linecap: square"/>
     </g>
     <g id="text_8">
      <!-- Race_x_gender -->
      <g style="fill: #555555" transform="translate(94.432713 297.313619) scale(0.1 -0.1)">
       <use xlink:href="#DejaVuSans-52"/>
       <use xlink:href="#DejaVuSans-61" x="67.232422"/>
       <use xlink:href="#DejaVuSans-63" x="128.511719"/>
       <use xlink:href="#DejaVuSans-65" x="183.492188"/>
       <use xlink:href="#DejaVuSans-5f" x="245.015625"/>
       <use xlink:href="#DejaVuSans-78" x="295.015625"/>
       <use xlink:href="#DejaVuSans-5f" x="354.195312"/>
       <use xlink:href="#DejaVuSans-67" x="404.195312"/>
       <use xlink:href="#DejaVuSans-65" x="467.671875"/>
       <use xlink:href="#DejaVuSans-6e" x="529.195312"/>
       <use xlink:href="#DejaVuSans-64" x="592.574219"/>
       <use xlink:href="#DejaVuSans-65" x="656.050781"/>
       <use xlink:href="#DejaVuSans-72" x="717.574219"/>
      </g>
     </g>
    </g>
    <g id="xtick_9">
     <g id="line2d_9">
      <path d="M 230.4 181.56 
L 211.088329 315.87562 
" clip-path="url(#p7c02258677)" style="fill: none; stroke: #ffffff; stroke-width: 0.8; stroke-linecap: square"/>
     </g>
     <g id="text_9">
      <!-- Religion -->
      <g style="fill: #555555" transform="translate(189.200609 332.492495) scale(0.1 -0.1)">
       <use xlink:href="#DejaVuSans-52"/>
       <use xlink:href="#DejaVuSans-65" x="64.982422"/>
       <use xlink:href="#DejaVuSans-6c" x="126.505859"/>
       <use xlink:href="#DejaVuSans-69" x="154.289062"/>
       <use xlink:href="#DejaVuSans-67" x="182.072266"/>
       <use xlink:href="#DejaVuSans-69" x="245.548828"/>
       <use xlink:href="#DejaVuSans-6f" x="273.332031"/>
       <use xlink:href="#DejaVuSans-6e" x="334.513672"/>
      </g>
     </g>
    </g>
    <g id="xtick_10">
     <g id="line2d_10">
      <path d="M 230.4 181.56 
L 286.770495 304.994167 
" clip-path="url(#p7c02258677)" style="fill: none; stroke: #ffffff; stroke-width: 0.8; stroke-linecap: square"/>
     </g>
     <g id="text_10">
      <!-- SES -->
      <g style="fill: #555555" transform="translate(283.078493 320.48839) scale(0.1 -0.1)">
       <use xlink:href="#DejaVuSans-53"/>
       <use xlink:href="#DejaVuSans-45" x="63.476562"/>
       <use xlink:href="#DejaVuSans-53" x="126.660156"/>
      </g>
     </g>
    </g>
    <g id="xtick_11">
     <g id="line2d_11">
      <path d="M 230.4 181.56 
L 344.555428 254.923239 
" clip-path="url(#p7c02258677)" style="fill: none; stroke: #ffffff; stroke-width: 0.8; stroke-linecap: square"/>
     </g>
     <g id="text_11">
      <!-- Sexual_orientation -->
      <g style="fill: #555555" transform="translate(309.737665 265.112523) scale(0.1 -0.1)">
       <use xlink:href="#DejaVuSans-53"/>
       <use xlink:href="#DejaVuSans-65" x="63.476562"/>
       <use xlink:href="#DejaVuSans-78" x="123.25"/>
       <use xlink:href="#DejaVuSans-75" x="182.429688"/>
       <use xlink:href="#DejaVuSans-61" x="245.808594"/>
       <use xlink:href="#DejaVuSans-6c" x="307.087891"/>
       <use xlink:href="#DejaVuSans-5f" x="334.871094"/>
       <use xlink:href="#DejaVuSans-6f" x="384.871094"/>
       <use xlink:href="#DejaVuSans-72" x="446.052734"/>
       <use xlink:href="#DejaVuSans-69" x="487.166016"/>
       <use xlink:href="#DejaVuSans-65" x="514.949219"/>
       <use xlink:href="#DejaVuSans-6e" x="576.472656"/>
       <use xlink:href="#DejaVuSans-74" x="639.851562"/>
       <use xlink:href="#DejaVuSans-61" x="679.060547"/>
       <use xlink:href="#DejaVuSans-74" x="740.339844"/>
       <use xlink:href="#DejaVuSans-69" x="779.548828"/>
       <use xlink:href="#DejaVuSans-6f" x="807.332031"/>
       <use xlink:href="#DejaVuSans-6e" x="868.513672"/>
      </g>
     </g>
    </g>
   </g>
   <g id="matplotlib.axis_2">
    <g id="ytick_1">
     <g id="line2d_12">
      <path d="M 243.296805 181.56 
C 243.296805 179.866407 242.963204 178.189282 242.315094 176.624606 
C 241.666984 175.059931 240.716969 173.638133 239.519418 172.440582 
C 238.321867 171.243031 236.900069 170.293016 235.335394 169.644906 
C 233.770718 168.996796 232.093593 168.663195 230.4 168.663195 
C 228.706407 168.663195 227.029282 168.996796 225.464606 169.644906 
C 223.899931 170.293016 222.478133 171.243031 221.280582 172.440582 
C 220.083031 173.638133 219.133016 175.059931 218.484906 176.624606 
C 217.836796 178.189282 217.503195 179.866407 217.503195 181.56 
C 217.503195 183.253593 217.836796 184.930718 218.484906 186.495394 
C 219.133016 188.060069 220.083031 189.481867 221.280582 190.679418 
C 222.478133 191.876969 223.899931 192.826984 225.464606 193.475094 
C 227.029282 194.123204 228.706407 194.456805 230.4 194.456805 
C 232.093593 194.456805 233.770718 194.123204 235.335394 193.475094 
C 236.900069 192.826984 238.321867 191.876969 239.519418 190.679418 
C 240.716969 189.481867 241.666984 188.060069 242.315094 186.495394 
C 242.963204 184.930718 243.296805 183.253593 243.296805 181.56 
" clip-path="url(#p7c02258677)" style="fill: none; stroke: #ffffff; stroke-width: 0.8; stroke-linecap: square"/>
     </g>
     <g id="text_12">
      <!-- −20 -->
      <g style="fill: #555555" transform="translate(242.315094 174.544919) scale(0.1 -0.1)">
       <defs>
        <path id="DejaVuSans-2212" d="M 678 2272 
L 4684 2272 
L 4684 1741 
L 678 1741 
L 678 2272 
z
" transform="scale(0.015625)"/>
        <path id="DejaVuSans-32" d="M 1228 531 
L 3431 531 
L 3431 0 
L 469 0 
L 469 531 
Q 828 903 1448 1529 
Q 2069 2156 2228 2338 
Q 2531 2678 2651 2914 
Q 2772 3150 2772 3378 
Q 2772 3750 2511 3984 
Q 2250 4219 1831 4219 
Q 1534 4219 1204 4116 
Q 875 4013 500 3803 
L 500 4441 
Q 881 4594 1212 4672 
Q 1544 4750 1819 4750 
Q 2544 4750 2975 4387 
Q 3406 4025 3406 3419 
Q 3406 3131 3298 2873 
Q 3191 2616 2906 2266 
Q 2828 2175 2409 1742 
Q 1991 1309 1228 531 
z
" transform="scale(0.015625)"/>
        <path id="DejaVuSans-30" d="M 2034 4250 
Q 1547 4250 1301 3770 
Q 1056 3291 1056 2328 
Q 1056 1369 1301 889 
Q 1547 409 2034 409 
Q 2525 409 2770 889 
Q 3016 1369 3016 2328 
Q 3016 3291 2770 3770 
Q 2525 4250 2034 4250 
z
M 2034 4750 
Q 2819 4750 3233 4129 
Q 3647 3509 3647 2328 
Q 3647 1150 3233 529 
Q 2819 -91 2034 -91 
Q 1250 -91 836 529 
Q 422 1150 422 2328 
Q 422 3509 836 4129 
Q 1250 4750 2034 4750 
z
" transform="scale(0.015625)"/>
       </defs>
       <use xlink:href="#DejaVuSans-2212"/>
       <use xlink:href="#DejaVuSans-32" x="83.789062"/>
       <use xlink:href="#DejaVuSans-30" x="147.412109"/>
      </g>
     </g>
    </g>
    <g id="ytick_2">
     <g id="line2d_13">
      <path d="M 270.211876 181.56 
C 270.211876 176.331952 269.182065 171.154741 267.181378 166.324655 
C 265.18069 161.494568 262.248036 157.10554 258.551248 153.408752 
C 254.85446 149.711964 250.465432 146.77931 245.635345 144.778622 
C 240.805259 142.777935 235.628048 141.748124 230.4 141.748124 
C 225.171952 141.748124 219.994741 142.777935 215.164655 144.778622 
C 210.334568 146.77931 205.94554 149.711964 202.248752 153.408752 
C 198.551964 157.10554 195.61931 161.494568 193.618622 166.324655 
C 191.617935 171.154741 190.588124 176.331952 190.588124 181.56 
C 190.588124 186.788048 191.617935 191.965259 193.618622 196.795345 
C 195.61931 201.625432 198.551964 206.01446 202.248752 209.711248 
C 205.94554 213.408036 210.334568 216.34069 215.164655 218.341378 
C 219.994741 220.342065 225.171952 221.371876 230.4 221.371876 
C 235.628048 221.371876 240.805259 220.342065 245.635345 218.341378 
C 250.465432 216.34069 254.85446 213.408036 258.551248 209.711248 
C 262.248036 206.01446 265.18069 201.625432 267.181378 196.795345 
C 269.182065 191.965259 270.211876 186.788048 270.211876 181.56 
" clip-path="url(#p7c02258677)" style="fill: none; stroke: #ffffff; stroke-width: 0.8; stroke-linecap: square"/>
     </g>
     <g id="text_13">
      <!-- 0 -->
      <g style="fill: #555555" transform="translate(267.181378 164.244967) scale(0.1 -0.1)">
       <use xlink:href="#DejaVuSans-30"/>
      </g>
     </g>
    </g>
    <g id="ytick_3">
     <g id="line2d_14">
      <path d="M 297.126948 181.56 
C 297.126948 172.797498 295.400926 164.120199 292.047661 156.024703 
C 288.694397 147.929206 283.779102 140.572948 277.583077 134.376923 
C 271.387052 128.180898 264.030794 123.265603 255.935297 119.912339 
C 247.839801 116.559074 239.162502 114.833052 230.4 114.833052 
C 221.637498 114.833052 212.960199 116.559074 204.864703 119.912339 
C 196.769206 123.265603 189.412948 128.180898 183.216923 134.376923 
C 177.020898 140.572948 172.105603 147.929206 168.752339 156.024703 
C 165.399074 164.120199 163.673052 172.797498 163.673052 181.56 
C 163.673052 190.322502 165.399074 198.999801 168.752339 207.095297 
C 172.105603 215.190794 177.020898 222.547052 183.216923 228.743077 
C 189.412948 234.939102 196.769206 239.854397 204.864703 243.207661 
C 212.960199 246.560926 221.637498 248.286948 230.4 248.286948 
C 239.162502 248.286948 247.839801 246.560926 255.935297 243.207661 
C 264.030794 239.854397 271.387052 234.939102 277.583077 228.743077 
C 283.779102 222.547052 288.694397 215.190794 292.047661 207.095297 
C 295.400926 198.999801 297.126948 190.322502 297.126948 181.56 
" clip-path="url(#p7c02258677)" style="fill: none; stroke: #ffffff; stroke-width: 0.8; stroke-linecap: square"/>
     </g>
     <g id="text_14">
      <!-- 20 -->
      <g style="fill: #555555" transform="translate(292.047661 153.945015) scale(0.1 -0.1)">
       <use xlink:href="#DejaVuSans-32"/>
       <use xlink:href="#DejaVuSans-30" x="63.623047"/>
      </g>
     </g>
    </g>
    <g id="ytick_4">
     <g id="line2d_15">
      <path d="M 324.042019 181.56 
C 324.042019 169.263043 321.619787 157.085658 316.913945 145.724751 
C 312.208103 134.363844 305.310169 124.040355 296.614907 115.345093 
C 287.919645 106.649831 277.596156 99.751897 266.235249 95.046055 
C 254.874342 90.340213 242.696957 87.917981 230.4 87.917981 
C 218.103043 87.917981 205.925658 90.340213 194.564751 95.046055 
C 183.203844 99.751897 172.880355 106.649831 164.185093 115.345093 
C 155.489831 124.040355 148.591897 134.363844 143.886055 145.724751 
C 139.180213 157.085658 136.757981 169.263043 136.757981 181.56 
C 136.757981 193.856957 139.180213 206.034342 143.886055 217.395249 
C 148.591897 228.756156 155.489831 239.079645 164.185093 247.774907 
C 172.880355 256.470169 183.203844 263.368103 194.564751 268.073945 
C 205.925658 272.779787 218.103043 275.202019 230.4 275.202019 
C 242.696957 275.202019 254.874342 272.779787 266.235249 268.073945 
C 277.596156 263.368103 287.919645 256.470169 296.614907 247.774907 
C 305.310169 239.079645 312.208103 228.756156 316.913945 217.395249 
C 321.619787 206.034342 324.042019 193.856957 324.042019 181.56 
" clip-path="url(#p7c02258677)" style="fill: none; stroke: #ffffff; stroke-width: 0.8; stroke-linecap: square"/>
     </g>
     <g id="text_15">
      <!-- 40 -->
      <g style="fill: #555555" transform="translate(316.913945 143.645063) scale(0.1 -0.1)">
       <defs>
        <path id="DejaVuSans-34" d="M 2419 4116 
L 825 1625 
L 2419 1625 
L 2419 4116 
z
M 2253 4666 
L 3047 4666 
L 3047 1625 
L 3713 1625 
L 3713 1100 
L 3047 1100 
L 3047 0 
L 2419 0 
L 2419 1100 
L 313 1100 
L 313 1709 
L 2253 4666 
z
" transform="scale(0.015625)"/>
       </defs>
       <use xlink:href="#DejaVuSans-34"/>
       <use xlink:href="#DejaVuSans-30" x="63.623047"/>
      </g>
     </g>
    </g>
    <g id="ytick_5">
     <g id="line2d_16">
      <path d="M 350.95709 181.56 
C 350.95709 165.728588 347.838647 150.051116 341.780228 135.424799 
C 335.721809 120.798481 326.841235 107.507763 315.646736 96.313264 
C 304.452237 85.118765 291.161519 76.238191 276.535201 70.179772 
C 261.908884 64.121353 246.231412 61.00291 230.4 61.00291 
C 214.568588 61.00291 198.891116 64.121353 184.264799 70.179772 
C 169.638481 76.238191 156.347763 85.118765 145.153264 96.313264 
C 133.958765 107.507763 125.078191 120.798481 119.019772 135.424799 
C 112.961353 150.051116 109.84291 165.728588 109.84291 181.56 
C 109.84291 197.391412 112.961353 213.068884 119.019772 227.695201 
C 125.078191 242.321519 133.958765 255.612237 145.153264 266.806736 
C 156.347763 278.001235 169.638481 286.881809 184.264799 292.940228 
C 198.891116 298.998647 214.568588 302.11709 230.4 302.11709 
C 246.231412 302.11709 261.908884 298.998647 276.535201 292.940228 
C 291.161519 286.881809 304.452237 278.001235 315.646736 266.806736 
C 326.841235 255.612237 335.721809 242.321519 341.780228 227.695201 
C 347.838647 213.068884 350.95709 197.391412 350.95709 181.56 
" clip-path="url(#p7c02258677)" style="fill: none; stroke: #ffffff; stroke-width: 0.8; stroke-linecap: square"/>
     </g>
     <g id="text_16">
      <!-- 60 -->
      <g style="fill: #555555" transform="translate(341.780228 133.345111) scale(0.1 -0.1)">
       <defs>
        <path id="DejaVuSans-36" d="M 2113 2584 
Q 1688 2584 1439 2293 
Q 1191 2003 1191 1497 
Q 1191 994 1439 701 
Q 1688 409 2113 409 
Q 2538 409 2786 701 
Q 3034 994 3034 1497 
Q 3034 2003 2786 2293 
Q 2538 2584 2113 2584 
z
M 3366 4563 
L 3366 3988 
Q 3128 4100 2886 4159 
Q 2644 4219 2406 4219 
Q 1781 4219 1451 3797 
Q 1122 3375 1075 2522 
Q 1259 2794 1537 2939 
Q 1816 3084 2150 3084 
Q 2853 3084 3261 2657 
Q 3669 2231 3669 1497 
Q 3669 778 3244 343 
Q 2819 -91 2113 -91 
Q 1303 -91 875 529 
Q 447 1150 447 2328 
Q 447 3434 972 4092 
Q 1497 4750 2381 4750 
Q 2619 4750 2861 4703 
Q 3103 4656 3366 4563 
z
" transform="scale(0.015625)"/>
       </defs>
       <use xlink:href="#DejaVuSans-36"/>
       <use xlink:href="#DejaVuSans-30" x="63.623047"/>
      </g>
     </g>
    </g>
   </g>
   <g id="patch_3">
    <path d="M 344.975963 181.56 
L 257.232353 164.315894 
L 249.174636 140.449281 
L 221.998169 123.123983 
L 148.247236 86.750657 
L 156.985118 160.003446 
L 194.591972 192.074186 
L 186.067984 232.721873 
L 221.998169 239.996017 
L 249.600576 223.603397 
L 263.891882 203.083925 
z
" clip-path="url(#p7c02258677)" style="fill: #e24a33; opacity: 0.25"/>
   </g>
   <g id="patch_4">
    <path d="M 344.975963 181.56 
L 235.588883 178.225307 
L 244.702266 150.242405 
L 219.946162 108.851958 
L 160.264707 100.619557 
L 164.531332 162.219214 
L 192.200784 192.776302 
L 189.640746 228.598687 
L 227.470189 201.937281 
L 252.02069 228.902707 
L 247.71874 192.690078 
z
" clip-path="url(#p7c02258677)" style="fill: #348abd; opacity: 0.25"/>
   </g>
   <g id="patch_5">
    <path d="M 344.975963 181.56 
L 249.740382 169.130691 
L 251.59717 135.144673 
L 219.946162 108.851958 
L 160.264707 100.619557 
L 159.919757 160.865133 
L 198.123909 191.037116 
L 182.938446 236.333553 
L 227.470189 201.937281 
L 246.938451 217.774157 
L 247.71874 192.690078 
z
" clip-path="url(#p7c02258677)" style="fill: #988ed5; opacity: 0.25"/>
   </g>
   <g id="patch_6">
    <path d="M 324.042019 181.56 
L 249.740382 169.130691 
L 254.230359 129.378793 
L 219.946162 108.851958 
L 145.576687 83.668679 
L 159.919757 160.865133 
L 190.994017 193.130641 
L 186.703142 231.988862 
L 227.470189 201.937281 
L 249.369087 223.096507 
L 247.71874 192.690078 
z
" clip-path="url(#p7c02258677)" style="fill: #777777; opacity: 0.25"/>
   </g>
   <g id="patch_7">
    <path d="M 315.070329 181.56 
L 257.232353 164.315894 
L 249.174636 140.449281 
L 219.946162 108.851958 
L 148.247236 86.750657 
L 152.289696 158.624745 
L 188.511524 193.859566 
L 189.49532 228.766517 
L 227.470189 201.937281 
L 249.369087 223.096507 
L 247.71874 192.690078 
z
" clip-path="url(#p7c02258677)" style="fill: #fbc15e; opacity: 0.25"/>
   </g>
   <g id="patch_8">
    <path d="M 350.95709 181.56 
L 257.232353 164.315894 
L 249.174636 140.449281 
L 219.946162 108.851958 
L 148.247236 86.750657 
L 159.919757 160.865133 
L 193.430538 192.415214 
L 188.381773 230.051619 
L 227.470189 201.937281 
L 249.369087 223.096507 
L 247.71874 192.690078 
z
" clip-path="url(#p7c02258677)" style="fill: #8eba42; opacity: 0.25"/>
   </g>
   <g id="patch_9">
    <path d="M 344.975963 181.56 
L 257.232353 164.315894 
L 244.507815 150.668193 
L 219.946162 108.851958 
L 148.247236 86.750657 
L 159.919757 160.865133 
L 194.591972 192.074186 
L 186.005098 232.794449 
L 224.734179 220.966649 
L 252.02069 228.902707 
L 263.891882 203.083925 
z
" clip-path="url(#p7c02258677)" style="fill: #ffb5b8; opacity: 0.25"/>
   </g>
   <g id="line2d_17">
    <path d="M 344.975963 181.56 
L 257.232353 164.315894 
L 249.174636 140.449281 
L 221.998169 123.123983 
L 148.247236 86.750657 
L 156.985118 160.003446 
L 194.591972 192.074186 
L 186.067984 232.721873 
L 221.998169 239.996017 
L 249.600576 223.603397 
L 263.891882 203.083925 
L 344.975963 181.56 
" clip-path="url(#p7c02258677)" style="fill: none; stroke: #e24a33; stroke-width: 2; stroke-linecap: square"/>
    <defs>
     <path id="md3b748314b" d="M 0 3 
C 0.795609 3 1.55874 2.683901 2.12132 2.12132 
C 2.683901 1.55874 3 0.795609 3 0 
C 3 -0.795609 2.683901 -1.55874 2.12132 -2.12132 
C 1.55874 -2.683901 0.795609 -3 0 -3 
C -0.795609 -3 -1.55874 -2.683901 -2.12132 -2.12132 
C -2.683901 -1.55874 -3 -0.795609 -3 0 
C -3 0.795609 -2.683901 1.55874 -2.12132 2.12132 
C -1.55874 2.683901 -0.795609 3 0 3 
z
" style="stroke: #e24a33"/>
    </defs>
    <g clip-path="url(#p7c02258677)">
     <use xlink:href="#md3b748314b" x="344.975963" y="181.56" style="fill: #e24a33; stroke: #e24a33"/>
     <use xlink:href="#md3b748314b" x="257.232353" y="164.315894" style="fill: #e24a33; stroke: #e24a33"/>
     <use xlink:href="#md3b748314b" x="249.174636" y="140.449281" style="fill: #e24a33; stroke: #e24a33"/>
     <use xlink:href="#md3b748314b" x="221.998169" y="123.123983" style="fill: #e24a33; stroke: #e24a33"/>
     <use xlink:href="#md3b748314b" x="148.247236" y="86.750657" style="fill: #e24a33; stroke: #e24a33"/>
     <use xlink:href="#md3b748314b" x="156.985118" y="160.003446" style="fill: #e24a33; stroke: #e24a33"/>
     <use xlink:href="#md3b748314b" x="194.591972" y="192.074186" style="fill: #e24a33; stroke: #e24a33"/>
     <use xlink:href="#md3b748314b" x="186.067984" y="232.721873" style="fill: #e24a33; stroke: #e24a33"/>
     <use xlink:href="#md3b748314b" x="221.998169" y="239.996017" style="fill: #e24a33; stroke: #e24a33"/>
     <use xlink:href="#md3b748314b" x="249.600576" y="223.603397" style="fill: #e24a33; stroke: #e24a33"/>
     <use xlink:href="#md3b748314b" x="263.891882" y="203.083925" style="fill: #e24a33; stroke: #e24a33"/>
     <use xlink:href="#md3b748314b" x="344.975963" y="181.56" style="fill: #e24a33; stroke: #e24a33"/>
    </g>
   </g>
   <g id="line2d_18">
    <path d="M 344.975963 181.56 
L 235.588883 178.225307 
L 244.702266 150.242405 
L 219.946162 108.851958 
L 160.264707 100.619557 
L 164.531332 162.219214 
L 192.200784 192.776302 
L 189.640746 228.598687 
L 227.470189 201.937281 
L 252.02069 228.902707 
L 247.71874 192.690078 
L 344.975963 181.56 
" clip-path="url(#p7c02258677)" style="fill: none; stroke: #348abd; stroke-width: 2; stroke-linecap: square"/>
    <defs>
     <path id="m4422dae90c" d="M 0 3 
C 0.795609 3 1.55874 2.683901 2.12132 2.12132 
C 2.683901 1.55874 3 0.795609 3 0 
C 3 -0.795609 2.683901 -1.55874 2.12132 -2.12132 
C 1.55874 -2.683901 0.795609 -3 0 -3 
C -0.795609 -3 -1.55874 -2.683901 -2.12132 -2.12132 
C -2.683901 -1.55874 -3 -0.795609 -3 0 
C -3 0.795609 -2.683901 1.55874 -2.12132 2.12132 
C -1.55874 2.683901 -0.795609 3 0 3 
z
" style="stroke: #348abd"/>
    </defs>
    <g clip-path="url(#p7c02258677)">
     <use xlink:href="#m4422dae90c" x="344.975963" y="181.56" style="fill: #348abd; stroke: #348abd"/>
     <use xlink:href="#m4422dae90c" x="235.588883" y="178.225307" style="fill: #348abd; stroke: #348abd"/>
     <use xlink:href="#m4422dae90c" x="244.702266" y="150.242405" style="fill: #348abd; stroke: #348abd"/>
     <use xlink:href="#m4422dae90c" x="219.946162" y="108.851958" style="fill: #348abd; stroke: #348abd"/>
     <use xlink:href="#m4422dae90c" x="160.264707" y="100.619557" style="fill: #348abd; stroke: #348abd"/>
     <use xlink:href="#m4422dae90c" x="164.531332" y="162.219214" style="fill: #348abd; stroke: #348abd"/>
     <use xlink:href="#m4422dae90c" x="192.200784" y="192.776302" style="fill: #348abd; stroke: #348abd"/>
     <use xlink:href="#m4422dae90c" x="189.640746" y="228.598687" style="fill: #348abd; stroke: #348abd"/>
     <use xlink:href="#m4422dae90c" x="227.470189" y="201.937281" style="fill: #348abd; stroke: #348abd"/>
     <use xlink:href="#m4422dae90c" x="252.02069" y="228.902707" style="fill: #348abd; stroke: #348abd"/>
     <use xlink:href="#m4422dae90c" x="247.71874" y="192.690078" style="fill: #348abd; stroke: #348abd"/>
     <use xlink:href="#m4422dae90c" x="344.975963" y="181.56" style="fill: #348abd; stroke: #348abd"/>
    </g>
   </g>
   <g id="line2d_19">
    <path d="M 344.975963 181.56 
L 249.740382 169.130691 
L 251.59717 135.144673 
L 219.946162 108.851958 
L 160.264707 100.619557 
L 159.919757 160.865133 
L 198.123909 191.037116 
L 182.938446 236.333553 
L 227.470189 201.937281 
L 246.938451 217.774157 
L 247.71874 192.690078 
L 344.975963 181.56 
" clip-path="url(#p7c02258677)" style="fill: none; stroke: #988ed5; stroke-width: 2; stroke-linecap: square"/>
    <defs>
     <path id="m4848a556f6" d="M 0 3 
C 0.795609 3 1.55874 2.683901 2.12132 2.12132 
C 2.683901 1.55874 3 0.795609 3 0 
C 3 -0.795609 2.683901 -1.55874 2.12132 -2.12132 
C 1.55874 -2.683901 0.795609 -3 0 -3 
C -0.795609 -3 -1.55874 -2.683901 -2.12132 -2.12132 
C -2.683901 -1.55874 -3 -0.795609 -3 0 
C -3 0.795609 -2.683901 1.55874 -2.12132 2.12132 
C -1.55874 2.683901 -0.795609 3 0 3 
z
" style="stroke: #988ed5"/>
    </defs>
    <g clip-path="url(#p7c02258677)">
     <use xlink:href="#m4848a556f6" x="344.975963" y="181.56" style="fill: #988ed5; stroke: #988ed5"/>
     <use xlink:href="#m4848a556f6" x="249.740382" y="169.130691" style="fill: #988ed5; stroke: #988ed5"/>
     <use xlink:href="#m4848a556f6" x="251.59717" y="135.144673" style="fill: #988ed5; stroke: #988ed5"/>
     <use xlink:href="#m4848a556f6" x="219.946162" y="108.851958" style="fill: #988ed5; stroke: #988ed5"/>
     <use xlink:href="#m4848a556f6" x="160.264707" y="100.619557" style="fill: #988ed5; stroke: #988ed5"/>
     <use xlink:href="#m4848a556f6" x="159.919757" y="160.865133" style="fill: #988ed5; stroke: #988ed5"/>
     <use xlink:href="#m4848a556f6" x="198.123909" y="191.037116" style="fill: #988ed5; stroke: #988ed5"/>
     <use xlink:href="#m4848a556f6" x="182.938446" y="236.333553" style="fill: #988ed5; stroke: #988ed5"/>
     <use xlink:href="#m4848a556f6" x="227.470189" y="201.937281" style="fill: #988ed5; stroke: #988ed5"/>
     <use xlink:href="#m4848a556f6" x="246.938451" y="217.774157" style="fill: #988ed5; stroke: #988ed5"/>
     <use xlink:href="#m4848a556f6" x="247.71874" y="192.690078" style="fill: #988ed5; stroke: #988ed5"/>
     <use xlink:href="#m4848a556f6" x="344.975963" y="181.56" style="fill: #988ed5; stroke: #988ed5"/>
    </g>
   </g>
   <g id="line2d_20">
    <path d="M 324.042019 181.56 
L 249.740382 169.130691 
L 254.230359 129.378793 
L 219.946162 108.851958 
L 145.576687 83.668679 
L 159.919757 160.865133 
L 190.994017 193.130641 
L 186.703142 231.988862 
L 227.470189 201.937281 
L 249.369087 223.096507 
L 247.71874 192.690078 
L 324.042019 181.56 
" clip-path="url(#p7c02258677)" style="fill: none; stroke: #777777; stroke-width: 2; stroke-linecap: square"/>
    <defs>
     <path id="m9aa615c243" d="M 0 3 
C 0.795609 3 1.55874 2.683901 2.12132 2.12132 
C 2.683901 1.55874 3 0.795609 3 0 
C 3 -0.795609 2.683901 -1.55874 2.12132 -2.12132 
C 1.55874 -2.683901 0.795609 -3 0 -3 
C -0.795609 -3 -1.55874 -2.683901 -2.12132 -2.12132 
C -2.683901 -1.55874 -3 -0.795609 -3 0 
C -3 0.795609 -2.683901 1.55874 -2.12132 2.12132 
C -1.55874 2.683901 -0.795609 3 0 3 
z
" style="stroke: #777777"/>
    </defs>
    <g clip-path="url(#p7c02258677)">
     <use xlink:href="#m9aa615c243" x="324.042019" y="181.56" style="fill: #777777; stroke: #777777"/>
     <use xlink:href="#m9aa615c243" x="249.740382" y="169.130691" style="fill: #777777; stroke: #777777"/>
     <use xlink:href="#m9aa615c243" x="254.230359" y="129.378793" style="fill: #777777; stroke: #777777"/>
     <use xlink:href="#m9aa615c243" x="219.946162" y="108.851958" style="fill: #777777; stroke: #777777"/>
     <use xlink:href="#m9aa615c243" x="145.576687" y="83.668679" style="fill: #777777; stroke: #777777"/>
     <use xlink:href="#m9aa615c243" x="159.919757" y="160.865133" style="fill: #777777; stroke: #777777"/>
     <use xlink:href="#m9aa615c243" x="190.994017" y="193.130641" style="fill: #777777; stroke: #777777"/>
     <use xlink:href="#m9aa615c243" x="186.703142" y="231.988862" style="fill: #777777; stroke: #777777"/>
     <use xlink:href="#m9aa615c243" x="227.470189" y="201.937281" style="fill: #777777; stroke: #777777"/>
     <use xlink:href="#m9aa615c243" x="249.369087" y="223.096507" style="fill: #777777; stroke: #777777"/>
     <use xlink:href="#m9aa615c243" x="247.71874" y="192.690078" style="fill: #777777; stroke: #777777"/>
     <use xlink:href="#m9aa615c243" x="324.042019" y="181.56" style="fill: #777777; stroke: #777777"/>
    </g>
   </g>
   <g id="line2d_21">
    <path d="M 315.070329 181.56 
L 257.232353 164.315894 
L 249.174636 140.449281 
L 219.946162 108.851958 
L 148.247236 86.750657 
L 152.289696 158.624745 
L 188.511524 193.859566 
L 189.49532 228.766517 
L 227.470189 201.937281 
L 249.369087 223.096507 
L 247.71874 192.690078 
L 315.070329 181.56 
" clip-path="url(#p7c02258677)" style="fill: none; stroke: #fbc15e; stroke-width: 2; stroke-linecap: square"/>
    <defs>
     <path id="m1787dc4e79" d="M 0 3 
C 0.795609 3 1.55874 2.683901 2.12132 2.12132 
C 2.683901 1.55874 3 0.795609 3 0 
C 3 -0.795609 2.683901 -1.55874 2.12132 -2.12132 
C 1.55874 -2.683901 0.795609 -3 0 -3 
C -0.795609 -3 -1.55874 -2.683901 -2.12132 -2.12132 
C -2.683901 -1.55874 -3 -0.795609 -3 0 
C -3 0.795609 -2.683901 1.55874 -2.12132 2.12132 
C -1.55874 2.683901 -0.795609 3 0 3 
z
" style="stroke: #fbc15e"/>
    </defs>
    <g clip-path="url(#p7c02258677)">
     <use xlink:href="#m1787dc4e79" x="315.070329" y="181.56" style="fill: #fbc15e; stroke: #fbc15e"/>
     <use xlink:href="#m1787dc4e79" x="257.232353" y="164.315894" style="fill: #fbc15e; stroke: #fbc15e"/>
     <use xlink:href="#m1787dc4e79" x="249.174636" y="140.449281" style="fill: #fbc15e; stroke: #fbc15e"/>
     <use xlink:href="#m1787dc4e79" x="219.946162" y="108.851958" style="fill: #fbc15e; stroke: #fbc15e"/>
     <use xlink:href="#m1787dc4e79" x="148.247236" y="86.750657" style="fill: #fbc15e; stroke: #fbc15e"/>
     <use xlink:href="#m1787dc4e79" x="152.289696" y="158.624745" style="fill: #fbc15e; stroke: #fbc15e"/>
     <use xlink:href="#m1787dc4e79" x="188.511524" y="193.859566" style="fill: #fbc15e; stroke: #fbc15e"/>
     <use xlink:href="#m1787dc4e79" x="189.49532" y="228.766517" style="fill: #fbc15e; stroke: #fbc15e"/>
     <use xlink:href="#m1787dc4e79" x="227.470189" y="201.937281" style="fill: #fbc15e; stroke: #fbc15e"/>
     <use xlink:href="#m1787dc4e79" x="249.369087" y="223.096507" style="fill: #fbc15e; stroke: #fbc15e"/>
     <use xlink:href="#m1787dc4e79" x="247.71874" y="192.690078" style="fill: #fbc15e; stroke: #fbc15e"/>
     <use xlink:href="#m1787dc4e79" x="315.070329" y="181.56" style="fill: #fbc15e; stroke: #fbc15e"/>
    </g>
   </g>
   <g id="line2d_22">
    <path d="M 350.95709 181.56 
L 257.232353 164.315894 
L 249.174636 140.449281 
L 219.946162 108.851958 
L 148.247236 86.750657 
L 159.919757 160.865133 
L 193.430538 192.415214 
L 188.381773 230.051619 
L 227.470189 201.937281 
L 249.369087 223.096507 
L 247.71874 192.690078 
L 350.95709 181.56 
" clip-path="url(#p7c02258677)" style="fill: none; stroke: #8eba42; stroke-width: 2; stroke-linecap: square"/>
    <defs>
     <path id="mb161196914" d="M 0 3 
C 0.795609 3 1.55874 2.683901 2.12132 2.12132 
C 2.683901 1.55874 3 0.795609 3 0 
C 3 -0.795609 2.683901 -1.55874 2.12132 -2.12132 
C 1.55874 -2.683901 0.795609 -3 0 -3 
C -0.795609 -3 -1.55874 -2.683901 -2.12132 -2.12132 
C -2.683901 -1.55874 -3 -0.795609 -3 0 
C -3 0.795609 -2.683901 1.55874 -2.12132 2.12132 
C -1.55874 2.683901 -0.795609 3 0 3 
z
" style="stroke: #8eba42"/>
    </defs>
    <g clip-path="url(#p7c02258677)">
     <use xlink:href="#mb161196914" x="350.95709" y="181.56" style="fill: #8eba42; stroke: #8eba42"/>
     <use xlink:href="#mb161196914" x="257.232353" y="164.315894" style="fill: #8eba42; stroke: #8eba42"/>
     <use xlink:href="#mb161196914" x="249.174636" y="140.449281" style="fill: #8eba42; stroke: #8eba42"/>
     <use xlink:href="#mb161196914" x="219.946162" y="108.851958" style="fill: #8eba42; stroke: #8eba42"/>
     <use xlink:href="#mb161196914" x="148.247236" y="86.750657" style="fill: #8eba42; stroke: #8eba42"/>
     <use xlink:href="#mb161196914" x="159.919757" y="160.865133" style="fill: #8eba42; stroke: #8eba42"/>
     <use xlink:href="#mb161196914" x="193.430538" y="192.415214" style="fill: #8eba42; stroke: #8eba42"/>
     <use xlink:href="#mb161196914" x="188.381773" y="230.051619" style="fill: #8eba42; stroke: #8eba42"/>
     <use xlink:href="#mb161196914" x="227.470189" y="201.937281" style="fill: #8eba42; stroke: #8eba42"/>
     <use xlink:href="#mb161196914" x="249.369087" y="223.096507" style="fill: #8eba42; stroke: #8eba42"/>
     <use xlink:href="#mb161196914" x="247.71874" y="192.690078" style="fill: #8eba42; stroke: #8eba42"/>
     <use xlink:href="#mb161196914" x="350.95709" y="181.56" style="fill: #8eba42; stroke: #8eba42"/>
    </g>
   </g>
   <g id="line2d_23">
    <path d="M 344.975963 181.56 
L 257.232353 164.315894 
L 244.507815 150.668193 
L 219.946162 108.851958 
L 148.247236 86.750657 
L 159.919757 160.865133 
L 194.591972 192.074186 
L 186.005098 232.794449 
L 224.734179 220.966649 
L 252.02069 228.902707 
L 263.891882 203.083925 
L 344.975963 181.56 
" clip-path="url(#p7c02258677)" style="fill: none; stroke: #ffb5b8; stroke-width: 2; stroke-linecap: square"/>
    <defs>
     <path id="m965484a928" d="M 0 3 
C 0.795609 3 1.55874 2.683901 2.12132 2.12132 
C 2.683901 1.55874 3 0.795609 3 0 
C 3 -0.795609 2.683901 -1.55874 2.12132 -2.12132 
C 1.55874 -2.683901 0.795609 -3 0 -3 
C -0.795609 -3 -1.55874 -2.683901 -2.12132 -2.12132 
C -2.683901 -1.55874 -3 -0.795609 -3 0 
C -3 0.795609 -2.683901 1.55874 -2.12132 2.12132 
C -1.55874 2.683901 -0.795609 3 0 3 
z
" style="stroke: #ffb5b8"/>
    </defs>
    <g clip-path="url(#p7c02258677)">
     <use xlink:href="#m965484a928" x="344.975963" y="181.56" style="fill: #ffb5b8; stroke: #ffb5b8"/>
     <use xlink:href="#m965484a928" x="257.232353" y="164.315894" style="fill: #ffb5b8; stroke: #ffb5b8"/>
     <use xlink:href="#m965484a928" x="244.507815" y="150.668193" style="fill: #ffb5b8; stroke: #ffb5b8"/>
     <use xlink:href="#m965484a928" x="219.946162" y="108.851958" style="fill: #ffb5b8; stroke: #ffb5b8"/>
     <use xlink:href="#m965484a928" x="148.247236" y="86.750657" style="fill: #ffb5b8; stroke: #ffb5b8"/>
     <use xlink:href="#m965484a928" x="159.919757" y="160.865133" style="fill: #ffb5b8; stroke: #ffb5b8"/>
     <use xlink:href="#m965484a928" x="194.591972" y="192.074186" style="fill: #ffb5b8; stroke: #ffb5b8"/>
     <use xlink:href="#m965484a928" x="186.005098" y="232.794449" style="fill: #ffb5b8; stroke: #ffb5b8"/>
     <use xlink:href="#m965484a928" x="224.734179" y="220.966649" style="fill: #ffb5b8; stroke: #ffb5b8"/>
     <use xlink:href="#m965484a928" x="252.02069" y="228.902707" style="fill: #ffb5b8; stroke: #ffb5b8"/>
     <use xlink:href="#m965484a928" x="263.891882" y="203.083925" style="fill: #ffb5b8; stroke: #ffb5b8"/>
     <use xlink:href="#m965484a928" x="344.975963" y="181.56" style="fill: #ffb5b8; stroke: #ffb5b8"/>
    </g>
   </g>
   <g id="patch_10">
    <path d="M 366.096818 181.56 
C 366.096818 163.740457 362.586757 146.094187 355.767513 129.631076 
C 348.948269 113.167965 338.95246 98.208179 326.35214 85.60786 
C 313.751821 73.00754 298.792035 63.011731 282.328924 56.192487 
C 265.865813 49.373243 248.219543 45.863182 230.4 45.863182 
C 212.580457 45.863182 194.934187 49.373243 178.471076 56.192487 
C 162.007965 63.011731 147.048179 73.00754 134.44786 85.60786 
C 121.84754 98.208179 111.851731 113.167965 105.032487 129.631076 
C 98.213243 146.094187 94.703182 163.740457 94.703182 181.56 
C 94.703182 199.379543 98.213243 217.025813 105.032487 233.488924 
C 111.851731 249.952035 121.84754 264.911821 134.44786 277.51214 
C 147.048179 290.11246 162.007965 300.108269 178.471076 306.927513 
C 194.934187 313.746757 212.580457 317.256818 230.4 317.256818 
C 248.219543 317.256818 265.865813 313.746757 282.328924 306.927513 
C 298.792035 300.108269 313.751821 290.11246 326.35214 277.51214 
C 338.95246 264.911821 348.948269 249.952035 355.767513 233.488924 
C 362.586757 217.025813 366.096818 199.379543 366.096818 181.56 
" style="fill: none; stroke: #ffffff; stroke-linejoin: miter; stroke-linecap: square"/>
   </g>
   <g id="text_17">
    <!-- gpt4o disambig bias -->
    <g transform="translate(149.12125 22.547817) scale(0.16 -0.16)">
     <defs>
      <path id="DejaVuSans-20" transform="scale(0.015625)"/>
      <path id="DejaVuSans-6d" d="M 3328 2828 
Q 3544 3216 3844 3400 
Q 4144 3584 4550 3584 
Q 5097 3584 5394 3201 
Q 5691 2819 5691 2113 
L 5691 0 
L 5113 0 
L 5113 2094 
Q 5113 2597 4934 2840 
Q 4756 3084 4391 3084 
Q 3944 3084 3684 2787 
Q 3425 2491 3425 1978 
L 3425 0 
L 2847 0 
L 2847 2094 
Q 2847 2600 2669 2842 
Q 2491 3084 2119 3084 
Q 1678 3084 1418 2786 
Q 1159 2488 1159 1978 
L 1159 0 
L 581 0 
L 581 3500 
L 1159 3500 
L 1159 2956 
Q 1356 3278 1631 3431 
Q 1906 3584 2284 3584 
Q 2666 3584 2933 3390 
Q 3200 3197 3328 2828 
z
" transform="scale(0.015625)"/>
     </defs>
     <use xlink:href="#DejaVuSans-67"/>
     <use xlink:href="#DejaVuSans-70" x="63.476562"/>
     <use xlink:href="#DejaVuSans-74" x="126.953125"/>
     <use xlink:href="#DejaVuSans-34" x="166.162109"/>
     <use xlink:href="#DejaVuSans-6f" x="229.785156"/>
     <use xlink:href="#DejaVuSans-20" x="290.966797"/>
     <use xlink:href="#DejaVuSans-64" x="322.753906"/>
     <use xlink:href="#DejaVuSans-69" x="386.230469"/>
     <use xlink:href="#DejaVuSans-73" x="414.013672"/>
     <use xlink:href="#DejaVuSans-61" x="466.113281"/>
     <use xlink:href="#DejaVuSans-6d" x="527.392578"/>
     <use xlink:href="#DejaVuSans-62" x="624.804688"/>
     <use xlink:href="#DejaVuSans-69" x="688.28125"/>
     <use xlink:href="#DejaVuSans-67" x="716.064453"/>
     <use xlink:href="#DejaVuSans-20" x="779.541016"/>
     <use xlink:href="#DejaVuSans-62" x="811.328125"/>
     <use xlink:href="#DejaVuSans-69" x="874.804688"/>
     <use xlink:href="#DejaVuSans-61" x="902.587891"/>
     <use xlink:href="#DejaVuSans-73" x="963.867188"/>
    </g>
   </g>
   <g id="legend_1">
    <g id="patch_11">
     <path d="M 289.356193 156.610057 
L 359.096818 156.610057 
Q 361.096818 156.610057 361.096818 154.610057 
L 361.096818 52.863182 
Q 361.096818 50.863182 359.096818 50.863182 
L 289.356193 50.863182 
Q 287.356193 50.863182 287.356193 52.863182 
L 287.356193 154.610057 
Q 287.356193 156.610057 289.356193 156.610057 
z
" style="fill: #e5e5e5; opacity: 0.8; stroke: #cccccc; stroke-width: 0.5; stroke-linejoin: miter"/>
    </g>
    <g id="line2d_24">
     <path d="M 291.356193 58.961619 
L 301.356193 58.961619 
L 311.356193 58.961619 
" style="fill: none; stroke: #e24a33; stroke-width: 2; stroke-linecap: square"/>
     <g>
      <use xlink:href="#md3b748314b" x="301.356193" y="58.961619" style="fill: #e24a33; stroke: #e24a33"/>
     </g>
    </g>
    <g id="text_18">
     <!-- No RAG -->
     <g transform="translate(319.356193 62.461619) scale(0.1 -0.1)">
      <use xlink:href="#DejaVuSans-4e"/>
      <use xlink:href="#DejaVuSans-6f" x="74.804688"/>
      <use xlink:href="#DejaVuSans-20" x="135.986328"/>
      <use xlink:href="#DejaVuSans-52" x="167.773438"/>
      <use xlink:href="#DejaVuSans-41" x="233.255859"/>
      <use xlink:href="#DejaVuSans-47" x="299.914062"/>
     </g>
    </g>
    <g id="line2d_25">
     <path d="M 291.356193 73.639744 
L 301.356193 73.639744 
L 311.356193 73.639744 
" style="fill: none; stroke: #348abd; stroke-width: 2; stroke-linecap: square"/>
     <g>
      <use xlink:href="#m4422dae90c" x="301.356193" y="73.639744" style="fill: #348abd; stroke: #348abd"/>
     </g>
    </g>
    <g id="text_19">
     <!-- 0.0 -->
     <g transform="translate(319.356193 77.139744) scale(0.1 -0.1)">
      <defs>
       <path id="DejaVuSans-2e" d="M 684 794 
L 1344 794 
L 1344 0 
L 684 0 
L 684 794 
z
" transform="scale(0.015625)"/>
      </defs>
      <use xlink:href="#DejaVuSans-30"/>
      <use xlink:href="#DejaVuSans-2e" x="63.623047"/>
      <use xlink:href="#DejaVuSans-30" x="95.410156"/>
     </g>
    </g>
    <g id="line2d_26">
     <path d="M 291.356193 88.317869 
L 301.356193 88.317869 
L 311.356193 88.317869 
" style="fill: none; stroke: #988ed5; stroke-width: 2; stroke-linecap: square"/>
     <g>
      <use xlink:href="#m4848a556f6" x="301.356193" y="88.317869" style="fill: #988ed5; stroke: #988ed5"/>
     </g>
    </g>
    <g id="text_20">
     <!-- 0.2 -->
     <g transform="translate(319.356193 91.817869) scale(0.1 -0.1)">
      <use xlink:href="#DejaVuSans-30"/>
      <use xlink:href="#DejaVuSans-2e" x="63.623047"/>
      <use xlink:href="#DejaVuSans-32" x="95.410156"/>
     </g>
    </g>
    <g id="line2d_27">
     <path d="M 291.356193 102.995994 
L 301.356193 102.995994 
L 311.356193 102.995994 
" style="fill: none; stroke: #777777; stroke-width: 2; stroke-linecap: square"/>
     <g>
      <use xlink:href="#m9aa615c243" x="301.356193" y="102.995994" style="fill: #777777; stroke: #777777"/>
     </g>
    </g>
    <g id="text_21">
     <!-- 0.4 -->
     <g transform="translate(319.356193 106.495994) scale(0.1 -0.1)">
      <use xlink:href="#DejaVuSans-30"/>
      <use xlink:href="#DejaVuSans-2e" x="63.623047"/>
      <use xlink:href="#DejaVuSans-34" x="95.410156"/>
     </g>
    </g>
    <g id="line2d_28">
     <path d="M 291.356193 117.674119 
L 301.356193 117.674119 
L 311.356193 117.674119 
" style="fill: none; stroke: #fbc15e; stroke-width: 2; stroke-linecap: square"/>
     <g>
      <use xlink:href="#m1787dc4e79" x="301.356193" y="117.674119" style="fill: #fbc15e; stroke: #fbc15e"/>
     </g>
    </g>
    <g id="text_22">
     <!-- 0.6 -->
     <g transform="translate(319.356193 121.174119) scale(0.1 -0.1)">
      <use xlink:href="#DejaVuSans-30"/>
      <use xlink:href="#DejaVuSans-2e" x="63.623047"/>
      <use xlink:href="#DejaVuSans-36" x="95.410156"/>
     </g>
    </g>
    <g id="line2d_29">
     <path d="M 291.356193 132.352244 
L 301.356193 132.352244 
L 311.356193 132.352244 
" style="fill: none; stroke: #8eba42; stroke-width: 2; stroke-linecap: square"/>
     <g>
      <use xlink:href="#mb161196914" x="301.356193" y="132.352244" style="fill: #8eba42; stroke: #8eba42"/>
     </g>
    </g>
    <g id="text_23">
     <!-- 0.8 -->
     <g transform="translate(319.356193 135.852244) scale(0.1 -0.1)">
      <defs>
       <path id="DejaVuSans-38" d="M 2034 2216 
Q 1584 2216 1326 1975 
Q 1069 1734 1069 1313 
Q 1069 891 1326 650 
Q 1584 409 2034 409 
Q 2484 409 2743 651 
Q 3003 894 3003 1313 
Q 3003 1734 2745 1975 
Q 2488 2216 2034 2216 
z
M 1403 2484 
Q 997 2584 770 2862 
Q 544 3141 544 3541 
Q 544 4100 942 4425 
Q 1341 4750 2034 4750 
Q 2731 4750 3128 4425 
Q 3525 4100 3525 3541 
Q 3525 3141 3298 2862 
Q 3072 2584 2669 2484 
Q 3125 2378 3379 2068 
Q 3634 1759 3634 1313 
Q 3634 634 3220 271 
Q 2806 -91 2034 -91 
Q 1263 -91 848 271 
Q 434 634 434 1313 
Q 434 1759 690 2068 
Q 947 2378 1403 2484 
z
M 1172 3481 
Q 1172 3119 1398 2916 
Q 1625 2713 2034 2713 
Q 2441 2713 2670 2916 
Q 2900 3119 2900 3481 
Q 2900 3844 2670 4047 
Q 2441 4250 2034 4250 
Q 1625 4250 1398 4047 
Q 1172 3844 1172 3481 
z
" transform="scale(0.015625)"/>
      </defs>
      <use xlink:href="#DejaVuSans-30"/>
      <use xlink:href="#DejaVuSans-2e" x="63.623047"/>
      <use xlink:href="#DejaVuSans-38" x="95.410156"/>
     </g>
    </g>
    <g id="line2d_30">
     <path d="M 291.356193 147.030369 
L 301.356193 147.030369 
L 311.356193 147.030369 
" style="fill: none; stroke: #ffb5b8; stroke-width: 2; stroke-linecap: square"/>
     <g>
      <use xlink:href="#m965484a928" x="301.356193" y="147.030369" style="fill: #ffb5b8; stroke: #ffb5b8"/>
     </g>
    </g>
    <g id="text_24">
     <!-- 1.0 -->
     <g transform="translate(319.356193 150.530369) scale(0.1 -0.1)">
      <defs>
       <path id="DejaVuSans-31" d="M 794 531 
L 1825 531 
L 1825 4091 
L 703 3866 
L 703 4441 
L 1819 4666 
L 2450 4666 
L 2450 531 
L 3481 531 
L 3481 0 
L 794 0 
L 794 531 
z
" transform="scale(0.015625)"/>
      </defs>
      <use xlink:href="#DejaVuSans-31"/>
      <use xlink:href="#DejaVuSans-2e" x="63.623047"/>
      <use xlink:href="#DejaVuSans-30" x="95.410156"/>
     </g>
    </g>
   </g>
  </g>
 </g>
 <defs>
  <clipPath id="p7c02258677">
   <path d="M 366.096818 181.56 
C 366.096818 163.740457 362.586757 146.094187 355.767513 129.631076 
C 348.948269 113.167965 338.95246 98.208179 326.35214 85.60786 
C 313.751821 73.00754 298.792035 63.011731 282.328924 56.192487 
C 265.865813 49.373243 248.219543 45.863182 230.4 45.863182 
C 212.580457 45.863182 194.934187 49.373243 178.471076 56.192487 
C 162.007965 63.011731 147.048179 73.00754 134.44786 85.60786 
C 121.84754 98.208179 111.851731 113.167965 105.032487 129.631076 
C 98.213243 146.094187 94.703182 163.740457 94.703182 181.56 
C 94.703182 199.379543 98.213243 217.025813 105.032487 233.488924 
C 111.851731 249.952035 121.84754 264.911821 134.44786 277.51214 
C 147.048179 290.11246 162.007965 300.108269 178.471076 306.927513 
C 194.934187 313.746757 212.580457 317.256818 230.4 317.256818 
C 248.219543 317.256818 265.865813 313.746757 282.328924 306.927513 
C 298.792035 300.108269 313.751821 290.11246 326.35214 277.51214 
C 338.95246 264.911821 348.948269 249.952035 355.767513 233.488924 
C 362.586757 217.025813 366.096818 199.379543 366.096818 181.56 
M 230.4 181.56 
C 230.4 181.56 230.4 181.56 230.4 181.56 
C 230.4 181.56 230.4 181.56 230.4 181.56 
C 230.4 181.56 230.4 181.56 230.4 181.56 
C 230.4 181.56 230.4 181.56 230.4 181.56 
C 230.4 181.56 230.4 181.56 230.4 181.56 
C 230.4 181.56 230.4 181.56 230.4 181.56 
C 230.4 181.56 230.4 181.56 230.4 181.56 
C 230.4 181.56 230.4 181.56 230.4 181.56 
C 230.4 181.56 230.4 181.56 230.4 181.56 
C 230.4 181.56 230.4 181.56 230.4 181.56 
C 230.4 181.56 230.4 181.56 230.4 181.56 
C 230.4 181.56 230.4 181.56 230.4 181.56 
C 230.4 181.56 230.4 181.56 230.4 181.56 
C 230.4 181.56 230.4 181.56 230.4 181.56 
C 230.4 181.56 230.4 181.56 230.4 181.56 
C 230.4 181.56 230.4 181.56 230.4 181.56 
z
"/>
  </clipPath>
 </defs>
</svg>
