<?xml version="1.0" encoding="utf-8" standalone="no"?>
<!DOCTYPE svg PUBLIC "-//W3C//DTD SVG 1.1//EN"
  "http://www.w3.org/Graphics/SVG/1.1/DTD/svg11.dtd">
<svg xmlns:xlink="http://www.w3.org/1999/xlink" width="460.8pt" height="345.6pt" viewBox="0 0 460.8 345.6" xmlns="http://www.w3.org/2000/svg" version="1.1">
 <metadata>
  <rdf:RDF xmlns:dc="http://purl.org/dc/elements/1.1/" xmlns:cc="http://creativecommons.org/ns#" xmlns:rdf="http://www.w3.org/1999/02/22-rdf-syntax-ns#">
   <cc:Work>
    <dc:type rdf:resource="http://purl.org/dc/dcmitype/StillImage"/>
    <dc:date>2024-09-24T02:32:43.215789</dc:date>
    <dc:format>image/svg+xml</dc:format>
    <dc:creator>
     <cc:Agent>
      <dc:title>Matplotlib v3.9.1, https://matplotlib.org/</dc:title>
     </cc:Agent>
    </dc:creator>
   </cc:Work>
  </rdf:RDF>
 </metadata>
 <defs>
  <style type="text/css">*{stroke-linejoin: round; stroke-linecap: butt}</style>
 </defs>
 <g id="figure_1">
  <g id="patch_1">
   <path d="M 0 345.6 
L 460.8 345.6 
L 460.8 0 
L 0 0 
z
" style="fill: #ffffff"/>
  </g>
  <g id="axes_1">
   <g id="patch_2">
    <path d="M 372.68033 181.56 
C 372.68033 163.643637 369.151197 145.901487 362.294902 129.348926 
C 355.438606 112.796365 345.388486 97.755297 332.719704 85.086515 
C 320.050922 72.417733 305.009854 62.367613 288.457293 55.511317 
C 271.904732 48.655022 254.162582 45.125889 236.246219 45.125889 
C 218.329856 45.125889 200.587706 48.655022 184.035145 55.511317 
C 167.482584 62.367613 152.441516 72.417733 139.772734 85.086515 
C 127.103952 97.755297 117.053832 112.796365 110.197536 129.348926 
C 103.341241 145.901487 99.812108 163.643637 99.812108 181.56 
C 99.812108 199.476363 103.341241 217.218513 110.197536 233.771074 
C 117.053832 250.323635 127.103952 265.364703 139.772734 278.033485 
C 152.441516 290.702267 167.482584 300.752387 184.035145 307.608683 
C 200.587706 314.464978 218.329856 317.994111 236.246219 317.994111 
C 254.162582 317.994111 271.904732 314.464978 288.457293 307.608683 
C 305.009854 300.752387 320.050922 290.702267 332.719704 278.033485 
C 345.388486 265.364703 355.438606 250.323635 362.294902 233.771074 
C 369.151197 217.218513 372.68033 199.476363 372.68033 181.56 
M 236.246219 181.56 
C 236.246219 181.56 236.246219 181.56 236.246219 181.56 
C 236.246219 181.56 236.246219 181.56 236.246219 181.56 
C 236.246219 181.56 236.246219 181.56 236.246219 181.56 
C 236.246219 181.56 236.246219 181.56 236.246219 181.56 
C 236.246219 181.56 236.246219 181.56 236.246219 181.56 
C 236.246219 181.56 236.246219 181.56 236.246219 181.56 
C 236.246219 181.56 236.246219 181.56 236.246219 181.56 
C 236.246219 181.56 236.246219 181.56 236.246219 181.56 
C 236.246219 181.56 236.246219 181.56 236.246219 181.56 
C 236.246219 181.56 236.246219 181.56 236.246219 181.56 
C 236.246219 181.56 236.246219 181.56 236.246219 181.56 
C 236.246219 181.56 236.246219 181.56 236.246219 181.56 
C 236.246219 181.56 236.246219 181.56 236.246219 181.56 
C 236.246219 181.56 236.246219 181.56 236.246219 181.56 
C 236.246219 181.56 236.246219 181.56 236.246219 181.56 
C 236.246219 181.56 236.246219 181.56 236.246219 181.56 
z
" style="fill: #e5e5e5"/>
   </g>
   <g id="matplotlib.axis_1">
    <g id="xtick_1">
     <g id="line2d_1">
      <path d="M 236.246219 181.56 
L 372.68033 181.56 
" clip-path="url(#p31480311d2)" style="fill: none; stroke: #ffffff; stroke-width: 0.8; stroke-linecap: square"/>
     </g>
     <g id="text_1">
      <!-- age -->
      <g style="fill: #555555" transform="translate(377.365486 184.319375) scale(0.1 -0.1)">
       <defs>
        <path id="DejaVuSans-61" d="M 2194 1759 
Q 1497 1759 1228 1600 
Q 959 1441 959 1056 
Q 959 750 1161 570 
Q 1363 391 1709 391 
Q 2188 391 2477 730 
Q 2766 1069 2766 1631 
L 2766 1759 
L 2194 1759 
z
M 3341 1997 
L 3341 0 
L 2766 0 
L 2766 531 
Q 2569 213 2275 61 
Q 1981 -91 1556 -91 
Q 1019 -91 701 211 
Q 384 513 384 1019 
Q 384 1609 779 1909 
Q 1175 2209 1959 2209 
L 2766 2209 
L 2766 2266 
Q 2766 2663 2505 2880 
Q 2244 3097 1772 3097 
Q 1472 3097 1187 3025 
Q 903 2953 641 2809 
L 641 3341 
Q 956 3463 1253 3523 
Q 1550 3584 1831 3584 
Q 2591 3584 2966 3190 
Q 3341 2797 3341 1997 
z
" transform="scale(0.015625)"/>
        <path id="DejaVuSans-67" d="M 2906 1791 
Q 2906 2416 2648 2759 
Q 2391 3103 1925 3103 
Q 1463 3103 1205 2759 
Q 947 2416 947 1791 
Q 947 1169 1205 825 
Q 1463 481 1925 481 
Q 2391 481 2648 825 
Q 2906 1169 2906 1791 
z
M 3481 434 
Q 3481 -459 3084 -895 
Q 2688 -1331 1869 -1331 
Q 1566 -1331 1297 -1286 
Q 1028 -1241 775 -1147 
L 775 -588 
Q 1028 -725 1275 -790 
Q 1522 -856 1778 -856 
Q 2344 -856 2625 -561 
Q 2906 -266 2906 331 
L 2906 616 
Q 2728 306 2450 153 
Q 2172 0 1784 0 
Q 1141 0 747 490 
Q 353 981 353 1791 
Q 353 2603 747 3093 
Q 1141 3584 1784 3584 
Q 2172 3584 2450 3431 
Q 2728 3278 2906 2969 
L 2906 3500 
L 3481 3500 
L 3481 434 
z
" transform="scale(0.015625)"/>
        <path id="DejaVuSans-65" d="M 3597 1894 
L 3597 1613 
L 953 1613 
Q 991 1019 1311 708 
Q 1631 397 2203 397 
Q 2534 397 2845 478 
Q 3156 559 3463 722 
L 3463 178 
Q 3153 47 2828 -22 
Q 2503 -91 2169 -91 
Q 1331 -91 842 396 
Q 353 884 353 1716 
Q 353 2575 817 3079 
Q 1281 3584 2069 3584 
Q 2775 3584 3186 3129 
Q 3597 2675 3597 1894 
z
M 3022 2063 
Q 3016 2534 2758 2815 
Q 2500 3097 2075 3097 
Q 1594 3097 1305 2825 
Q 1016 2553 972 2059 
L 3022 2063 
z
" transform="scale(0.015625)"/>
       </defs>
       <use xlink:href="#DejaVuSans-61"/>
       <use xlink:href="#DejaVuSans-67" x="61.279297"/>
       <use xlink:href="#DejaVuSans-65" x="124.755859"/>
      </g>
     </g>
    </g>
    <g id="xtick_2">
     <g id="line2d_2">
      <path d="M 236.246219 181.56 
L 340.760812 93.861844 
" clip-path="url(#p31480311d2)" style="fill: none; stroke: #ffffff; stroke-width: 0.8; stroke-linecap: square"/>
     </g>
     <g id="text_2">
      <!-- disability -->
      <g style="fill: #555555" transform="translate(328.992465 87.622192) scale(0.1 -0.1)">
       <defs>
        <path id="DejaVuSans-64" d="M 2906 2969 
L 2906 4863 
L 3481 4863 
L 3481 0 
L 2906 0 
L 2906 525 
Q 2725 213 2448 61 
Q 2172 -91 1784 -91 
Q 1150 -91 751 415 
Q 353 922 353 1747 
Q 353 2572 751 3078 
Q 1150 3584 1784 3584 
Q 2172 3584 2448 3432 
Q 2725 3281 2906 2969 
z
M 947 1747 
Q 947 1113 1208 752 
Q 1469 391 1925 391 
Q 2381 391 2643 752 
Q 2906 1113 2906 1747 
Q 2906 2381 2643 2742 
Q 2381 3103 1925 3103 
Q 1469 3103 1208 2742 
Q 947 2381 947 1747 
z
" transform="scale(0.015625)"/>
        <path id="DejaVuSans-69" d="M 603 3500 
L 1178 3500 
L 1178 0 
L 603 0 
L 603 3500 
z
M 603 4863 
L 1178 4863 
L 1178 4134 
L 603 4134 
L 603 4863 
z
" transform="scale(0.015625)"/>
        <path id="DejaVuSans-73" d="M 2834 3397 
L 2834 2853 
Q 2591 2978 2328 3040 
Q 2066 3103 1784 3103 
Q 1356 3103 1142 2972 
Q 928 2841 928 2578 
Q 928 2378 1081 2264 
Q 1234 2150 1697 2047 
L 1894 2003 
Q 2506 1872 2764 1633 
Q 3022 1394 3022 966 
Q 3022 478 2636 193 
Q 2250 -91 1575 -91 
Q 1294 -91 989 -36 
Q 684 19 347 128 
L 347 722 
Q 666 556 975 473 
Q 1284 391 1588 391 
Q 1994 391 2212 530 
Q 2431 669 2431 922 
Q 2431 1156 2273 1281 
Q 2116 1406 1581 1522 
L 1381 1569 
Q 847 1681 609 1914 
Q 372 2147 372 2553 
Q 372 3047 722 3315 
Q 1072 3584 1716 3584 
Q 2034 3584 2315 3537 
Q 2597 3491 2834 3397 
z
" transform="scale(0.015625)"/>
        <path id="DejaVuSans-62" d="M 3116 1747 
Q 3116 2381 2855 2742 
Q 2594 3103 2138 3103 
Q 1681 3103 1420 2742 
Q 1159 2381 1159 1747 
Q 1159 1113 1420 752 
Q 1681 391 2138 391 
Q 2594 391 2855 752 
Q 3116 1113 3116 1747 
z
M 1159 2969 
Q 1341 3281 1617 3432 
Q 1894 3584 2278 3584 
Q 2916 3584 3314 3078 
Q 3713 2572 3713 1747 
Q 3713 922 3314 415 
Q 2916 -91 2278 -91 
Q 1894 -91 1617 61 
Q 1341 213 1159 525 
L 1159 0 
L 581 0 
L 581 4863 
L 1159 4863 
L 1159 2969 
z
" transform="scale(0.015625)"/>
        <path id="DejaVuSans-6c" d="M 603 4863 
L 1178 4863 
L 1178 0 
L 603 0 
L 603 4863 
z
" transform="scale(0.015625)"/>
        <path id="DejaVuSans-74" d="M 1172 4494 
L 1172 3500 
L 2356 3500 
L 2356 3053 
L 1172 3053 
L 1172 1153 
Q 1172 725 1289 603 
Q 1406 481 1766 481 
L 2356 481 
L 2356 0 
L 1766 0 
Q 1100 0 847 248 
Q 594 497 594 1153 
L 594 3053 
L 172 3053 
L 172 3500 
L 594 3500 
L 594 4494 
L 1172 4494 
z
" transform="scale(0.015625)"/>
        <path id="DejaVuSans-79" d="M 2059 -325 
Q 1816 -950 1584 -1140 
Q 1353 -1331 966 -1331 
L 506 -1331 
L 506 -850 
L 844 -850 
Q 1081 -850 1212 -737 
Q 1344 -625 1503 -206 
L 1606 56 
L 191 3500 
L 800 3500 
L 1894 763 
L 2988 3500 
L 3597 3500 
L 2059 -325 
z
" transform="scale(0.015625)"/>
       </defs>
       <use xlink:href="#DejaVuSans-64"/>
       <use xlink:href="#DejaVuSans-69" x="63.476562"/>
       <use xlink:href="#DejaVuSans-73" x="91.259766"/>
       <use xlink:href="#DejaVuSans-61" x="143.359375"/>
       <use xlink:href="#DejaVuSans-62" x="204.638672"/>
       <use xlink:href="#DejaVuSans-69" x="268.115234"/>
       <use xlink:href="#DejaVuSans-6c" x="295.898438"/>
       <use xlink:href="#DejaVuSans-69" x="323.681641"/>
       <use xlink:href="#DejaVuSans-74" x="351.464844"/>
       <use xlink:href="#DejaVuSans-79" x="390.673828"/>
      </g>
     </g>
    </g>
    <g id="xtick_3">
     <g id="line2d_3">
      <path d="M 236.246219 181.56 
L 259.937754 47.19863 
" clip-path="url(#p31480311d2)" style="fill: none; stroke: #ffffff; stroke-width: 0.8; stroke-linecap: square"/>
     </g>
     <g id="text_3">
      <!-- gender -->
      <g style="fill: #555555" transform="translate(244.643047 36.170696) scale(0.1 -0.1)">
       <defs>
        <path id="DejaVuSans-6e" d="M 3513 2113 
L 3513 0 
L 2938 0 
L 2938 2094 
Q 2938 2591 2744 2837 
Q 2550 3084 2163 3084 
Q 1697 3084 1428 2787 
Q 1159 2491 1159 1978 
L 1159 0 
L 581 0 
L 581 3500 
L 1159 3500 
L 1159 2956 
Q 1366 3272 1645 3428 
Q 1925 3584 2291 3584 
Q 2894 3584 3203 3211 
Q 3513 2838 3513 2113 
z
" transform="scale(0.015625)"/>
        <path id="DejaVuSans-72" d="M 2631 2963 
Q 2534 3019 2420 3045 
Q 2306 3072 2169 3072 
Q 1681 3072 1420 2755 
Q 1159 2438 1159 1844 
L 1159 0 
L 581 0 
L 581 3500 
L 1159 3500 
L 1159 2956 
Q 1341 3275 1631 3429 
Q 1922 3584 2338 3584 
Q 2397 3584 2469 3576 
Q 2541 3569 2628 3553 
L 2631 2963 
z
" transform="scale(0.015625)"/>
       </defs>
       <use xlink:href="#DejaVuSans-67"/>
       <use xlink:href="#DejaVuSans-65" x="63.476562"/>
       <use xlink:href="#DejaVuSans-6e" x="125"/>
       <use xlink:href="#DejaVuSans-64" x="188.378906"/>
       <use xlink:href="#DejaVuSans-65" x="251.855469"/>
       <use xlink:href="#DejaVuSans-72" x="313.378906"/>
      </g>
     </g>
    </g>
    <g id="xtick_4">
     <g id="line2d_4">
      <path d="M 236.246219 181.56 
L 168.029163 63.404594 
" clip-path="url(#p31480311d2)" style="fill: none; stroke: #ffffff; stroke-width: 0.8; stroke-linecap: square"/>
     </g>
     <g id="text_4">
      <!-- nationality -->
      <g style="fill: #555555" transform="translate(134.457288 54.039613) scale(0.1 -0.1)">
       <defs>
        <path id="DejaVuSans-6f" d="M 1959 3097 
Q 1497 3097 1228 2736 
Q 959 2375 959 1747 
Q 959 1119 1226 758 
Q 1494 397 1959 397 
Q 2419 397 2687 759 
Q 2956 1122 2956 1747 
Q 2956 2369 2687 2733 
Q 2419 3097 1959 3097 
z
M 1959 3584 
Q 2709 3584 3137 3096 
Q 3566 2609 3566 1747 
Q 3566 888 3137 398 
Q 2709 -91 1959 -91 
Q 1206 -91 779 398 
Q 353 888 353 1747 
Q 353 2609 779 3096 
Q 1206 3584 1959 3584 
z
" transform="scale(0.015625)"/>
       </defs>
       <use xlink:href="#DejaVuSans-6e"/>
       <use xlink:href="#DejaVuSans-61" x="63.378906"/>
       <use xlink:href="#DejaVuSans-74" x="124.658203"/>
       <use xlink:href="#DejaVuSans-69" x="163.867188"/>
       <use xlink:href="#DejaVuSans-6f" x="191.650391"/>
       <use xlink:href="#DejaVuSans-6e" x="252.832031"/>
       <use xlink:href="#DejaVuSans-61" x="316.210938"/>
       <use xlink:href="#DejaVuSans-6c" x="377.490234"/>
       <use xlink:href="#DejaVuSans-69" x="405.273438"/>
       <use xlink:href="#DejaVuSans-74" x="433.056641"/>
       <use xlink:href="#DejaVuSans-79" x="472.265625"/>
      </g>
     </g>
    </g>
    <g id="xtick_5">
     <g id="line2d_5">
      <path d="M 236.246219 181.56 
L 108.040092 134.896786 
" clip-path="url(#p31480311d2)" style="fill: none; stroke: #ffffff; stroke-width: 0.8; stroke-linecap: square"/>
     </g>
     <g id="text_5">
      <!-- physical-appearance -->
      <g style="fill: #555555" transform="translate(42.914864 132.867879) scale(0.1 -0.1)">
       <defs>
        <path id="DejaVuSans-70" d="M 1159 525 
L 1159 -1331 
L 581 -1331 
L 581 3500 
L 1159 3500 
L 1159 2969 
Q 1341 3281 1617 3432 
Q 1894 3584 2278 3584 
Q 2916 3584 3314 3078 
Q 3713 2572 3713 1747 
Q 3713 922 3314 415 
Q 2916 -91 2278 -91 
Q 1894 -91 1617 61 
Q 1341 213 1159 525 
z
M 3116 1747 
Q 3116 2381 2855 2742 
Q 2594 3103 2138 3103 
Q 1681 3103 1420 2742 
Q 1159 2381 1159 1747 
Q 1159 1113 1420 752 
Q 1681 391 2138 391 
Q 2594 391 2855 752 
Q 3116 1113 3116 1747 
z
" transform="scale(0.015625)"/>
        <path id="DejaVuSans-68" d="M 3513 2113 
L 3513 0 
L 2938 0 
L 2938 2094 
Q 2938 2591 2744 2837 
Q 2550 3084 2163 3084 
Q 1697 3084 1428 2787 
Q 1159 2491 1159 1978 
L 1159 0 
L 581 0 
L 581 4863 
L 1159 4863 
L 1159 2956 
Q 1366 3272 1645 3428 
Q 1925 3584 2291 3584 
Q 2894 3584 3203 3211 
Q 3513 2838 3513 2113 
z
" transform="scale(0.015625)"/>
        <path id="DejaVuSans-63" d="M 3122 3366 
L 3122 2828 
Q 2878 2963 2633 3030 
Q 2388 3097 2138 3097 
Q 1578 3097 1268 2742 
Q 959 2388 959 1747 
Q 959 1106 1268 751 
Q 1578 397 2138 397 
Q 2388 397 2633 464 
Q 2878 531 3122 666 
L 3122 134 
Q 2881 22 2623 -34 
Q 2366 -91 2075 -91 
Q 1284 -91 818 406 
Q 353 903 353 1747 
Q 353 2603 823 3093 
Q 1294 3584 2113 3584 
Q 2378 3584 2631 3529 
Q 2884 3475 3122 3366 
z
" transform="scale(0.015625)"/>
        <path id="DejaVuSans-2d" d="M 313 2009 
L 1997 2009 
L 1997 1497 
L 313 1497 
L 313 2009 
z
" transform="scale(0.015625)"/>
       </defs>
       <use xlink:href="#DejaVuSans-70"/>
       <use xlink:href="#DejaVuSans-68" x="63.476562"/>
       <use xlink:href="#DejaVuSans-79" x="126.855469"/>
       <use xlink:href="#DejaVuSans-73" x="186.035156"/>
       <use xlink:href="#DejaVuSans-69" x="238.134766"/>
       <use xlink:href="#DejaVuSans-63" x="265.917969"/>
       <use xlink:href="#DejaVuSans-61" x="320.898438"/>
       <use xlink:href="#DejaVuSans-6c" x="382.177734"/>
       <use xlink:href="#DejaVuSans-2d" x="409.960938"/>
       <use xlink:href="#DejaVuSans-61" x="446.044922"/>
       <use xlink:href="#DejaVuSans-70" x="507.324219"/>
       <use xlink:href="#DejaVuSans-70" x="570.800781"/>
       <use xlink:href="#DejaVuSans-65" x="634.277344"/>
       <use xlink:href="#DejaVuSans-61" x="695.800781"/>
       <use xlink:href="#DejaVuSans-72" x="757.080078"/>
       <use xlink:href="#DejaVuSans-61" x="798.193359"/>
       <use xlink:href="#DejaVuSans-6e" x="859.472656"/>
       <use xlink:href="#DejaVuSans-63" x="922.851562"/>
       <use xlink:href="#DejaVuSans-65" x="977.832031"/>
      </g>
     </g>
    </g>
    <g id="xtick_6">
     <g id="line2d_6">
      <path d="M 236.246219 181.56 
L 108.040092 228.223214 
" clip-path="url(#p31480311d2)" style="fill: none; stroke: #ffffff; stroke-width: 0.8; stroke-linecap: square"/>
     </g>
     <g id="text_6">
      <!-- race-color -->
      <g style="fill: #555555" transform="translate(69.822676 235.770871) scale(0.1 -0.1)">
       <use xlink:href="#DejaVuSans-72"/>
       <use xlink:href="#DejaVuSans-61" x="41.113281"/>
       <use xlink:href="#DejaVuSans-63" x="102.392578"/>
       <use xlink:href="#DejaVuSans-65" x="157.373047"/>
       <use xlink:href="#DejaVuSans-2d" x="218.896484"/>
       <use xlink:href="#DejaVuSans-63" x="254.980469"/>
       <use xlink:href="#DejaVuSans-6f" x="309.960938"/>
       <use xlink:href="#DejaVuSans-6c" x="371.142578"/>
       <use xlink:href="#DejaVuSans-6f" x="398.925781"/>
       <use xlink:href="#DejaVuSans-72" x="460.107422"/>
      </g>
     </g>
    </g>
    <g id="xtick_7">
     <g id="line2d_7">
      <path d="M 236.246219 181.56 
L 168.029163 299.715406 
" clip-path="url(#p31480311d2)" style="fill: none; stroke: #ffffff; stroke-width: 0.8; stroke-linecap: square"/>
     </g>
     <g id="text_7">
      <!-- religion -->
      <g style="fill: #555555" transform="translate(142.440101 314.599137) scale(0.1 -0.1)">
       <use xlink:href="#DejaVuSans-72"/>
       <use xlink:href="#DejaVuSans-65" x="38.863281"/>
       <use xlink:href="#DejaVuSans-6c" x="100.386719"/>
       <use xlink:href="#DejaVuSans-69" x="128.169922"/>
       <use xlink:href="#DejaVuSans-67" x="155.953125"/>
       <use xlink:href="#DejaVuSans-69" x="219.429688"/>
       <use xlink:href="#DejaVuSans-6f" x="247.212891"/>
       <use xlink:href="#DejaVuSans-6e" x="308.394531"/>
      </g>
     </g>
    </g>
    <g id="xtick_8">
     <g id="line2d_8">
      <path d="M 236.246219 181.56 
L 259.937754 315.92137 
" clip-path="url(#p31480311d2)" style="fill: none; stroke: #ffffff; stroke-width: 0.8; stroke-linecap: square"/>
     </g>
     <g id="text_8">
      <!-- sexual-orientation -->
      <g style="fill: #555555" transform="translate(216.945391 332.468054) scale(0.1 -0.1)">
       <defs>
        <path id="DejaVuSans-78" d="M 3513 3500 
L 2247 1797 
L 3578 0 
L 2900 0 
L 1881 1375 
L 863 0 
L 184 0 
L 1544 1831 
L 300 3500 
L 978 3500 
L 1906 2253 
L 2834 3500 
L 3513 3500 
z
" transform="scale(0.015625)"/>
        <path id="DejaVuSans-75" d="M 544 1381 
L 544 3500 
L 1119 3500 
L 1119 1403 
Q 1119 906 1312 657 
Q 1506 409 1894 409 
Q 2359 409 2629 706 
Q 2900 1003 2900 1516 
L 2900 3500 
L 3475 3500 
L 3475 0 
L 2900 0 
L 2900 538 
Q 2691 219 2414 64 
Q 2138 -91 1772 -91 
Q 1169 -91 856 284 
Q 544 659 544 1381 
z
M 1991 3584 
L 1991 3584 
z
" transform="scale(0.015625)"/>
       </defs>
       <use xlink:href="#DejaVuSans-73"/>
       <use xlink:href="#DejaVuSans-65" x="52.099609"/>
       <use xlink:href="#DejaVuSans-78" x="111.873047"/>
       <use xlink:href="#DejaVuSans-75" x="171.052734"/>
       <use xlink:href="#DejaVuSans-61" x="234.431641"/>
       <use xlink:href="#DejaVuSans-6c" x="295.710938"/>
       <use xlink:href="#DejaVuSans-2d" x="323.494141"/>
       <use xlink:href="#DejaVuSans-6f" x="361.453125"/>
       <use xlink:href="#DejaVuSans-72" x="422.634766"/>
       <use xlink:href="#DejaVuSans-69" x="463.748047"/>
       <use xlink:href="#DejaVuSans-65" x="491.53125"/>
       <use xlink:href="#DejaVuSans-6e" x="553.054688"/>
       <use xlink:href="#DejaVuSans-74" x="616.433594"/>
       <use xlink:href="#DejaVuSans-61" x="655.642578"/>
       <use xlink:href="#DejaVuSans-74" x="716.921875"/>
       <use xlink:href="#DejaVuSans-69" x="756.130859"/>
       <use xlink:href="#DejaVuSans-6f" x="783.914062"/>
       <use xlink:href="#DejaVuSans-6e" x="845.095703"/>
      </g>
     </g>
    </g>
    <g id="xtick_9">
     <g id="line2d_9">
      <path d="M 236.246219 181.56 
L 340.760812 269.258156 
" clip-path="url(#p31480311d2)" style="fill: none; stroke: #ffffff; stroke-width: 0.8; stroke-linecap: square"/>
     </g>
     <g id="text_9">
      <!-- socioeconomic -->
      <g style="fill: #555555" transform="translate(314.50184 281.016558) scale(0.1 -0.1)">
       <defs>
        <path id="DejaVuSans-6d" d="M 3328 2828 
Q 3544 3216 3844 3400 
Q 4144 3584 4550 3584 
Q 5097 3584 5394 3201 
Q 5691 2819 5691 2113 
L 5691 0 
L 5113 0 
L 5113 2094 
Q 5113 2597 4934 2840 
Q 4756 3084 4391 3084 
Q 3944 3084 3684 2787 
Q 3425 2491 3425 1978 
L 3425 0 
L 2847 0 
L 2847 2094 
Q 2847 2600 2669 2842 
Q 2491 3084 2119 3084 
Q 1678 3084 1418 2786 
Q 1159 2488 1159 1978 
L 1159 0 
L 581 0 
L 581 3500 
L 1159 3500 
L 1159 2956 
Q 1356 3278 1631 3431 
Q 1906 3584 2284 3584 
Q 2666 3584 2933 3390 
Q 3200 3197 3328 2828 
z
" transform="scale(0.015625)"/>
       </defs>
       <use xlink:href="#DejaVuSans-73"/>
       <use xlink:href="#DejaVuSans-6f" x="52.099609"/>
       <use xlink:href="#DejaVuSans-63" x="113.28125"/>
       <use xlink:href="#DejaVuSans-69" x="168.261719"/>
       <use xlink:href="#DejaVuSans-6f" x="196.044922"/>
       <use xlink:href="#DejaVuSans-65" x="257.226562"/>
       <use xlink:href="#DejaVuSans-63" x="318.75"/>
       <use xlink:href="#DejaVuSans-6f" x="373.730469"/>
       <use xlink:href="#DejaVuSans-6e" x="434.912109"/>
       <use xlink:href="#DejaVuSans-6f" x="498.291016"/>
       <use xlink:href="#DejaVuSans-6d" x="559.472656"/>
       <use xlink:href="#DejaVuSans-69" x="656.884766"/>
       <use xlink:href="#DejaVuSans-63" x="684.667969"/>
      </g>
     </g>
    </g>
   </g>
   <g id="matplotlib.axis_2">
    <g id="ytick_1">
     <g id="line2d_10">
      <path d="M 262.824293 181.56 
C 262.824293 178.069799 262.136799 174.613537 260.801157 171.389012 
C 259.465515 168.164487 257.5077 165.234408 255.039755 162.766464 
C 252.571811 160.298519 249.641732 158.340704 246.417207 157.005062 
C 243.192683 155.66942 239.73642 154.981926 236.246219 154.981926 
C 232.756018 154.981926 229.299756 155.66942 226.075231 157.005062 
C 222.850706 158.340704 219.920628 160.298519 217.452683 162.766464 
C 214.984738 165.234408 213.026923 168.164487 211.691281 171.389012 
C 210.355639 174.613537 209.668145 178.069799 209.668145 181.56 
C 209.668145 185.050201 210.355639 188.506463 211.691281 191.730988 
C 213.026923 194.955513 214.984738 197.885592 217.452683 200.353536 
C 219.920628 202.821481 222.850706 204.779296 226.075231 206.114938 
C 229.299756 207.45058 232.756018 208.138074 236.246219 208.138074 
C 239.73642 208.138074 243.192683 207.45058 246.417207 206.114938 
C 249.641732 204.779296 252.571811 202.821481 255.039755 200.353536 
C 257.5077 197.885592 259.465515 194.955513 260.801157 191.730988 
C 262.136799 188.506463 262.824293 185.050201 262.824293 181.56 
" clip-path="url(#p31480311d2)" style="fill: none; stroke: #ffffff; stroke-width: 0.8; stroke-linecap: square"/>
     </g>
     <g id="text_10">
      <!-- 0.2 -->
      <g style="fill: #555555" transform="translate(260.801157 169.309324) scale(0.1 -0.1)">
       <defs>
        <path id="DejaVuSans-30" d="M 2034 4250 
Q 1547 4250 1301 3770 
Q 1056 3291 1056 2328 
Q 1056 1369 1301 889 
Q 1547 409 2034 409 
Q 2525 409 2770 889 
Q 3016 1369 3016 2328 
Q 3016 3291 2770 3770 
Q 2525 4250 2034 4250 
z
M 2034 4750 
Q 2819 4750 3233 4129 
Q 3647 3509 3647 2328 
Q 3647 1150 3233 529 
Q 2819 -91 2034 -91 
Q 1250 -91 836 529 
Q 422 1150 422 2328 
Q 422 3509 836 4129 
Q 1250 4750 2034 4750 
z
" transform="scale(0.015625)"/>
        <path id="DejaVuSans-2e" d="M 684 794 
L 1344 794 
L 1344 0 
L 684 0 
L 684 794 
z
" transform="scale(0.015625)"/>
        <path id="DejaVuSans-32" d="M 1228 531 
L 3431 531 
L 3431 0 
L 469 0 
L 469 531 
Q 828 903 1448 1529 
Q 2069 2156 2228 2338 
Q 2531 2678 2651 2914 
Q 2772 3150 2772 3378 
Q 2772 3750 2511 3984 
Q 2250 4219 1831 4219 
Q 1534 4219 1204 4116 
Q 875 4013 500 3803 
L 500 4441 
Q 881 4594 1212 4672 
Q 1544 4750 1819 4750 
Q 2544 4750 2975 4387 
Q 3406 4025 3406 3419 
Q 3406 3131 3298 2873 
Q 3191 2616 2906 2266 
Q 2828 2175 2409 1742 
Q 1991 1309 1228 531 
z
" transform="scale(0.015625)"/>
       </defs>
       <use xlink:href="#DejaVuSans-30"/>
       <use xlink:href="#DejaVuSans-2e" x="63.623047"/>
       <use xlink:href="#DejaVuSans-32" x="95.410156"/>
      </g>
     </g>
    </g>
    <g id="ytick_2">
     <g id="line2d_11">
      <path d="M 289.402366 181.56 
C 289.402366 174.579599 288.027379 167.667073 285.356095 161.218023 
C 282.684811 154.768973 278.76918 148.908817 273.833291 143.972928 
C 268.897402 139.037039 263.037246 135.121408 256.588196 132.450124 
C 250.139146 129.77884 243.22662 128.403853 236.246219 128.403853 
C 229.265818 128.403853 222.353292 129.77884 215.904242 132.450124 
C 209.455192 135.121408 203.595036 139.037039 198.659147 143.972928 
C 193.723258 148.908817 189.807627 154.768973 187.136343 161.218023 
C 184.465059 167.667073 183.090072 174.579599 183.090072 181.56 
C 183.090072 188.540401 184.465059 195.452927 187.136343 201.901977 
C 189.807627 208.351027 193.723258 214.211183 198.659147 219.147072 
C 203.595036 224.082961 209.455192 227.998592 215.904242 230.669876 
C 222.353292 233.34116 229.265818 234.716147 236.246219 234.716147 
C 243.22662 234.716147 250.139146 233.34116 256.588196 230.669876 
C 263.037246 227.998592 268.897402 224.082961 273.833291 219.147072 
C 278.76918 214.211183 282.684811 208.351027 285.356095 201.901977 
C 288.027379 195.452927 289.402366 188.540401 289.402366 181.56 
" clip-path="url(#p31480311d2)" style="fill: none; stroke: #ffffff; stroke-width: 0.8; stroke-linecap: square"/>
     </g>
     <g id="text_11">
      <!-- 0.4 -->
      <g style="fill: #555555" transform="translate(285.356095 159.138336) scale(0.1 -0.1)">
       <defs>
        <path id="DejaVuSans-34" d="M 2419 4116 
L 825 1625 
L 2419 1625 
L 2419 4116 
z
M 2253 4666 
L 3047 4666 
L 3047 1625 
L 3713 1625 
L 3713 1100 
L 3047 1100 
L 3047 0 
L 2419 0 
L 2419 1100 
L 313 1100 
L 313 1709 
L 2253 4666 
z
" transform="scale(0.015625)"/>
       </defs>
       <use xlink:href="#DejaVuSans-30"/>
       <use xlink:href="#DejaVuSans-2e" x="63.623047"/>
       <use xlink:href="#DejaVuSans-34" x="95.410156"/>
      </g>
     </g>
    </g>
    <g id="ytick_3">
     <g id="line2d_12">
      <path d="M 315.98044 181.56 
C 315.98044 171.089398 313.91796 160.72061 309.911034 151.047035 
C 305.904108 141.37346 300.030661 132.583225 292.626827 125.179392 
C 285.222994 117.775558 276.432759 111.902111 266.759184 107.895185 
C 257.085609 103.88826 246.716821 101.825779 236.246219 101.825779 
C 225.775617 101.825779 215.406829 103.88826 205.733254 107.895185 
C 196.059679 111.902111 187.269444 117.775558 179.865611 125.179392 
C 172.461777 132.583225 166.58833 141.37346 162.581404 151.047035 
C 158.574479 160.72061 156.511998 171.089398 156.511998 181.56 
C 156.511998 192.030602 158.574479 202.39939 162.581404 212.072965 
C 166.58833 221.74654 172.461777 230.536775 179.865611 237.940608 
C 187.269444 245.344442 196.059679 251.217889 205.733254 255.224815 
C 215.406829 259.23174 225.775617 261.294221 236.246219 261.294221 
C 246.716821 261.294221 257.085609 259.23174 266.759184 255.224815 
C 276.432759 251.217889 285.222994 245.344442 292.626827 237.940608 
C 300.030661 230.536775 305.904108 221.74654 309.911034 212.072965 
C 313.91796 202.39939 315.98044 192.030602 315.98044 181.56 
" clip-path="url(#p31480311d2)" style="fill: none; stroke: #ffffff; stroke-width: 0.8; stroke-linecap: square"/>
     </g>
     <g id="text_12">
      <!-- 0.6 -->
      <g style="fill: #555555" transform="translate(309.911034 148.967347) scale(0.1 -0.1)">
       <defs>
        <path id="DejaVuSans-36" d="M 2113 2584 
Q 1688 2584 1439 2293 
Q 1191 2003 1191 1497 
Q 1191 994 1439 701 
Q 1688 409 2113 409 
Q 2538 409 2786 701 
Q 3034 994 3034 1497 
Q 3034 2003 2786 2293 
Q 2538 2584 2113 2584 
z
M 3366 4563 
L 3366 3988 
Q 3128 4100 2886 4159 
Q 2644 4219 2406 4219 
Q 1781 4219 1451 3797 
Q 1122 3375 1075 2522 
Q 1259 2794 1537 2939 
Q 1816 3084 2150 3084 
Q 2853 3084 3261 2657 
Q 3669 2231 3669 1497 
Q 3669 778 3244 343 
Q 2819 -91 2113 -91 
Q 1303 -91 875 529 
Q 447 1150 447 2328 
Q 447 3434 972 4092 
Q 1497 4750 2381 4750 
Q 2619 4750 2861 4703 
Q 3103 4656 3366 4563 
z
" transform="scale(0.015625)"/>
       </defs>
       <use xlink:href="#DejaVuSans-30"/>
       <use xlink:href="#DejaVuSans-2e" x="63.623047"/>
       <use xlink:href="#DejaVuSans-36" x="95.410156"/>
      </g>
     </g>
    </g>
    <g id="ytick_4">
     <g id="line2d_13">
      <path d="M 342.558513 181.56 
C 342.558513 167.599197 339.80854 153.774146 334.465972 140.876046 
C 329.123404 127.977947 321.292141 116.257634 311.420363 106.385856 
C 301.548585 96.514078 289.828272 88.682815 276.930173 83.340247 
C 264.032073 77.997679 250.207022 75.247706 236.246219 75.247706 
C 222.285416 75.247706 208.460365 77.997679 195.562265 83.340247 
C 182.664166 88.682815 170.943853 96.514078 161.072075 106.385856 
C 151.200297 116.257634 143.369034 127.977947 138.026466 140.876046 
C 132.683898 153.774146 129.933925 167.599197 129.933925 181.56 
C 129.933925 195.520803 132.683898 209.345854 138.026466 222.243954 
C 143.369034 235.142053 151.200297 246.862366 161.072075 256.734144 
C 170.943853 266.605922 182.664166 274.437185 195.562265 279.779753 
C 208.460365 285.122321 222.285416 287.872294 236.246219 287.872294 
C 250.207022 287.872294 264.032073 285.122321 276.930173 279.779753 
C 289.828272 274.437185 301.548585 266.605922 311.420363 256.734144 
C 321.292141 246.862366 329.123404 235.142053 334.465972 222.243954 
C 339.80854 209.345854 342.558513 195.520803 342.558513 181.56 
" clip-path="url(#p31480311d2)" style="fill: none; stroke: #ffffff; stroke-width: 0.8; stroke-linecap: square"/>
     </g>
     <g id="text_13">
      <!-- 0.8 -->
      <g style="fill: #555555" transform="translate(334.465972 138.796359) scale(0.1 -0.1)">
       <defs>
        <path id="DejaVuSans-38" d="M 2034 2216 
Q 1584 2216 1326 1975 
Q 1069 1734 1069 1313 
Q 1069 891 1326 650 
Q 1584 409 2034 409 
Q 2484 409 2743 651 
Q 3003 894 3003 1313 
Q 3003 1734 2745 1975 
Q 2488 2216 2034 2216 
z
M 1403 2484 
Q 997 2584 770 2862 
Q 544 3141 544 3541 
Q 544 4100 942 4425 
Q 1341 4750 2034 4750 
Q 2731 4750 3128 4425 
Q 3525 4100 3525 3541 
Q 3525 3141 3298 2862 
Q 3072 2584 2669 2484 
Q 3125 2378 3379 2068 
Q 3634 1759 3634 1313 
Q 3634 634 3220 271 
Q 2806 -91 2034 -91 
Q 1263 -91 848 271 
Q 434 634 434 1313 
Q 434 1759 690 2068 
Q 947 2378 1403 2484 
z
M 1172 3481 
Q 1172 3119 1398 2916 
Q 1625 2713 2034 2713 
Q 2441 2713 2670 2916 
Q 2900 3119 2900 3481 
Q 2900 3844 2670 4047 
Q 2441 4250 2034 4250 
Q 1625 4250 1398 4047 
Q 1172 3844 1172 3481 
z
" transform="scale(0.015625)"/>
       </defs>
       <use xlink:href="#DejaVuSans-30"/>
       <use xlink:href="#DejaVuSans-2e" x="63.623047"/>
       <use xlink:href="#DejaVuSans-38" x="95.410156"/>
      </g>
     </g>
    </g>
    <g id="ytick_5">
     <g id="line2d_14">
      <path d="M 369.136587 181.56 
C 369.136587 164.108997 365.69912 146.827683 359.02091 130.705058 
C 352.3427 114.582433 342.553622 99.932042 330.213899 87.59232 
C 317.874177 75.252597 303.223786 65.463519 287.101161 58.785309 
C 270.978536 52.107099 253.697222 48.669632 236.246219 48.669632 
C 218.795216 48.669632 201.513902 52.107099 185.391277 58.785309 
C 169.268652 65.463519 154.618261 75.252597 142.278539 87.59232 
C 129.938816 99.932042 120.149738 114.582433 113.471528 130.705058 
C 106.793318 146.827683 103.355851 164.108997 103.355851 181.56 
C 103.355851 199.011003 106.793318 216.292317 113.471528 232.414942 
C 120.149738 248.537567 129.938816 263.187958 142.278539 275.52768 
C 154.618261 287.867403 169.268652 297.656481 185.391277 304.334691 
C 201.513902 311.012901 218.795216 314.450368 236.246219 314.450368 
C 253.697222 314.450368 270.978536 311.012901 287.101161 304.334691 
C 303.223786 297.656481 317.874177 287.867403 330.213899 275.52768 
C 342.553622 263.187958 352.3427 248.537567 359.02091 232.414942 
C 365.69912 216.292317 369.136587 199.011003 369.136587 181.56 
" clip-path="url(#p31480311d2)" style="fill: none; stroke: #ffffff; stroke-width: 0.8; stroke-linecap: square"/>
     </g>
     <g id="text_14">
      <!-- 1.0 -->
      <g style="fill: #555555" transform="translate(359.02091 128.62537) scale(0.1 -0.1)">
       <defs>
        <path id="DejaVuSans-31" d="M 794 531 
L 1825 531 
L 1825 4091 
L 703 3866 
L 703 4441 
L 1819 4666 
L 2450 4666 
L 2450 531 
L 3481 531 
L 3481 0 
L 794 0 
L 794 531 
z
" transform="scale(0.015625)"/>
       </defs>
       <use xlink:href="#DejaVuSans-31"/>
       <use xlink:href="#DejaVuSans-2e" x="63.623047"/>
       <use xlink:href="#DejaVuSans-30" x="95.410156"/>
      </g>
     </g>
    </g>
   </g>
   <g id="patch_3">
    <path d="M 309.335921 181.56 
L 317.686161 113.223774 
L 250.979466 98.003603 
L 191.94943 104.83571 
L 161.32056 154.28929 
L 158.823038 209.739733 
L 196.379109 250.611861 
L 250.091921 260.082879 
L 309.542167 243.062603 
z
" clip-path="url(#p31480311d2)" style="fill: #e24a33; opacity: 0.25"/>
   </g>
   <g id="patch_4">
    <path d="M 329.269477 181.56 
L 317.686161 113.223774 
L 253.642101 82.90305 
L 183.090072 89.490852 
L 146.335428 148.835148 
L 156.325516 210.648757 
L 169.801035 296.646435 
L 256.245567 294.981936 
L 309.542167 243.062603 
z
" clip-path="url(#p31480311d2)" style="fill: #348abd; opacity: 0.25"/>
   </g>
   <g id="patch_5">
    <path d="M 335.913995 181.56 
L 338.046147 96.139718 
L 252.577047 88.943271 
L 187.519751 97.163281 
L 161.32056 154.28929 
L 163.818082 207.921686 
L 183.090072 273.629148 
L 259.322389 312.431465 
L 301.398173 236.22898 
z
" clip-path="url(#p31480311d2)" style="fill: #988ed5; opacity: 0.25"/>
   </g>
   <g id="patch_6">
    <path d="M 329.269477 181.56 
L 338.046147 96.139718 
L 252.577047 88.943271 
L 187.519751 97.163281 
L 151.330472 150.653196 
L 156.325516 210.648757 
L 169.801035 296.646435 
L 254.707155 286.257172 
L 305.47017 239.645792 
z
" clip-path="url(#p31480311d2)" style="fill: #777777; opacity: 0.25"/>
   </g>
   <g id="patch_7">
    <path d="M 322.624958 181.56 
L 317.686161 113.223774 
L 252.222029 90.956678 
L 191.94943 104.83571 
L 151.330472 150.653196 
L 158.823038 209.739733 
L 196.379109 250.611861 
L 256.245567 294.981936 
L 301.398173 236.22898 
z
" clip-path="url(#p31480311d2)" style="fill: #fbc15e; opacity: 0.25"/>
   </g>
   <g id="patch_8">
    <path d="M 329.269477 181.56 
L 338.046147 96.139718 
L 251.867011 92.970085 
L 205.238467 127.852997 
L 161.32056 154.28929 
L 171.310648 205.194615 
L 183.090072 273.629148 
L 251.630333 268.807643 
L 293.254179 229.395358 
z
" clip-path="url(#p31480311d2)" style="fill: #8eba42; opacity: 0.25"/>
   </g>
   <g id="patch_9">
    <path d="M 309.335921 181.56 
L 338.046147 96.139718 
L 252.04452 91.963382 
L 191.94943 104.83571 
L 161.32056 154.28929 
L 168.813126 206.103639 
L 183.090072 273.629148 
L 248.55351 251.358114 
L 301.398173 236.22898 
z
" clip-path="url(#p31480311d2)" style="fill: #ffb5b8; opacity: 0.25"/>
   </g>
   <g id="line2d_15">
    <path d="M 309.335921 181.56 
L 317.686161 113.223774 
L 250.979466 98.003603 
L 191.94943 104.83571 
L 161.32056 154.28929 
L 158.823038 209.739733 
L 196.379109 250.611861 
L 250.091921 260.082879 
L 309.542167 243.062603 
L 309.335921 181.56 
" clip-path="url(#p31480311d2)" style="fill: none; stroke: #e24a33; stroke-width: 2; stroke-linecap: square"/>
    <defs>
     <path id="m34cb690b42" d="M 0 3 
C 0.795609 3 1.55874 2.683901 2.12132 2.12132 
C 2.683901 1.55874 3 0.795609 3 0 
C 3 -0.795609 2.683901 -1.55874 2.12132 -2.12132 
C 1.55874 -2.683901 0.795609 -3 0 -3 
C -0.795609 -3 -1.55874 -2.683901 -2.12132 -2.12132 
C -2.683901 -1.55874 -3 -0.795609 -3 0 
C -3 0.795609 -2.683901 1.55874 -2.12132 2.12132 
C -1.55874 2.683901 -0.795609 3 0 3 
z
" style="stroke: #e24a33"/>
    </defs>
    <g clip-path="url(#p31480311d2)">
     <use xlink:href="#m34cb690b42" x="309.335921" y="181.56" style="fill: #e24a33; stroke: #e24a33"/>
     <use xlink:href="#m34cb690b42" x="317.686161" y="113.223774" style="fill: #e24a33; stroke: #e24a33"/>
     <use xlink:href="#m34cb690b42" x="250.979466" y="98.003603" style="fill: #e24a33; stroke: #e24a33"/>
     <use xlink:href="#m34cb690b42" x="191.94943" y="104.83571" style="fill: #e24a33; stroke: #e24a33"/>
     <use xlink:href="#m34cb690b42" x="161.32056" y="154.28929" style="fill: #e24a33; stroke: #e24a33"/>
     <use xlink:href="#m34cb690b42" x="158.823038" y="209.739733" style="fill: #e24a33; stroke: #e24a33"/>
     <use xlink:href="#m34cb690b42" x="196.379109" y="250.611861" style="fill: #e24a33; stroke: #e24a33"/>
     <use xlink:href="#m34cb690b42" x="250.091921" y="260.082879" style="fill: #e24a33; stroke: #e24a33"/>
     <use xlink:href="#m34cb690b42" x="309.542167" y="243.062603" style="fill: #e24a33; stroke: #e24a33"/>
     <use xlink:href="#m34cb690b42" x="309.335921" y="181.56" style="fill: #e24a33; stroke: #e24a33"/>
    </g>
   </g>
   <g id="line2d_16">
    <path d="M 329.269477 181.56 
L 317.686161 113.223774 
L 253.642101 82.90305 
L 183.090072 89.490852 
L 146.335428 148.835148 
L 156.325516 210.648757 
L 169.801035 296.646435 
L 256.245567 294.981936 
L 309.542167 243.062603 
L 329.269477 181.56 
" clip-path="url(#p31480311d2)" style="fill: none; stroke: #348abd; stroke-width: 2; stroke-linecap: square"/>
    <defs>
     <path id="mfc7185cdcc" d="M 0 3 
C 0.795609 3 1.55874 2.683901 2.12132 2.12132 
C 2.683901 1.55874 3 0.795609 3 0 
C 3 -0.795609 2.683901 -1.55874 2.12132 -2.12132 
C 1.55874 -2.683901 0.795609 -3 0 -3 
C -0.795609 -3 -1.55874 -2.683901 -2.12132 -2.12132 
C -2.683901 -1.55874 -3 -0.795609 -3 0 
C -3 0.795609 -2.683901 1.55874 -2.12132 2.12132 
C -1.55874 2.683901 -0.795609 3 0 3 
z
" style="stroke: #348abd"/>
    </defs>
    <g clip-path="url(#p31480311d2)">
     <use xlink:href="#mfc7185cdcc" x="329.269477" y="181.56" style="fill: #348abd; stroke: #348abd"/>
     <use xlink:href="#mfc7185cdcc" x="317.686161" y="113.223774" style="fill: #348abd; stroke: #348abd"/>
     <use xlink:href="#mfc7185cdcc" x="253.642101" y="82.90305" style="fill: #348abd; stroke: #348abd"/>
     <use xlink:href="#mfc7185cdcc" x="183.090072" y="89.490852" style="fill: #348abd; stroke: #348abd"/>
     <use xlink:href="#mfc7185cdcc" x="146.335428" y="148.835148" style="fill: #348abd; stroke: #348abd"/>
     <use xlink:href="#mfc7185cdcc" x="156.325516" y="210.648757" style="fill: #348abd; stroke: #348abd"/>
     <use xlink:href="#mfc7185cdcc" x="169.801035" y="296.646435" style="fill: #348abd; stroke: #348abd"/>
     <use xlink:href="#mfc7185cdcc" x="256.245567" y="294.981936" style="fill: #348abd; stroke: #348abd"/>
     <use xlink:href="#mfc7185cdcc" x="309.542167" y="243.062603" style="fill: #348abd; stroke: #348abd"/>
     <use xlink:href="#mfc7185cdcc" x="329.269477" y="181.56" style="fill: #348abd; stroke: #348abd"/>
    </g>
   </g>
   <g id="line2d_17">
    <path d="M 335.913995 181.56 
L 338.046147 96.139718 
L 252.577047 88.943271 
L 187.519751 97.163281 
L 161.32056 154.28929 
L 163.818082 207.921686 
L 183.090072 273.629148 
L 259.322389 312.431465 
L 301.398173 236.22898 
L 335.913995 181.56 
" clip-path="url(#p31480311d2)" style="fill: none; stroke: #988ed5; stroke-width: 2; stroke-linecap: square"/>
    <defs>
     <path id="mf79b615e28" d="M 0 3 
C 0.795609 3 1.55874 2.683901 2.12132 2.12132 
C 2.683901 1.55874 3 0.795609 3 0 
C 3 -0.795609 2.683901 -1.55874 2.12132 -2.12132 
C 1.55874 -2.683901 0.795609 -3 0 -3 
C -0.795609 -3 -1.55874 -2.683901 -2.12132 -2.12132 
C -2.683901 -1.55874 -3 -0.795609 -3 0 
C -3 0.795609 -2.683901 1.55874 -2.12132 2.12132 
C -1.55874 2.683901 -0.795609 3 0 3 
z
" style="stroke: #988ed5"/>
    </defs>
    <g clip-path="url(#p31480311d2)">
     <use xlink:href="#mf79b615e28" x="335.913995" y="181.56" style="fill: #988ed5; stroke: #988ed5"/>
     <use xlink:href="#mf79b615e28" x="338.046147" y="96.139718" style="fill: #988ed5; stroke: #988ed5"/>
     <use xlink:href="#mf79b615e28" x="252.577047" y="88.943271" style="fill: #988ed5; stroke: #988ed5"/>
     <use xlink:href="#mf79b615e28" x="187.519751" y="97.163281" style="fill: #988ed5; stroke: #988ed5"/>
     <use xlink:href="#mf79b615e28" x="161.32056" y="154.28929" style="fill: #988ed5; stroke: #988ed5"/>
     <use xlink:href="#mf79b615e28" x="163.818082" y="207.921686" style="fill: #988ed5; stroke: #988ed5"/>
     <use xlink:href="#mf79b615e28" x="183.090072" y="273.629148" style="fill: #988ed5; stroke: #988ed5"/>
     <use xlink:href="#mf79b615e28" x="259.322389" y="312.431465" style="fill: #988ed5; stroke: #988ed5"/>
     <use xlink:href="#mf79b615e28" x="301.398173" y="236.22898" style="fill: #988ed5; stroke: #988ed5"/>
     <use xlink:href="#mf79b615e28" x="335.913995" y="181.56" style="fill: #988ed5; stroke: #988ed5"/>
    </g>
   </g>
   <g id="line2d_18">
    <path d="M 329.269477 181.56 
L 338.046147 96.139718 
L 252.577047 88.943271 
L 187.519751 97.163281 
L 151.330472 150.653196 
L 156.325516 210.648757 
L 169.801035 296.646435 
L 254.707155 286.257172 
L 305.47017 239.645792 
L 329.269477 181.56 
" clip-path="url(#p31480311d2)" style="fill: none; stroke: #777777; stroke-width: 2; stroke-linecap: square"/>
    <defs>
     <path id="m3bdc319f22" d="M 0 3 
C 0.795609 3 1.55874 2.683901 2.12132 2.12132 
C 2.683901 1.55874 3 0.795609 3 0 
C 3 -0.795609 2.683901 -1.55874 2.12132 -2.12132 
C 1.55874 -2.683901 0.795609 -3 0 -3 
C -0.795609 -3 -1.55874 -2.683901 -2.12132 -2.12132 
C -2.683901 -1.55874 -3 -0.795609 -3 0 
C -3 0.795609 -2.683901 1.55874 -2.12132 2.12132 
C -1.55874 2.683901 -0.795609 3 0 3 
z
" style="stroke: #777777"/>
    </defs>
    <g clip-path="url(#p31480311d2)">
     <use xlink:href="#m3bdc319f22" x="329.269477" y="181.56" style="fill: #777777; stroke: #777777"/>
     <use xlink:href="#m3bdc319f22" x="338.046147" y="96.139718" style="fill: #777777; stroke: #777777"/>
     <use xlink:href="#m3bdc319f22" x="252.577047" y="88.943271" style="fill: #777777; stroke: #777777"/>
     <use xlink:href="#m3bdc319f22" x="187.519751" y="97.163281" style="fill: #777777; stroke: #777777"/>
     <use xlink:href="#m3bdc319f22" x="151.330472" y="150.653196" style="fill: #777777; stroke: #777777"/>
     <use xlink:href="#m3bdc319f22" x="156.325516" y="210.648757" style="fill: #777777; stroke: #777777"/>
     <use xlink:href="#m3bdc319f22" x="169.801035" y="296.646435" style="fill: #777777; stroke: #777777"/>
     <use xlink:href="#m3bdc319f22" x="254.707155" y="286.257172" style="fill: #777777; stroke: #777777"/>
     <use xlink:href="#m3bdc319f22" x="305.47017" y="239.645792" style="fill: #777777; stroke: #777777"/>
     <use xlink:href="#m3bdc319f22" x="329.269477" y="181.56" style="fill: #777777; stroke: #777777"/>
    </g>
   </g>
   <g id="line2d_19">
    <path d="M 322.624958 181.56 
L 317.686161 113.223774 
L 252.222029 90.956678 
L 191.94943 104.83571 
L 151.330472 150.653196 
L 158.823038 209.739733 
L 196.379109 250.611861 
L 256.245567 294.981936 
L 301.398173 236.22898 
L 322.624958 181.56 
" clip-path="url(#p31480311d2)" style="fill: none; stroke: #fbc15e; stroke-width: 2; stroke-linecap: square"/>
    <defs>
     <path id="ma88da97992" d="M 0 3 
C 0.795609 3 1.55874 2.683901 2.12132 2.12132 
C 2.683901 1.55874 3 0.795609 3 0 
C 3 -0.795609 2.683901 -1.55874 2.12132 -2.12132 
C 1.55874 -2.683901 0.795609 -3 0 -3 
C -0.795609 -3 -1.55874 -2.683901 -2.12132 -2.12132 
C -2.683901 -1.55874 -3 -0.795609 -3 0 
C -3 0.795609 -2.683901 1.55874 -2.12132 2.12132 
C -1.55874 2.683901 -0.795609 3 0 3 
z
" style="stroke: #fbc15e"/>
    </defs>
    <g clip-path="url(#p31480311d2)">
     <use xlink:href="#ma88da97992" x="322.624958" y="181.56" style="fill: #fbc15e; stroke: #fbc15e"/>
     <use xlink:href="#ma88da97992" x="317.686161" y="113.223774" style="fill: #fbc15e; stroke: #fbc15e"/>
     <use xlink:href="#ma88da97992" x="252.222029" y="90.956678" style="fill: #fbc15e; stroke: #fbc15e"/>
     <use xlink:href="#ma88da97992" x="191.94943" y="104.83571" style="fill: #fbc15e; stroke: #fbc15e"/>
     <use xlink:href="#ma88da97992" x="151.330472" y="150.653196" style="fill: #fbc15e; stroke: #fbc15e"/>
     <use xlink:href="#ma88da97992" x="158.823038" y="209.739733" style="fill: #fbc15e; stroke: #fbc15e"/>
     <use xlink:href="#ma88da97992" x="196.379109" y="250.611861" style="fill: #fbc15e; stroke: #fbc15e"/>
     <use xlink:href="#ma88da97992" x="256.245567" y="294.981936" style="fill: #fbc15e; stroke: #fbc15e"/>
     <use xlink:href="#ma88da97992" x="301.398173" y="236.22898" style="fill: #fbc15e; stroke: #fbc15e"/>
     <use xlink:href="#ma88da97992" x="322.624958" y="181.56" style="fill: #fbc15e; stroke: #fbc15e"/>
    </g>
   </g>
   <g id="line2d_20">
    <path d="M 329.269477 181.56 
L 338.046147 96.139718 
L 251.867011 92.970085 
L 205.238467 127.852997 
L 161.32056 154.28929 
L 171.310648 205.194615 
L 183.090072 273.629148 
L 251.630333 268.807643 
L 293.254179 229.395358 
L 329.269477 181.56 
" clip-path="url(#p31480311d2)" style="fill: none; stroke: #8eba42; stroke-width: 2; stroke-linecap: square"/>
    <defs>
     <path id="mbdfb6b6e44" d="M 0 3 
C 0.795609 3 1.55874 2.683901 2.12132 2.12132 
C 2.683901 1.55874 3 0.795609 3 0 
C 3 -0.795609 2.683901 -1.55874 2.12132 -2.12132 
C 1.55874 -2.683901 0.795609 -3 0 -3 
C -0.795609 -3 -1.55874 -2.683901 -2.12132 -2.12132 
C -2.683901 -1.55874 -3 -0.795609 -3 0 
C -3 0.795609 -2.683901 1.55874 -2.12132 2.12132 
C -1.55874 2.683901 -0.795609 3 0 3 
z
" style="stroke: #8eba42"/>
    </defs>
    <g clip-path="url(#p31480311d2)">
     <use xlink:href="#mbdfb6b6e44" x="329.269477" y="181.56" style="fill: #8eba42; stroke: #8eba42"/>
     <use xlink:href="#mbdfb6b6e44" x="338.046147" y="96.139718" style="fill: #8eba42; stroke: #8eba42"/>
     <use xlink:href="#mbdfb6b6e44" x="251.867011" y="92.970085" style="fill: #8eba42; stroke: #8eba42"/>
     <use xlink:href="#mbdfb6b6e44" x="205.238467" y="127.852997" style="fill: #8eba42; stroke: #8eba42"/>
     <use xlink:href="#mbdfb6b6e44" x="161.32056" y="154.28929" style="fill: #8eba42; stroke: #8eba42"/>
     <use xlink:href="#mbdfb6b6e44" x="171.310648" y="205.194615" style="fill: #8eba42; stroke: #8eba42"/>
     <use xlink:href="#mbdfb6b6e44" x="183.090072" y="273.629148" style="fill: #8eba42; stroke: #8eba42"/>
     <use xlink:href="#mbdfb6b6e44" x="251.630333" y="268.807643" style="fill: #8eba42; stroke: #8eba42"/>
     <use xlink:href="#mbdfb6b6e44" x="293.254179" y="229.395358" style="fill: #8eba42; stroke: #8eba42"/>
     <use xlink:href="#mbdfb6b6e44" x="329.269477" y="181.56" style="fill: #8eba42; stroke: #8eba42"/>
    </g>
   </g>
   <g id="line2d_21">
    <path d="M 309.335921 181.56 
L 338.046147 96.139718 
L 252.04452 91.963382 
L 191.94943 104.83571 
L 161.32056 154.28929 
L 168.813126 206.103639 
L 183.090072 273.629148 
L 248.55351 251.358114 
L 301.398173 236.22898 
L 309.335921 181.56 
" clip-path="url(#p31480311d2)" style="fill: none; stroke: #ffb5b8; stroke-width: 2; stroke-linecap: square"/>
    <defs>
     <path id="m3993a9cea7" d="M 0 3 
C 0.795609 3 1.55874 2.683901 2.12132 2.12132 
C 2.683901 1.55874 3 0.795609 3 0 
C 3 -0.795609 2.683901 -1.55874 2.12132 -2.12132 
C 1.55874 -2.683901 0.795609 -3 0 -3 
C -0.795609 -3 -1.55874 -2.683901 -2.12132 -2.12132 
C -2.683901 -1.55874 -3 -0.795609 -3 0 
C -3 0.795609 -2.683901 1.55874 -2.12132 2.12132 
C -1.55874 2.683901 -0.795609 3 0 3 
z
" style="stroke: #ffb5b8"/>
    </defs>
    <g clip-path="url(#p31480311d2)">
     <use xlink:href="#m3993a9cea7" x="309.335921" y="181.56" style="fill: #ffb5b8; stroke: #ffb5b8"/>
     <use xlink:href="#m3993a9cea7" x="338.046147" y="96.139718" style="fill: #ffb5b8; stroke: #ffb5b8"/>
     <use xlink:href="#m3993a9cea7" x="252.04452" y="91.963382" style="fill: #ffb5b8; stroke: #ffb5b8"/>
     <use xlink:href="#m3993a9cea7" x="191.94943" y="104.83571" style="fill: #ffb5b8; stroke: #ffb5b8"/>
     <use xlink:href="#m3993a9cea7" x="161.32056" y="154.28929" style="fill: #ffb5b8; stroke: #ffb5b8"/>
     <use xlink:href="#m3993a9cea7" x="168.813126" y="206.103639" style="fill: #ffb5b8; stroke: #ffb5b8"/>
     <use xlink:href="#m3993a9cea7" x="183.090072" y="273.629148" style="fill: #ffb5b8; stroke: #ffb5b8"/>
     <use xlink:href="#m3993a9cea7" x="248.55351" y="251.358114" style="fill: #ffb5b8; stroke: #ffb5b8"/>
     <use xlink:href="#m3993a9cea7" x="301.398173" y="236.22898" style="fill: #ffb5b8; stroke: #ffb5b8"/>
     <use xlink:href="#m3993a9cea7" x="309.335921" y="181.56" style="fill: #ffb5b8; stroke: #ffb5b8"/>
    </g>
   </g>
   <g id="patch_10">
    <path d="M 372.68033 181.56 
C 372.68033 163.643637 369.151197 145.901487 362.294902 129.348926 
C 355.438606 112.796365 345.388486 97.755297 332.719704 85.086515 
C 320.050922 72.417733 305.009854 62.367613 288.457293 55.511317 
C 271.904732 48.655022 254.162582 45.125889 236.246219 45.125889 
C 218.329856 45.125889 200.587706 48.655022 184.035145 55.511317 
C 167.482584 62.367613 152.441516 72.417733 139.772734 85.086515 
C 127.103952 97.755297 117.053832 112.796365 110.197536 129.348926 
C 103.341241 145.901487 99.812108 163.643637 99.812108 181.56 
C 99.812108 199.476363 103.341241 217.218513 110.197536 233.771074 
C 117.053832 250.323635 127.103952 265.364703 139.772734 278.033485 
C 152.441516 290.702267 167.482584 300.752387 184.035145 307.608683 
C 200.587706 314.464978 218.329856 317.994111 236.246219 317.994111 
C 254.162582 317.994111 271.904732 314.464978 288.457293 307.608683 
C 305.009854 300.752387 320.050922 290.702267 332.719704 278.033485 
C 345.388486 265.364703 355.438606 250.323635 362.294902 233.771074 
C 369.151197 217.218513 372.68033 199.476363 372.68033 181.56 
" style="fill: none; stroke: #ffffff; stroke-linejoin: miter; stroke-linecap: square"/>
   </g>
   <g id="text_15">
    <!-- gpt4o acc -->
    <g transform="translate(196.724969 22.572259) scale(0.16 -0.16)">
     <defs>
      <path id="DejaVuSans-20" transform="scale(0.015625)"/>
     </defs>
     <use xlink:href="#DejaVuSans-67"/>
     <use xlink:href="#DejaVuSans-70" x="63.476562"/>
     <use xlink:href="#DejaVuSans-74" x="126.953125"/>
     <use xlink:href="#DejaVuSans-34" x="166.162109"/>
     <use xlink:href="#DejaVuSans-6f" x="229.785156"/>
     <use xlink:href="#DejaVuSans-20" x="290.966797"/>
     <use xlink:href="#DejaVuSans-61" x="322.753906"/>
     <use xlink:href="#DejaVuSans-63" x="384.033203"/>
     <use xlink:href="#DejaVuSans-63" x="439.013672"/>
    </g>
   </g>
   <g id="legend_1">
    <g id="patch_11">
     <path d="M 201.375907 234.433437 
L 271.116532 234.433437 
Q 273.116532 234.433437 273.116532 232.433437 
L 273.116532 130.686562 
Q 273.116532 128.686562 271.116532 128.686562 
L 201.375907 128.686562 
Q 199.375907 128.686562 199.375907 130.686562 
L 199.375907 232.433437 
Q 199.375907 234.433437 201.375907 234.433437 
z
" style="fill: #e5e5e5; opacity: 0.8; stroke: #cccccc; stroke-width: 0.5; stroke-linejoin: miter"/>
    </g>
    <g id="line2d_22">
     <path d="M 203.375907 136.785 
L 213.375907 136.785 
L 223.375907 136.785 
" style="fill: none; stroke: #e24a33; stroke-width: 2; stroke-linecap: square"/>
     <g>
      <use xlink:href="#m34cb690b42" x="213.375907" y="136.785" style="fill: #e24a33; stroke: #e24a33"/>
     </g>
    </g>
    <g id="text_16">
     <!-- No RAG -->
     <g transform="translate(231.375907 140.285) scale(0.1 -0.1)">
      <defs>
       <path id="DejaVuSans-4e" d="M 628 4666 
L 1478 4666 
L 3547 763 
L 3547 4666 
L 4159 4666 
L 4159 0 
L 3309 0 
L 1241 3903 
L 1241 0 
L 628 0 
L 628 4666 
z
" transform="scale(0.015625)"/>
       <path id="DejaVuSans-52" d="M 2841 2188 
Q 3044 2119 3236 1894 
Q 3428 1669 3622 1275 
L 4263 0 
L 3584 0 
L 2988 1197 
Q 2756 1666 2539 1819 
Q 2322 1972 1947 1972 
L 1259 1972 
L 1259 0 
L 628 0 
L 628 4666 
L 2053 4666 
Q 2853 4666 3247 4331 
Q 3641 3997 3641 3322 
Q 3641 2881 3436 2590 
Q 3231 2300 2841 2188 
z
M 1259 4147 
L 1259 2491 
L 2053 2491 
Q 2509 2491 2742 2702 
Q 2975 2913 2975 3322 
Q 2975 3731 2742 3939 
Q 2509 4147 2053 4147 
L 1259 4147 
z
" transform="scale(0.015625)"/>
       <path id="DejaVuSans-41" d="M 2188 4044 
L 1331 1722 
L 3047 1722 
L 2188 4044 
z
M 1831 4666 
L 2547 4666 
L 4325 0 
L 3669 0 
L 3244 1197 
L 1141 1197 
L 716 0 
L 50 0 
L 1831 4666 
z
" transform="scale(0.015625)"/>
       <path id="DejaVuSans-47" d="M 3809 666 
L 3809 1919 
L 2778 1919 
L 2778 2438 
L 4434 2438 
L 4434 434 
Q 4069 175 3628 42 
Q 3188 -91 2688 -91 
Q 1594 -91 976 548 
Q 359 1188 359 2328 
Q 359 3472 976 4111 
Q 1594 4750 2688 4750 
Q 3144 4750 3555 4637 
Q 3966 4525 4313 4306 
L 4313 3634 
Q 3963 3931 3569 4081 
Q 3175 4231 2741 4231 
Q 1884 4231 1454 3753 
Q 1025 3275 1025 2328 
Q 1025 1384 1454 906 
Q 1884 428 2741 428 
Q 3075 428 3337 486 
Q 3600 544 3809 666 
z
" transform="scale(0.015625)"/>
      </defs>
      <use xlink:href="#DejaVuSans-4e"/>
      <use xlink:href="#DejaVuSans-6f" x="74.804688"/>
      <use xlink:href="#DejaVuSans-20" x="135.986328"/>
      <use xlink:href="#DejaVuSans-52" x="167.773438"/>
      <use xlink:href="#DejaVuSans-41" x="233.255859"/>
      <use xlink:href="#DejaVuSans-47" x="299.914062"/>
     </g>
    </g>
    <g id="line2d_23">
     <path d="M 203.375907 151.463125 
L 213.375907 151.463125 
L 223.375907 151.463125 
" style="fill: none; stroke: #348abd; stroke-width: 2; stroke-linecap: square"/>
     <g>
      <use xlink:href="#mfc7185cdcc" x="213.375907" y="151.463125" style="fill: #348abd; stroke: #348abd"/>
     </g>
    </g>
    <g id="text_17">
     <!-- No RAG -->
     <g transform="translate(231.375907 154.963125) scale(0.1 -0.1)">
      <use xlink:href="#DejaVuSans-4e"/>
      <use xlink:href="#DejaVuSans-6f" x="74.804688"/>
      <use xlink:href="#DejaVuSans-20" x="135.986328"/>
      <use xlink:href="#DejaVuSans-52" x="167.773438"/>
      <use xlink:href="#DejaVuSans-41" x="233.255859"/>
      <use xlink:href="#DejaVuSans-47" x="299.914062"/>
     </g>
    </g>
    <g id="line2d_24">
     <path d="M 203.375907 166.14125 
L 213.375907 166.14125 
L 223.375907 166.14125 
" style="fill: none; stroke: #988ed5; stroke-width: 2; stroke-linecap: square"/>
     <g>
      <use xlink:href="#mf79b615e28" x="213.375907" y="166.14125" style="fill: #988ed5; stroke: #988ed5"/>
     </g>
    </g>
    <g id="text_18">
     <!-- No RAG -->
     <g transform="translate(231.375907 169.64125) scale(0.1 -0.1)">
      <use xlink:href="#DejaVuSans-4e"/>
      <use xlink:href="#DejaVuSans-6f" x="74.804688"/>
      <use xlink:href="#DejaVuSans-20" x="135.986328"/>
      <use xlink:href="#DejaVuSans-52" x="167.773438"/>
      <use xlink:href="#DejaVuSans-41" x="233.255859"/>
      <use xlink:href="#DejaVuSans-47" x="299.914062"/>
     </g>
    </g>
    <g id="line2d_25">
     <path d="M 203.375907 180.819375 
L 213.375907 180.819375 
L 223.375907 180.819375 
" style="fill: none; stroke: #777777; stroke-width: 2; stroke-linecap: square"/>
     <g>
      <use xlink:href="#m3bdc319f22" x="213.375907" y="180.819375" style="fill: #777777; stroke: #777777"/>
     </g>
    </g>
    <g id="text_19">
     <!-- No RAG -->
     <g transform="translate(231.375907 184.319375) scale(0.1 -0.1)">
      <use xlink:href="#DejaVuSans-4e"/>
      <use xlink:href="#DejaVuSans-6f" x="74.804688"/>
      <use xlink:href="#DejaVuSans-20" x="135.986328"/>
      <use xlink:href="#DejaVuSans-52" x="167.773438"/>
      <use xlink:href="#DejaVuSans-41" x="233.255859"/>
      <use xlink:href="#DejaVuSans-47" x="299.914062"/>
     </g>
    </g>
    <g id="line2d_26">
     <path d="M 203.375907 195.4975 
L 213.375907 195.4975 
L 223.375907 195.4975 
" style="fill: none; stroke: #fbc15e; stroke-width: 2; stroke-linecap: square"/>
     <g>
      <use xlink:href="#ma88da97992" x="213.375907" y="195.4975" style="fill: #fbc15e; stroke: #fbc15e"/>
     </g>
    </g>
    <g id="text_20">
     <!-- No RAG -->
     <g transform="translate(231.375907 198.9975) scale(0.1 -0.1)">
      <use xlink:href="#DejaVuSans-4e"/>
      <use xlink:href="#DejaVuSans-6f" x="74.804688"/>
      <use xlink:href="#DejaVuSans-20" x="135.986328"/>
      <use xlink:href="#DejaVuSans-52" x="167.773438"/>
      <use xlink:href="#DejaVuSans-41" x="233.255859"/>
      <use xlink:href="#DejaVuSans-47" x="299.914062"/>
     </g>
    </g>
    <g id="line2d_27">
     <path d="M 203.375907 210.175625 
L 213.375907 210.175625 
L 223.375907 210.175625 
" style="fill: none; stroke: #8eba42; stroke-width: 2; stroke-linecap: square"/>
     <g>
      <use xlink:href="#mbdfb6b6e44" x="213.375907" y="210.175625" style="fill: #8eba42; stroke: #8eba42"/>
     </g>
    </g>
    <g id="text_21">
     <!-- No RAG -->
     <g transform="translate(231.375907 213.675625) scale(0.1 -0.1)">
      <use xlink:href="#DejaVuSans-4e"/>
      <use xlink:href="#DejaVuSans-6f" x="74.804688"/>
      <use xlink:href="#DejaVuSans-20" x="135.986328"/>
      <use xlink:href="#DejaVuSans-52" x="167.773438"/>
      <use xlink:href="#DejaVuSans-41" x="233.255859"/>
      <use xlink:href="#DejaVuSans-47" x="299.914062"/>
     </g>
    </g>
    <g id="line2d_28">
     <path d="M 203.375907 224.85375 
L 213.375907 224.85375 
L 223.375907 224.85375 
" style="fill: none; stroke: #ffb5b8; stroke-width: 2; stroke-linecap: square"/>
     <g>
      <use xlink:href="#m3993a9cea7" x="213.375907" y="224.85375" style="fill: #ffb5b8; stroke: #ffb5b8"/>
     </g>
    </g>
    <g id="text_22">
     <!-- No RAG -->
     <g transform="translate(231.375907 228.35375) scale(0.1 -0.1)">
      <use xlink:href="#DejaVuSans-4e"/>
      <use xlink:href="#DejaVuSans-6f" x="74.804688"/>
      <use xlink:href="#DejaVuSans-20" x="135.986328"/>
      <use xlink:href="#DejaVuSans-52" x="167.773438"/>
      <use xlink:href="#DejaVuSans-41" x="233.255859"/>
      <use xlink:href="#DejaVuSans-47" x="299.914062"/>
     </g>
    </g>
   </g>
  </g>
 </g>
 <defs>
  <clipPath id="p31480311d2">
   <path d="M 372.68033 181.56 
C 372.68033 163.643637 369.151197 145.901487 362.294902 129.348926 
C 355.438606 112.796365 345.388486 97.755297 332.719704 85.086515 
C 320.050922 72.417733 305.009854 62.367613 288.457293 55.511317 
C 271.904732 48.655022 254.162582 45.125889 236.246219 45.125889 
C 218.329856 45.125889 200.587706 48.655022 184.035145 55.511317 
C 167.482584 62.367613 152.441516 72.417733 139.772734 85.086515 
C 127.103952 97.755297 117.053832 112.796365 110.197536 129.348926 
C 103.341241 145.901487 99.812108 163.643637 99.812108 181.56 
C 99.812108 199.476363 103.341241 217.218513 110.197536 233.771074 
C 117.053832 250.323635 127.103952 265.364703 139.772734 278.033485 
C 152.441516 290.702267 167.482584 300.752387 184.035145 307.608683 
C 200.587706 314.464978 218.329856 317.994111 236.246219 317.994111 
C 254.162582 317.994111 271.904732 314.464978 288.457293 307.608683 
C 305.009854 300.752387 320.050922 290.702267 332.719704 278.033485 
C 345.388486 265.364703 355.438606 250.323635 362.294902 233.771074 
C 369.151197 217.218513 372.68033 199.476363 372.68033 181.56 
M 236.246219 181.56 
C 236.246219 181.56 236.246219 181.56 236.246219 181.56 
C 236.246219 181.56 236.246219 181.56 236.246219 181.56 
C 236.246219 181.56 236.246219 181.56 236.246219 181.56 
C 236.246219 181.56 236.246219 181.56 236.246219 181.56 
C 236.246219 181.56 236.246219 181.56 236.246219 181.56 
C 236.246219 181.56 236.246219 181.56 236.246219 181.56 
C 236.246219 181.56 236.246219 181.56 236.246219 181.56 
C 236.246219 181.56 236.246219 181.56 236.246219 181.56 
C 236.246219 181.56 236.246219 181.56 236.246219 181.56 
C 236.246219 181.56 236.246219 181.56 236.246219 181.56 
C 236.246219 181.56 236.246219 181.56 236.246219 181.56 
C 236.246219 181.56 236.246219 181.56 236.246219 181.56 
C 236.246219 181.56 236.246219 181.56 236.246219 181.56 
C 236.246219 181.56 236.246219 181.56 236.246219 181.56 
C 236.246219 181.56 236.246219 181.56 236.246219 181.56 
C 236.246219 181.56 236.246219 181.56 236.246219 181.56 
z
"/>
  </clipPath>
 </defs>
</svg>
